
<svg class="sprite" aria-hidden="true" xmlns="http://www.w3.org/2000/svg" xmlns:xlink="http://www.w3.org/1999/xlink">

<symbol id="discover__icon" width="38" height="38" viewBox="0 0 38 38" fill="none">
    <circle cx="17.4166" cy="17.4167" r="11.0833" stroke="white" stroke-width="2"/>
    <path d="M17.4167 12.6667C16.7929 12.6667 16.1752 12.7895 15.5989 13.0282C15.0226 13.2669 14.499 13.6168 14.0579 14.0579C13.6169 14.499 13.267 15.0226 13.0283 15.5989C12.7895 16.1752 12.6667 16.7929 12.6667 17.4167" stroke="white" stroke-width="2" stroke-linecap="round"/>
    <path d="M31.6667 31.6667L26.9167 26.9167" stroke="white" stroke-width="2" stroke-linecap="round"/>
</symbol>


<symbol id="favourites__icon" width="36" height="36" viewBox="0 0 36 36" fill="none" >
    <path d="M15.2157 9.94136C16.3956 6.99987 16.9855 5.52912 18 5.52912C19.0145 5.52912 19.6045 6.99987 20.7844 9.94137L20.8393 10.0783C21.5059 11.7401 21.8392 12.571 22.5185 13.0761C23.1977 13.5811 24.0894 13.661 25.8728 13.8207L26.1952 13.8496C29.1139 14.1109 30.5733 14.2416 30.8856 15.1701C31.1978 16.0986 30.114 17.0846 27.9465 19.0566L27.2231 19.7148C26.1258 20.7131 25.5772 21.2122 25.3215 21.8664C25.2738 21.9884 25.2341 22.1135 25.2027 22.2407C25.0347 22.9227 25.1953 23.6468 25.5166 25.095L25.6166 25.5458C26.2072 28.2073 26.5024 29.538 25.9869 30.112C25.7943 30.3265 25.5439 30.4809 25.2658 30.5568C24.5215 30.7599 23.4648 29.8988 21.3513 28.1767C19.9636 27.0459 19.2697 26.4805 18.473 26.3533C18.1597 26.3032 17.8404 26.3032 17.527 26.3533C16.7303 26.4805 16.0365 27.0459 14.6487 28.1767C12.5353 29.8988 11.4786 30.7599 10.7343 30.5568C10.4561 30.4809 10.2058 30.3265 10.0131 30.112C9.49762 29.538 9.79287 28.2073 10.3834 25.5458L10.4834 25.095C10.8047 23.6468 10.9654 22.9227 10.7973 22.2407C10.7659 22.1135 10.7263 21.9884 10.6786 21.8664C10.4229 21.2122 9.87424 20.7131 8.77698 19.7148L8.05356 19.0566C5.88599 17.0846 4.80221 16.0986 5.11448 15.1701C5.42674 14.2416 6.8861 14.1109 9.80482 13.8496L10.1272 13.8207C11.9106 13.661 12.8023 13.5811 13.4816 13.0761C14.1608 12.571 14.4941 11.7401 15.1607 10.0783L15.2157 9.94136Z" stroke="white" stroke-width="2"/>
</symbol>


<symbol id="top_charts__icon" width="36" height="36" viewBox="0 0 36 36" fill="none"  >
    <rect x="24" y="18" width="6" height="10.5" rx="3" fill="white" stroke="white" stroke-width="2" stroke-linejoin="round"/>
    <rect x="6" y="18" width="6" height="10.5" rx="3" fill="white" stroke="white" stroke-width="2" stroke-linejoin="round"/>
    <path d="M6 19.5V24" stroke="white" stroke-width="2" stroke-linecap="round" stroke-linejoin="round"/>
    <path d="M30 19.5V24" stroke="white" stroke-width="2" stroke-linecap="round" stroke-linejoin="round"/>
    <path d="M30 19.5C30 15.9196 28.7357 12.4858 26.4853 9.95406C24.2348 7.42232 21.1826 6 18 6C14.8174 6 11.7652 7.42232 9.51472 9.95406C7.26428 12.4858 6 15.9196 6 19.5" stroke="white" stroke-width="2" stroke-linecap="round" stroke-linejoin="round"/>
</symbol>


<symbol id="podcast__icon" width="36" height="36" viewBox="0 0 36 36" fill="none">
    <rect x="13.5" y="4.5" width="9" height="16.5" rx="3" stroke="white" stroke-width="2" stroke-linejoin="round"/>
    <path d="M8 16.5C8 19.1522 9.05357 21.6957 10.9289 23.5711C12.8043 25.4464 15.3478 26.5 18 26.5C20.6522 26.5 23.1957 25.4464 25.0711 23.5711C26.9464 21.6957 28 19.1522 28 16.5" stroke="white" stroke-width="2" stroke-linecap="round" stroke-linejoin="round"/>
    <path d="M18 31.5V28.5" stroke="white" stroke-width="2" stroke-linecap="round" stroke-linejoin="round"/>
</symbol>


<symbol id="genre__icon" width="36" height="36" viewBox="0 0 36 36" fill="none"  >
    <path fill-rule="evenodd" clip-rule="evenodd" d="M28.5 23.9257V21H24.3787C24.027 21 23.8512 21 23.7031 21.0147C22.281 21.1562 21.1562 22.281 21.0147 23.7031C21 23.8512 21 24.027 21 24.3787C21 24.7983 21 25.0082 21.0187 25.1747C21.1998 26.7913 22.6364 27.969 24.2571 27.8296C24.424 27.8152 24.6298 27.774 25.0413 27.6917L25.4855 27.6029C26.0562 27.4888 26.3415 27.4317 26.5822 27.3386C27.5648 26.9586 28.2759 26.091 28.4559 25.0531C28.5 24.7987 28.5 24.5077 28.5 23.9257ZM13.5 26.9257V24H9.37868C9.02701 24 8.85117 24 8.70307 24.0147C7.28104 24.1562 6.15617 25.281 6.01473 26.7031C6 26.8512 6 27.027 6 27.3787C6 27.7983 6 28.0082 6.01866 28.1747C6.19982 29.7913 7.63636 30.969 9.25708 30.8296C9.42401 30.8152 9.62991 30.774 10.0413 30.6917L10.4854 30.6029C11.0561 30.4888 11.3415 30.4317 11.5822 30.3386C12.5648 29.9586 13.2759 29.091 13.4559 28.0531C13.5 27.7987 13.5 27.5077 13.5 26.9257Z" fill="white"/>
    <path d="M13.5 24V16.5M13.5 24V26.9257M13.5 24H9.37868M28.5 21V13.5M28.5 21V23.9257M28.5 21H24.3787M28.5 13.5L13.5 16.5M28.5 13.5V13.3188M13.5 16.5V13.9188M13.5 13.9188C13.5 11.5642 13.5 10.3869 14.18 9.55744C14.8599 8.72801 16.0144 8.49712 18.3233 8.03534M13.5 13.9188V12.2792C13.5 10.7095 13.5 9.92459 13.9533 9.37163C14.4066 8.81867 15.1763 8.66475 16.7155 8.35689L18.3233 8.03534M13.5 13.9188V26.9257M18.3233 8.03534L21.3233 7.43534M21.3233 7.43534C24.6437 6.77126 26.3039 6.43921 27.402 7.33939C28.5 8.23956 28.5 9.93265 28.5 13.3188M21.3233 7.43534L23.7155 6.95689C25.9291 6.51417 27.036 6.29281 27.768 6.89292C28.5 7.49304 28.5 8.62176 28.5 10.8792V13.3188M28.5 23.9257C28.5 24.5077 28.5 24.7987 28.4559 25.0531C28.2759 26.091 27.5648 26.9586 26.5822 27.3386C26.3415 27.4317 26.0562 27.4888 25.4855 27.6029M28.5 23.9257V23.9257C28.5 25.2952 28.5 25.98 28.1497 26.4911C28.085 26.5855 28.0122 26.6743 27.9322 26.7563C27.4998 27.2 26.8284 27.3343 25.4855 27.6029V27.6029M25.4855 27.6029L25.0413 27.6917M25.0413 27.6917C24.6298 27.774 24.424 27.8152 24.2571 27.8296C22.6364 27.969 21.1998 26.7913 21.0187 25.1747C21 25.0082 21 24.7983 21 24.3787M25.0413 27.6917V27.6917C23.5307 27.9939 22.7754 28.1449 22.199 27.893C21.8613 27.7454 21.571 27.5074 21.3601 27.2052C21 26.6894 21 25.9192 21 24.3787V24.3787M21 24.3787C21 24.027 21 23.8512 21.0147 23.7031C21.1562 22.281 22.281 21.1562 23.7031 21.0147C23.8512 21 24.027 21 24.3787 21M21 24.3787V24.3787C21 23.0895 21 22.445 21.286 21.9693C21.4545 21.6891 21.6891 21.4545 21.9693 21.286C22.445 21 23.0895 21 24.3787 21V21M13.5 26.9257C13.5 27.5077 13.5 27.7987 13.4559 28.0531C13.2759 29.091 12.5648 29.9586 11.5822 30.3386C11.3415 30.4317 11.0561 30.4888 10.4854 30.6029M13.5 26.9257V26.9257C13.5 28.2953 13.5 28.98 13.1497 29.4911C13.085 29.5856 13.0122 29.6743 12.9323 29.7563C12.4998 30.2 11.8284 30.3343 10.4854 30.6029V30.6029M10.4854 30.6029L10.0413 30.6917M10.0413 30.6917C9.62991 30.774 9.42401 30.8152 9.25708 30.8296C7.63636 30.969 6.19982 29.7913 6.01866 28.1747C6 28.0082 6 27.7983 6 27.3787M10.0413 30.6917V30.6917C8.53071 30.9939 7.77542 31.1449 7.19903 30.893C6.86135 30.7454 6.57101 30.5074 6.36006 30.2052C6 29.6894 6 28.9192 6 27.3787V27.3787M6 27.3787C6 27.027 6 26.8512 6.01473 26.7031C6.15617 25.281 7.28104 24.1562 8.70307 24.0147C8.85117 24 9.02701 24 9.37868 24M6 27.3787V27.3787C6 26.0895 6 25.445 6.28603 24.9693C6.45452 24.6891 6.68913 24.4545 6.96932 24.286C7.44497 24 8.08954 24 9.37868 24V24" stroke="white" stroke-width="2"/>
</symbol>


<symbol id="playlist__icon" width="36" height="36" viewBox="0 0 36 36" fill="none" >

    <path fill-rule="evenodd" clip-rule="evenodd" d="M18.5 11.5V3H15C10.7574 3 8.63604 3 7.31802 4.31802C6 5.63604 6 7.75736 6 12V24C6 28.2426 6 30.364 7.31802 31.682C8.63604 33 10.7574 33 15 33H21C25.2426 33 27.364 33 28.682 31.682C30 30.364 30 28.2426 30 24V14.5H21.5L21.4456 14.5H21.4456H21.4456C21.0215 14.5001 20.6094 14.5002 20.2695 14.4545C19.8863 14.403 19.449 14.2774 19.0858 13.9142C18.7226 13.551 18.597 13.1137 18.5455 12.7305C18.4998 12.3906 18.4999 11.9785 18.5 11.5544V11.5544V11.5544L18.5 11.5ZM20.5 11.5V3.00065C21.4132 3.00457 21.9321 3.03231 22.4054 3.22836C22.9567 3.45672 23.3903 3.89027 24.2574 4.75736L28.2426 8.74264C29.1097 9.60973 29.5433 10.0433 29.7716 10.5946C29.9677 11.0679 29.9954 11.5868 29.9994 12.5H21.5C21.0003 12.5 20.7262 12.4979 20.536 12.4723L20.5287 12.4713L20.5277 12.464C20.5021 12.2738 20.5 11.9997 20.5 11.5ZM16.2565 18.1858L21.5012 20.7632C22.8329 21.4176 22.8329 23.5824 21.5012 24.2368L16.2565 26.8142C14.9516 27.4555 13.5 26.3579 13.5 24.73V20.27C13.5 18.6421 14.9516 17.5445 16.2565 18.1858Z" fill="none"/>

    </symbol>


 <symbol id="search__icon" width="24" height="24" viewBox="0 0 24 24" fill="none" >
    <path d="M18 11C18 14.866 14.866 18 11 18C7.13401 18 4 14.866 4 11C4 7.13401 7.13401 4 11 4C14.866 4 18 7.13401 18 11Z" fill="white"/>
    <path d="M20 20L18 18" stroke="white" stroke-width="2" stroke-linecap="round"/>
</symbol>

 
 
<symbol id="burger__icon" width="25" height="25" viewBox="0 0 25 25" fill="none">
    <rect x="2" y="5" width="21" height="2" fill="var(--main-color)"/>
    <rect x="2" y="11.5" width="21" height="2" fill="var(--main-color)"/>
    <rect x="2" y="18" width="21" height="2" fill="var(--main-color)"/>
</symbol>

</svg>  




 
