 
<svg version="1.0" xmlns="http://www.w3.org/2000/svg"
 width="1024.000000pt" height="1536.000000pt" viewBox="0 0 1024.000000 1536.000000"
 preserveAspectRatio="xMidYMid meet">

<g transform="translate(0.000000,1536.000000) scale(0.100000,-0.100000)"
fill="#000000" stroke="none">
<path d="M4900 11590 c-800 -43 -1556 -329 -2176 -821 -153 -122 -415 -381
-537 -531 -227 -279 -412 -580 -553 -903 -60 -137 -155 -417 -145 -428 4 -4
70 -6 146 -5 l139 3 58 155 c252 672 715 1257 1313 1657 459 307 1000 504
1575 575 65 8 218 13 405 13 255 -1 324 -4 458 -23 753 -107 1405 -413 1943
-913 401 -374 683 -796 879 -1321 l53 -143 138 -3 c76 -1 143 0 150 2 26 10
-101 364 -211 591 -571 1172 -1706 1953 -3020 2079 -202 19 -441 25 -615 16z"/>
<path d="M5594 10481 c-11 -5 -33 -23 -47 -41 l-27 -32 0 -619 0 -619 34 -38
c33 -35 38 -37 96 -37 58 0 63 2 96 37 l34 38 0 620 0 620 -33 36 c-28 31 -41
37 -83 40 -27 2 -58 0 -70 -5z"/>
<path d="M3995 10371 c-11 -5 -31 -21 -45 -36 l-25 -27 -3 -539 c-2 -451 0
-544 12 -573 38 -91 168 -98 230 -13 21 28 21 40 24 544 1 320 -1 529 -8 552
-15 56 -59 93 -117 97 -26 2 -57 0 -68 -5z"/>
<path d="M4539 10135 c-59 -32 -59 -33 -59 -402 0 -320 1 -340 20 -371 44 -71
134 -80 197 -17 l33 33 0 345 c0 334 -1 345 -21 371 -42 53 -115 71 -170 41z"/>
<path d="M6151 9932 c-65 -33 -71 -60 -71 -300 0 -236 4 -257 63 -292 61 -38
133 -21 174 39 22 33 23 41 23 255 0 202 -2 224 -20 253 -36 60 -105 78 -169
45z"/>
<path d="M3402 9870 c-58 -36 -62 -58 -62 -365 0 -299 4 -323 55 -363 61 -48
146 -32 192 37 23 33 23 40 23 318 0 301 -3 327 -49 367 -33 29 -117 33 -159
6z"/>
<path d="M6720 9738 c-59 -40 -61 -47 -58 -321 l3 -249 37 -34 c31 -28 45 -34
82 -34 58 0 86 13 114 54 23 33 23 37 20 285 l-3 251 -32 31 c-43 44 -113 51
-163 17z"/>
<path d="M5073 9560 c-61 -37 -63 -49 -63 -362 0 -263 1 -285 20 -315 48 -80
159 -83 219 -7 20 26 21 38 21 318 0 271 -1 293 -20 323 -37 61 -116 81 -177
43z"/>
<path d="M1385 8589 c-159 -21 -269 -71 -362 -165 -103 -102 -146 -235 -123
-379 16 -100 44 -156 108 -218 97 -91 194 -126 495 -177 231 -39 277 -62 277
-139 0 -76 -51 -113 -180 -132 -73 -10 -99 -10 -183 4 -106 18 -165 40 -268
99 -36 21 -70 38 -76 38 -9 0 -106 -111 -167 -193 -38 -49 -29 -69 61 -137 83
-63 181 -111 288 -142 71 -20 101 -23 270 -22 178 0 196 2 280 28 115 35 175
68 247 135 88 81 118 141 138 276 13 85 -3 184 -42 256 -79 149 -227 220 -578
279 -153 25 -206 42 -242 77 -39 37 -37 76 5 118 83 83 275 83 474 0 49 -20
95 -39 104 -41 11 -4 39 29 97 116 45 66 82 129 82 139 0 25 -23 43 -105 84
-137 68 -245 95 -410 101 -66 3 -151 1 -190 -5z"/>
<path d="M2961 8579 c-346 -75 -578 -315 -622 -645 -14 -104 -6 -261 16 -349
21 -83 94 -229 148 -296 112 -139 307 -240 525 -269 118 -16 301 -8 405 19
351 91 577 363 594 716 13 256 -60 451 -231 620 -65 64 -100 90 -176 128 -137
68 -223 88 -410 93 -130 3 -170 1 -249 -17z m401 -371 c150 -70 238 -219 238
-403 0 -130 -45 -239 -129 -318 -65 -61 -136 -93 -230 -107 -192 -27 -360 59
-444 229 -27 56 -32 77 -35 164 -8 190 44 315 166 399 76 52 141 68 267 65 94
-2 118 -6 167 -29z"/>
<path d="M4231 8556 c-9 -11 -11 -135 -8 -503 4 -539 4 -536 72 -678 82 -169
219 -279 423 -337 66 -19 101 -22 247 -22 156 0 177 3 260 28 241 73 402 245
455 484 18 79 20 131 20 565 l0 477 -212 -2 -213 -3 -5 -490 c-6 -559 -3 -542
-95 -623 -57 -50 -122 -72 -215 -72 -99 0 -164 23 -215 76 -75 77 -75 75 -75
610 0 260 -3 479 -6 488 -5 14 -34 16 -214 16 -168 0 -210 -3 -219 -14z"/>
<path d="M6007 8563 c-4 -3 -7 -342 -7 -753 0 -567 3 -749 12 -758 13 -13 381
-18 412 -6 14 5 16 51 16 405 0 219 3 399 8 398 4 0 151 -181 327 -402 l320
-402 195 0 195 0 0 760 0 760 -209 3 c-135 1 -213 -1 -220 -8 -7 -7 -9 -147
-7 -420 2 -280 0 -410 -8 -410 -10 0 -55 56 -484 597 l-192 242 -176 0 c-97 1
-179 -2 -182 -6z"/>
<path d="M7807 8564 c-10 -10 -9 -1496 2 -1512 7 -11 80 -13 402 -10 387 4
396 5 491 31 154 41 246 94 358 206 79 79 103 111 137 181 50 104 72 189 79
311 14 229 -58 430 -212 585 -59 60 -90 81 -175 123 -171 83 -174 84 -654 88
-231 3 -424 1 -428 -3z m774 -354 c78 -14 158 -58 195 -107 132 -173 101 -492
-58 -613 -84 -63 -123 -73 -310 -78 l-168 -4 0 406 0 406 144 0 c79 0 168 -4
197 -10z"/>
<path d="M1480 6660 c0 -43 106 -305 200 -495 415 -838 1086 -1473 1946 -1840
322 -138 687 -232 1094 -281 200 -25 617 -25 825 0 1310 155 2415 929 3006
2108 78 155 209 481 209 519 0 5 -65 9 -149 9 l-149 0 -18 -47 c-175 -483
-473 -944 -841 -1304 -706 -690 -1612 -1047 -2583 -1016 -548 18 -1042 146
-1526 396 -779 403 -1413 1113 -1689 1894 l-28 77 -148 0 c-142 0 -149 -1
-149 -20z"/>
<path d="M2515 6658 c-3 -13 -4 -228 -3 -478 l3 -455 133 -3 132 -3 0 181 0
180 190 0 190 0 2 -177 3 -178 128 -3 127 -3 0 481 0 481 -127 -3 -128 -3 -3
-187 -2 -188 -190 0 -190 0 -2 188 -3 187 -127 3 c-125 3 -128 2 -133 -20z"/>
<path d="M3941 6638 c-10 -24 -56 -128 -101 -233 -234 -539 -280 -648 -280
-666 0 -18 8 -19 129 -19 l128 0 34 83 34 82 219 0 219 0 35 -82 35 -83 128 0
c110 0 129 2 129 16 0 8 -20 61 -44 117 -134 310 -337 775 -349 797 -13 25
-15 25 -155 28 l-142 3 -19 -43z m240 -369 c33 -79 63 -152 66 -161 5 -17 -6
-18 -141 -18 l-146 0 21 53 c24 60 70 171 101 240 12 27 25 44 30 39 5 -5 36
-74 69 -153z"/>
<path d="M4544 6665 c-4 -9 2 -37 11 -63 28 -73 310 -760 338 -824 l26 -58
134 0 134 0 12 28 c20 42 224 534 302 728 39 96 68 182 65 190 -4 11 -31 14
-134 14 l-129 0 -38 -107 c-102 -293 -199 -553 -206 -553 -4 0 -14 19 -23 43
-8 23 -51 139 -94 257 -44 118 -90 247 -104 285 l-26 70 -131 3 c-112 2 -132
0 -137 -13z"/>
<path d="M5725 6668 c-3 -7 -4 -222 -3 -478 l3 -465 383 -3 383 -2 -3 107 -3
108 -253 3 -253 2 3 78 3 77 233 3 233 2 -3 98 -3 97 -230 5 -230 5 0 75 0 75
240 5 240 5 0 105 0 105 -368 3 c-289 2 -369 0 -372 -10z"/>
<path d="M6680 6200 l0 -480 125 0 c93 0 125 3 126 13 1 6 0 126 -1 265 -1
138 2 252 7 251 4 0 64 -75 133 -167 69 -91 160 -210 203 -264 l78 -99 117 3
117 3 3 478 2 478 -132 -3 -133 -3 -5 -260 -5 -260 -47 60 c-26 33 -116 150
-200 260 l-153 200 -118 3 -117 3 0 -481z"/>
</g>
</svg>
