 
<svg   xmlns="http://www.w3.org/2000/svg"
 width="1024.000000pt" height="1536.000000pt" viewBox="0 0 1024.000000 1536.000000"
 preserveAspectRatio="xMidYMid meet">

<g transform="translate(0.000000,1536.000000) scale(0.100000,-0.100000)"
fill="#000000" stroke="none">
<path d="M8388 13959 c-3 -8 -13 -14 -24 -14 -12 0 -19 -7 -20 -20 -1 -11 -11
-39 -23 -63 -12 -24 -26 -69 -32 -100 -5 -31 -14 -66 -18 -77 -30 -71 -42
-110 -56 -185 -9 -47 -22 -108 -31 -137 -8 -28 -16 -74 -18 -102 -3 -27 -9
-58 -14 -68 -5 -10 -12 -34 -15 -53 -7 -51 -18 -93 -29 -106 -5 -7 -12 -40
-17 -75 -5 -35 -16 -95 -25 -134 -9 -38 -16 -73 -16 -77 0 -4 -6 -13 -13 -20
-7 -7 -20 -38 -30 -68 -9 -30 -24 -77 -32 -103 -8 -26 -15 -52 -15 -58 0 -5
-9 -19 -20 -31 -11 -12 -20 -27 -20 -34 0 -6 -7 -15 -16 -18 -8 -3 -13 -10
-10 -14 8 -14 -34 -54 -51 -48 -9 4 -11 2 -7 -6 5 -8 -1 -9 -22 -4 -37 10 -35
7 -41 61 -4 26 -11 45 -18 45 -7 0 -18 7 -25 15 -10 12 -9 15 6 16 17 0 17 2
-3 11 -12 6 -24 21 -27 33 -5 18 -16 25 -46 30 -22 4 -40 11 -40 16 0 5 5 9
10 9 6 0 10 7 10 16 0 10 -5 14 -15 10 -8 -3 -22 -9 -30 -12 -11 -4 -15 0 -15
15 0 12 -6 21 -15 21 -8 0 -14 3 -14 8 4 21 -4 32 -32 46 -25 13 -38 13 -74 4
-37 -10 -45 -9 -60 5 -9 9 -22 17 -29 17 -7 0 -18 11 -24 25 -6 14 -17 24 -24
23 -7 -2 -12 5 -12 15 1 9 -2 17 -6 17 -5 0 -10 15 -12 33 -2 24 -8 32 -23 32
-25 0 -55 -36 -55 -67 -1 -42 -54 -85 -67 -53 -4 12 -8 13 -19 4 -11 -9 -18
-7 -33 10 -22 26 -30 26 -47 4 -8 -11 -13 -13 -14 -5 0 6 -7 12 -15 12 -8 0
-15 4 -15 9 0 5 -7 12 -16 15 -9 4 -13 2 -8 -5 8 -13 -24 -5 -70 17 -16 8 -36
14 -45 13 -9 -1 -5 -5 9 -9 24 -8 24 -8 3 -9 -13 -1 -23 -5 -23 -10 0 -5 -9
-7 -20 -4 -15 4 -20 0 -21 -13 0 -11 -3 -14 -6 -6 -2 6 -9 12 -15 12 -6 0 -8
-7 -4 -15 3 -8 1 -15 -4 -15 -6 0 -10 7 -10 16 0 11 -6 15 -19 11 -10 -2 -39
6 -63 18 -47 24 -98 30 -98 11 0 -6 -4 -5 -9 3 -6 10 -19 12 -41 7 -27 -5 -31
-4 -21 8 9 11 10 20 1 35 -9 17 -20 20 -63 20 -76 -2 -89 0 -82 11 6 10 -2 9
-40 -6 -23 -8 -85 -11 -85 -4 0 3 -17 6 -37 7 -20 1 -40 8 -45 16 -5 9 -16 13
-28 10 -11 -3 -20 0 -20 6 0 15 -16 14 -32 -2 -7 -8 -30 -20 -51 -26 -20 -7
-37 -18 -37 -25 0 -7 -10 -12 -22 -10 -13 1 -29 3 -35 3 -7 1 -13 8 -13 16 0
20 -100 22 -100 3 -1 -9 -5 -8 -13 3 -10 13 -28 15 -101 12 -54 -2 -93 0 -101
7 -9 8 -14 8 -17 -1 -3 -9 -9 -9 -26 0 -12 7 -26 9 -31 7 -5 -3 -12 2 -15 11
-5 12 -10 13 -18 5 -8 -8 -16 -5 -29 11 -12 14 -18 17 -19 8 0 -11 -4 -11 -23
2 -20 13 -27 13 -48 1 -13 -7 -32 -13 -41 -14 -10 0 -18 -5 -18 -11 0 -7 -10
-9 -26 -5 -21 6 -25 4 -21 -8 5 -13 -1 -16 -29 -16 -19 0 -33 3 -31 8 3 4 -17
8 -44 9 -35 2 -49 -2 -49 -11 0 -10 -11 -11 -45 -6 -24 4 -42 3 -39 -2 9 -14
-25 -21 -41 -8 -8 7 -22 10 -30 6 -9 -3 -13 -2 -10 4 3 6 0 10 -8 10 -8 0 -18
-8 -21 -17 -6 -13 -9 -14 -15 -5 -7 11 -18 11 -62 0 -56 -14 -105 -15 -174 -3
-37 6 -39 5 -20 -8 11 -9 17 -18 13 -22 -9 -10 -50 20 -40 30 4 4 -6 5 -23 1
-68 -15 -82 -17 -117 -16 -21 0 -58 -8 -82 -20 -25 -11 -54 -20 -65 -20 -13 0
-21 -7 -21 -17 0 -13 -3 -14 -12 -5 -15 15 -42 16 -32 0 5 -8 0 -9 -14 -6 -14
4 -22 2 -22 -7 0 -8 -8 -11 -20 -8 -11 3 -27 0 -35 -7 -9 -8 -27 -10 -47 -6
-22 4 -37 1 -51 -11 -19 -17 -20 -17 -14 0 4 9 2 17 -2 17 -12 0 -22 -30 -14
-43 4 -6 0 -8 -10 -4 -22 8 -88 -20 -107 -47 -15 -21 -16 -25 -19 -49 -1 -17
-66 -46 -138 -62 -10 -2 -53 -18 -96 -34 -43 -17 -85 -31 -93 -31 -8 0 -14 -4
-14 -10 0 -5 -5 -10 -11 -10 -6 0 -37 -11 -68 -24 -31 -13 -95 -40 -142 -60
-104 -43 -277 -132 -340 -174 -25 -17 -57 -36 -70 -41 -34 -15 -274 -169 -339
-218 -123 -93 -167 -128 -206 -162 -22 -20 -63 -56 -92 -81 -28 -25 -90 -82
-138 -127 -48 -46 -91 -83 -95 -83 -4 0 -61 -60 -126 -134 -174 -197 -193
-219 -193 -226 0 -4 -10 -15 -21 -26 -12 -10 -39 -45 -61 -76 -21 -32 -47 -66
-57 -75 -10 -10 -34 -46 -55 -81 -21 -34 -43 -68 -49 -75 -22 -22 -77 -113
-77 -127 0 -7 -16 -36 -35 -65 -18 -29 -40 -65 -46 -81 -7 -16 -18 -36 -25
-44 -23 -29 -54 -91 -54 -108 0 -10 -15 -41 -34 -70 -19 -29 -37 -69 -41 -89
-4 -20 -23 -66 -42 -102 -20 -36 -40 -86 -45 -111 -4 -25 -13 -47 -18 -48 -6
-2 -8 -8 -4 -13 3 -5 0 -9 -5 -9 -6 0 -11 -7 -11 -15 0 -8 -8 -41 -19 -72 -10
-32 -24 -78 -31 -103 -7 -25 -21 -64 -31 -87 -11 -24 -19 -47 -19 -53 0 -5 -3
-10 -8 -10 -13 0 -40 -73 -52 -140 -18 -103 -29 -171 -36 -225 -4 -27 -9 -59
-11 -70 -2 -11 -5 -49 -8 -84 -2 -35 -8 -67 -13 -70 -9 -5 -19 -116 -27 -301
-2 -35 -7 -66 -13 -68 -7 -2 -7 -15 -1 -37 5 -18 9 -69 8 -112 -1 -43 1 -94 5
-113 4 -19 9 -48 11 -65 2 -16 8 -67 14 -112 5 -46 12 -86 15 -91 10 -16 17
-68 22 -152 10 -214 13 -248 22 -295 6 -27 18 -63 26 -80 9 -16 16 -45 16 -63
0 -18 4 -41 9 -50 5 -9 11 -38 14 -65 3 -26 9 -52 13 -58 24 -39 39 -193 24
-235 -8 -20 -12 -23 -23 -13 -7 7 -13 22 -13 33 1 15 -5 20 -24 21 -23 0 -25
-4 -26 -45 -2 -63 6 -100 22 -100 18 0 18 9 -3 32 -9 10 -11 18 -6 18 6 0 14
10 18 23 6 19 8 19 12 5 2 -10 9 -18 14 -18 5 0 9 -7 9 -15 0 -8 -4 -15 -10
-15 -5 0 -10 -7 -10 -15 0 -19 4 -19 40 0 29 15 30 15 30 -10 0 -17 7 -28 23
-34 29 -12 77 -65 77 -85 0 -9 3 -16 8 -16 4 0 8 -12 9 -27 3 -54 12 -110 23
-137 14 -38 13 -73 -4 -79 -12 -5 -14 -23 -11 -84 4 -110 14 -155 35 -160 18
-5 20 -27 6 -89 -6 -27 -3 -35 18 -52 28 -21 34 -60 14 -80 -9 -9 -6 -12 14
-12 22 0 26 -4 23 -22 -3 -16 3 -29 18 -40 14 -11 17 -18 8 -18 -8 0 -3 -8 11
-20 27 -20 43 -60 26 -60 -6 0 -5 -7 2 -15 10 -12 15 -13 20 -4 5 7 13 -1 21
-20 8 -17 17 -31 22 -31 4 0 12 -12 18 -27 10 -26 12 -27 19 -8 5 11 9 14 9 8
1 -7 8 -13 17 -13 11 0 14 -6 8 -22 -4 -13 -12 -26 -18 -30 -6 -5 -7 -8 -1 -8
6 0 19 -15 29 -33 20 -33 22 -38 24 -70 1 -10 7 -15 12 -12 9 6 14 -14 11 -42
-1 -7 2 -13 6 -14 28 -2 43 -9 62 -28 12 -12 32 -21 46 -21 15 0 25 -6 25 -14
0 -13 37 -32 75 -38 10 -2 27 -10 36 -18 49 -42 51 -43 59 -30 12 20 40 4 40
-24 0 -13 7 -27 17 -30 15 -6 15 -8 3 -16 -8 -6 -10 -10 -5 -11 47 -4 99 -35
101 -60 1 -8 2 -20 3 -28 1 -9 9 -11 27 -7 30 8 54 -8 54 -34 0 -10 10 -20 23
-24 13 -3 33 -23 45 -45 18 -31 26 -38 44 -33 24 6 48 -20 48 -53 0 -16 14
-29 53 -48 29 -15 62 -27 75 -27 13 0 22 -6 22 -15 0 -8 7 -15 15 -15 8 0 15
-6 15 -14 0 -7 13 -19 30 -26 16 -7 28 -16 25 -20 -3 -5 11 -25 30 -46 38 -40
42 -50 23 -57 -12 -3 -3 -33 19 -66 1 -2 9 2 17 8 11 9 16 9 21 0 4 -6 1 -15
-6 -20 -10 -6 -8 -9 9 -9 16 0 22 6 23 23 1 20 2 20 6 2 6 -24 32 -44 56 -45
10 0 24 -14 33 -33 10 -20 24 -33 36 -34 12 -1 24 -7 28 -13 10 -16 80 -16 91
1 6 10 9 11 9 1 0 -7 6 -12 13 -10 6 1 28 -3 47 -9 19 -6 48 -14 64 -18 15 -3
26 -8 23 -11 -7 -8 36 -50 47 -46 4 1 19 -4 32 -12 12 -9 31 -13 40 -9 11 4
23 -2 35 -18 10 -13 24 -24 31 -25 7 0 23 -2 34 -2 25 -2 39 -29 24 -47 -11
-14 13 -47 43 -58 9 -3 17 -16 17 -27 0 -11 4 -20 10 -20 5 0 16 -13 25 -30
11 -21 23 -30 40 -30 13 0 27 -4 30 -10 9 -14 42 -13 47 2 7 21 38 0 38 -26 0
-18 4 -24 15 -20 9 4 15 0 15 -10 0 -10 9 -16 24 -16 17 0 27 -7 31 -22 4 -13
17 -31 29 -40 18 -15 19 -18 4 -18 -17 0 -26 -19 -10 -21 4 0 23 -2 42 -4 47
-4 89 -21 96 -40 4 -8 14 -15 24 -15 26 0 137 -59 144 -76 3 -8 19 -14 41 -14
19 0 35 -4 35 -8 0 -5 15 -8 33 -7 17 2 37 -2 44 -7 6 -5 44 -11 84 -13 39 -2
75 -8 78 -14 9 -14 81 -11 81 3 0 7 41 11 120 11 66 1 120 -2 120 -7 0 -4 12
-7 28 -6 15 0 54 -3 87 -6 33 -4 80 -6 105 -6 33 0 41 -2 30 -10 -11 -7 -4
-10 30 -11 25 -1 58 0 73 1 15 1 34 -3 41 -9 9 -8 27 -8 62 0 27 6 59 11 71
12 11 1 19 5 16 10 -2 4 1 7 6 7 6 0 11 -7 11 -16 0 -12 5 -14 18 -9 9 5 25 8
34 9 9 0 14 4 12 8 -5 8 36 16 119 22 31 2 57 0 57 -5 0 -4 29 -6 65 -3 36 3
73 1 82 -5 14 -8 9 -11 -27 -12 -26 -1 -34 -3 -20 -6 14 -2 32 -7 40 -10 8 -3
19 -5 24 -4 4 1 58 4 120 7 61 3 115 10 121 15 12 12 75 12 75 -1 0 -5 18 -8
40 -6 29 2 40 0 40 -10 0 -17 39 -19 170 -8 82 6 142 23 89 25 l-24 0 22 9
c13 5 40 11 60 14 21 2 50 9 65 15 15 6 35 8 43 5 10 -4 18 2 24 17 5 13 10
18 10 12 1 -20 39 -15 50 5 6 12 22 19 42 20 22 0 41 10 58 29 14 15 25 30 24
33 -1 4 11 5 26 2 21 -3 35 4 63 32 20 20 45 36 56 36 11 0 25 7 32 15 9 11
17 12 31 4 10 -5 19 -7 19 -4 0 4 7 -1 16 -10 12 -11 20 -13 27 -6 6 6 21 11
34 11 17 0 23 6 23 21 0 11 4 18 9 15 5 -3 11 5 13 19 4 21 1 25 -18 25 -13 0
-24 4 -24 8 0 17 12 21 36 12 19 -8 26 -5 42 18 21 29 25 62 8 62 -28 0 15 20
51 24 53 5 65 13 58 36 -4 13 0 20 15 25 11 3 20 11 20 17 0 5 6 8 13 5 17 -6
47 11 47 28 0 13 41 33 48 24 2 -2 8 4 13 14 6 9 16 17 23 17 8 0 27 7 42 15
16 8 46 15 66 15 20 0 38 5 40 12 2 6 13 13 23 14 30 4 65 26 65 40 0 7 10 14
23 16 16 2 21 9 19 26 -4 30 23 39 48 17 27 -24 25 -7 -2 22 -13 14 -17 23 -9
23 7 0 11 6 8 14 -3 8 3 22 14 32 17 16 22 16 29 4 9 -15 11 -13 14 13 1 6 12
11 24 10 12 -2 22 1 22 6 0 5 6 9 13 8 40 -1 49 3 44 24 -5 18 -2 20 19 16 24
-4 24 -3 9 19 -19 30 -19 54 0 54 9 0 15 -9 15 -25 0 -14 4 -25 8 -25 15 0 32
24 32 47 0 27 64 60 85 43 6 -5 15 -6 19 -2 4 4 17 7 28 7 14 0 24 11 33 39 8
22 13 42 13 45 -3 20 35 81 55 86 30 8 50 50 31 66 -11 9 -11 15 -3 25 6 8 8
14 4 14 -4 0 3 11 17 25 31 31 63 24 78 -19 l12 -31 10 33 c7 27 12 31 23 22
8 -6 19 -9 25 -5 5 3 10 0 10 -9 0 -8 -5 -16 -12 -18 -7 -3 -9 -12 -5 -22 6
-15 10 -14 31 9 24 26 27 50 10 103 -2 6 2 12 10 12 7 0 13 6 13 13 0 20 44
108 67 134 11 13 25 23 32 23 7 0 16 9 19 20 3 11 22 32 41 46 19 15 34 31 34
36 0 6 12 19 26 30 20 16 23 23 12 30 -10 7 -9 11 6 23 11 8 28 15 38 15 10 0
30 7 43 16 20 13 22 20 15 39 -6 15 -6 27 0 30 6 4 10 0 10 -7 0 -7 6 -4 12 7
6 11 16 23 22 27 6 4 -4 8 -22 8 -23 0 -32 4 -29 13 2 6 11 11 20 11 9 -1 14
3 11 8 -8 13 15 28 45 28 20 0 22 3 16 27 -5 22 -4 25 8 15 11 -9 18 -8 33 9
11 13 27 19 41 16 19 -3 21 -1 17 22 -5 23 0 30 33 46 21 11 46 27 55 35 10 8
29 24 43 35 13 11 25 28 25 38 0 9 7 17 17 17 9 0 13 3 10 7 -4 3 2 12 13 20
11 8 20 21 20 30 0 10 6 13 16 9 11 -4 14 -1 9 13 -3 12 0 21 10 25 8 3 15 17
15 31 0 19 5 25 23 25 22 0 29 18 51 149 1 8 -2 37 -7 65 -14 82 -15 90 -6
102 5 6 11 42 14 80 10 109 16 173 23 232 3 24 31 12 35 -15 2 -16 2 1 -1 37
-2 36 -8 69 -12 73 -9 10 18 69 29 63 4 -3 8 15 9 40 1 28 8 50 22 64 11 11
20 29 20 39 0 11 9 21 23 25 29 7 66 86 41 86 -8 0 -14 4 -14 9 0 16 22 71 28
71 10 0 9 77 0 86 -12 11 -9 46 5 74 7 15 12 59 11 110 -1 83 11 148 31 162 6
5 3 8 -7 8 -11 0 -15 6 -11 20 3 11 11 20 19 20 20 0 28 44 15 81 -9 25 -7 41
6 80 10 27 24 49 32 49 8 0 11 7 8 20 -3 11 -1 20 4 20 5 0 9 11 9 25 0 18 5
25 20 25 11 0 20 5 20 10 0 6 -11 10 -25 10 -14 0 -25 5 -25 10 0 6 5 10 10
10 6 0 10 9 10 21 0 11 4 18 9 14 5 -3 12 -1 16 5 3 5 1 10 -4 10 -6 0 -11 10
-11 23 0 38 12 67 26 67 17 0 27 38 20 81 -3 18 -1 39 5 45 7 8 5 17 -5 27
-15 15 -15 63 1 127 3 14 7 59 9 100 1 41 2 81 3 88 1 6 14 12 31 12 17 0 30
3 31 8 6 62 4 72 -18 72 -16 0 -23 6 -23 20 0 11 -4 20 -10 20 -5 0 -10 7 -10
15 0 8 14 17 34 21 24 4 36 12 39 27 6 29 0 248 -8 317 -4 30 -8 72 -9 93 0
21 -7 42 -15 46 -10 7 -12 18 -5 47 12 61 12 74 -1 74 -16 0 -26 53 -19 100 7
53 7 71 0 120 -11 70 -14 139 -5 142 5 2 4 21 -1 43 -5 22 -11 58 -14 80 -2
22 -7 47 -10 55 -11 29 -13 94 -5 123 10 35 -4 107 -24 122 -25 19 -29 46 -8
52 17 4 19 11 14 37 -3 17 -10 32 -15 34 -4 2 -8 12 -8 22 0 10 -4 21 -8 24
-5 3 -10 26 -10 51 -1 26 -8 56 -14 68 -7 13 -13 65 -14 122 -1 119 -2 123
-35 152 -15 12 -30 37 -34 55 -5 23 -9 28 -12 15 -7 -29 -25 -14 -39 33 -9 31
-10 49 -3 63 8 14 6 33 -6 69 -13 41 -14 53 -4 59 20 12 -17 48 -41 42 -24 -6
-52 20 -44 42 5 11 0 18 -15 22 -19 5 -26 19 -22 49 1 6 -10 21 -24 34 -28 26
-35 66 -10 56 11 -4 15 1 15 19 0 16 -6 25 -15 25 -19 0 -19 27 0 64 8 15 15
36 15 46 0 10 7 23 15 30 8 6 17 22 21 33 6 21 75 121 109 160 8 9 15 19 15
22 0 2 22 25 49 50 33 31 50 56 54 79 3 18 24 57 46 87 22 29 43 66 46 81 5
19 16 31 41 40 34 12 38 20 36 78 -3 107 -2 119 12 117 5 -1 9 16 7 41 -1 23
2 42 7 42 16 0 22 41 6 47 -8 3 -14 16 -14 28 0 13 -4 25 -9 27 -5 2 -11 33
-14 70 -6 77 -11 88 -36 88 -14 0 -20 10 -25 43 -4 24 -4 50 -2 58 3 8 8 33
10 57 3 23 11 51 19 63 15 20 12 53 -5 75 -4 6 -6 18 -2 27 3 8 1 18 -5 22
-15 9 -14 48 2 64 10 11 9 12 -2 6 -11 -6 -13 -4 -8 9 4 9 3 14 -2 11 -5 -3
-12 -1 -16 5 -3 5 -1 10 4 10 6 0 11 5 11 11 0 5 -3 8 -7 6 -10 -6 -39 29 -61
73 -9 19 -24 35 -32 35 -14 0 -91 36 -137 66 -13 8 -23 24 -23 37 0 19 -3 21
-18 13 -25 -13 -60 -3 -64 17 -2 12 -10 5 -26 -21 -12 -21 -22 -44 -22 -50 0
-16 -29 -94 -30 -82 -2 22 -39 -82 -39 -112 -1 -17 -5 -34 -10 -37 -5 -3 -12
-23 -17 -43 -8 -41 -8 -41 -17 -63 -17 -46 -47 -184 -52 -244 -3 -37 -9 -76
-14 -85 -5 -9 -14 -39 -20 -66 -6 -28 -17 -80 -24 -117 -14 -66 -25 -99 -52
-163 -7 -16 -21 -55 -30 -85 -10 -30 -26 -66 -35 -80 -18 -28 -44 -88 -39 -92
6 -5 -35 -68 -44 -68 -5 0 -6 -7 -3 -16 3 -8 0 -22 -7 -29 -6 -8 -23 -32 -37
-55 -14 -23 -30 -38 -37 -36 -7 3 -25 -6 -41 -19 l-28 -23 -13 28 c-7 16 -21
32 -32 35 -10 4 -19 13 -19 22 0 9 -5 33 -11 53 -11 36 -12 37 -36 25 -29 -15
-50 -10 -56 13 -3 10 -5 -2 -6 -25 -1 -31 -5 -43 -16 -43 -9 0 -15 10 -16 23
-4 78 -36 131 -74 121 -13 -3 -26 -1 -29 5 -4 6 -16 11 -26 11 -11 0 -24 9
-31 21 -8 16 -17 20 -38 16 -17 -4 -36 0 -48 8 -11 8 -23 11 -27 8 -12 -12 -6
28 10 65 45 107 98 289 109 375 4 27 12 50 20 53 13 5 30 50 26 67 -1 5 8 21
19 37 11 15 20 34 20 42 0 7 9 28 20 46 11 18 20 38 20 45 0 6 19 73 41 147
23 74 43 146 44 160 1 14 14 51 29 84 14 32 26 69 26 83 0 13 6 39 14 57 8 19
24 81 37 140 12 58 26 103 30 101 9 -6 16 91 7 113 -5 13 -7 11 -7 -9 -1 -14
-4 -29 -8 -32 -9 -10 -32 25 -33 51 0 12 -4 22 -10 22 -5 0 -10 9 -10 19 0 25
-16 35 -59 37 -18 1 -37 7 -41 14 -6 9 -9 9 -12 -1z m-2275 -1093 c10 -8 15
-16 10 -19 -4 -3 -19 3 -32 14 -26 22 -6 26 22 5z m-898 -5 c3 -5 1 -12 -5
-16 -5 -3 -10 1 -10 9 0 18 6 21 15 7z m-36 -26 c29 -14 69 -12 103 6 15 8 18
6 18 -15 0 -23 -4 -24 -61 -28 -34 -1 -63 1 -66 5 -3 5 -16 7 -29 4 -26 -5
-32 11 -12 31 15 15 13 15 47 -3z m471 -20 c-14 -17 -30 -20 -30 -5 0 6 7 10
15 10 8 0 15 5 15 12 0 6 3 8 6 5 4 -4 1 -13 -6 -22z m261 10 c29 7 30 5 24
-15 -5 -14 -3 -20 3 -16 6 3 12 3 15 -1 2 -5 3 -3 1 3 -1 6 2 17 7 25 7 11 11
11 21 1 8 -8 9 -15 3 -20 -12 -8 -14 -62 -3 -62 4 0 8 8 8 18 0 28 10 33 34
17 30 -21 42 -18 21 5 -16 17 -16 20 -2 20 8 0 17 -5 19 -12 3 -7 22 -13 43
-13 23 0 40 -6 45 -15 4 -8 15 -32 25 -52 10 -21 24 -38 32 -38 8 0 11 -4 8
-10 -3 -5 -1 -10 4 -10 20 0 12 19 -20 50 -25 24 -29 33 -20 44 18 21 49 9 49
-21 0 -13 5 -30 12 -36 10 -9 11 -8 6 8 -7 25 8 50 24 40 8 -5 9 -10 1 -18
-17 -17 -13 -27 8 -27 11 0 26 -8 33 -18 18 -26 39 -37 32 -18 -4 11 0 16 10
16 10 0 30 7 46 15 27 14 30 14 49 -11 13 -16 27 -24 36 -20 17 6 18 4 9 -18
-3 -9 -15 -16 -26 -16 -10 0 -16 5 -13 10 3 6 -3 10 -14 10 -14 0 -19 5 -15
15 9 23 -19 18 -34 -5 -11 -19 -10 -21 18 -26 17 -4 33 -10 36 -15 2 -4 15 -4
29 1 15 6 32 5 49 -3 30 -14 32 -20 10 -42 -9 -9 -14 -19 -10 -22 3 -4 12 -1
18 5 9 9 17 7 35 -10 15 -14 27 -18 31 -13 10 14 65 15 75 2 6 -9 10 -9 14 1
7 18 20 15 26 -8 3 -11 10 -20 16 -20 6 0 8 6 5 14 -3 7 2 16 10 19 10 4 13 1
9 -9 -6 -17 13 -19 20 -1 4 9 8 8 17 -3 9 -11 13 -12 17 -2 6 15 39 16 48 1 4
-6 -1 -16 -10 -23 -16 -12 -16 -13 0 -29 9 -9 23 -17 31 -17 8 0 13 -3 11 -7
-1 -5 2 -8 8 -8 5 0 8 10 7 22 -4 27 14 39 21 13 3 -11 11 -20 19 -20 8 0 9 3
3 8 -6 4 -19 24 -30 45 -11 20 -23 37 -28 37 -15 0 18 26 41 32 15 4 22 2 22
-8 0 -8 -6 -11 -15 -8 -20 8 -20 -26 0 -52 14 -19 14 -19 15 1 l1 20 15 -20
c16 -20 16 -20 9 3 -6 21 8 32 19 13 3 -4 22 -11 42 -14 31 -5 41 -2 68 23 17
17 25 30 19 30 -7 0 -13 5 -13 10 0 6 7 10 15 10 8 0 15 7 15 15 0 8 2 15 4
15 2 0 11 3 20 6 10 4 16 1 16 -9 0 -8 -7 -17 -15 -21 -8 -3 -15 -16 -15 -30
0 -13 -7 -26 -15 -30 -17 -6 -21 -36 -5 -36 6 0 10 5 10 11 0 13 19 32 47 47
35 19 45 15 39 -15 -3 -16 -7 -44 -8 -63 -3 -29 0 -35 17 -35 24 0 47 14 40
26 -3 4 -13 5 -23 2 -16 -6 -16 -6 1 11 18 18 24 56 8 56 -5 0 -11 6 -14 13
-4 10 5 14 31 15 20 1 38 6 40 11 5 14 42 0 53 -20 12 -23 -8 -59 -33 -59 -31
0 -46 -11 -41 -30 3 -11 -3 -23 -15 -31 -12 -7 -17 -19 -15 -30 3 -11 9 -16
14 -13 5 3 9 -2 9 -10 0 -10 9 -16 24 -16 14 0 28 -5 32 -12 4 -7 3 -8 -5 -4
-6 4 -14 0 -17 -8 -3 -9 -17 -16 -30 -16 -13 0 -24 -4 -24 -10 0 -5 7 -7 15
-4 11 4 15 -1 16 -17 l0 -24 9 23 c13 30 28 28 33 -5 4 -26 4 -26 6 5 1 27 5
32 25 32 13 0 27 6 30 13 3 6 3 2 0 -11 -6 -23 29 -92 47 -92 5 0 9 -7 9 -16
0 -11 6 -15 20 -11 14 3 26 -3 40 -20 l20 -26 0 27 c0 29 20 42 48 30 9 -4 21
-6 26 -5 4 1 16 -8 27 -20 18 -21 34 -22 86 -2 16 6 16 5 4 -10 -10 -12 -10
-17 -2 -17 8 0 10 -8 6 -21 -5 -15 -4 -19 4 -15 7 5 11 -4 11 -23 0 -17 5 -31
11 -31 7 0 8 -11 4 -29 -5 -26 4 -44 25 -46 19 -2 71 -39 81 -56 14 -28 4 -36
-13 -10 -19 31 -41 28 -26 -4 8 -18 19 -25 40 -25 28 0 33 -9 31 -58 -1 -7 10
-20 23 -29 13 -8 24 -22 24 -30 0 -8 5 -11 10 -8 6 3 15 3 22 -1 7 -4 28 -9
47 -11 19 -2 40 -8 46 -13 7 -6 14 -7 18 -4 8 8 29 -35 22 -46 -3 -6 1 -7 9
-4 9 3 16 1 16 -5 0 -6 -5 -11 -12 -11 -6 0 -1 -11 12 -25 12 -13 27 -22 31
-19 5 2 18 -1 29 -8 17 -11 22 -11 30 2 6 9 10 10 10 3 0 -6 -7 -19 -16 -27
-15 -15 -11 -21 11 -16 5 1 7 -2 3 -6 -4 -4 -3 -13 4 -21 9 -11 8 -13 -3 -11
-8 2 -15 -6 -17 -19 -3 -17 1 -20 17 -16 22 6 24 -3 25 -94 0 -20 5 -33 13
-33 7 0 13 7 13 16 0 8 4 13 9 9 6 -3 16 1 23 9 21 22 68 -10 68 -46 0 -28 17
-39 25 -15 25 72 24 71 44 53 31 -28 66 -11 40 20 -6 8 -9 17 -5 21 3 4 13 -3
21 -14 10 -14 22 -19 35 -16 15 4 20 0 21 -13 0 -16 2 -15 10 4 6 17 14 22 28
17 16 -5 18 -2 14 16 -4 15 -3 20 6 15 7 -4 15 2 20 16 6 13 10 19 10 15 1 -5
6 -5 11 -2 7 4 6 13 -1 27 -8 15 -8 22 1 28 8 5 10 15 5 26 -8 18 -8 18 -12 2
-4 -16 -16 -23 -26 -15 -2 1 -11 -6 -21 -15 -9 -9 -23 -15 -31 -12 -8 4 -15 1
-15 -5 0 -6 -11 -11 -24 -11 -19 0 -22 4 -18 25 5 28 22 44 22 22 0 -24 46 3
56 32 8 23 10 24 26 8 9 -9 19 -17 21 -17 2 0 24 16 48 34 24 19 45 33 47 32
5 -6 -48 -56 -59 -56 -5 0 -4 -6 3 -14 9 -10 17 -11 25 -4 15 12 47 2 38 -11
-3 -6 -13 -7 -21 -4 -14 5 -15 3 -5 -16 10 -17 9 -22 -4 -27 -21 -9 -21 -74 1
-74 9 0 14 -6 11 -12 -3 -8 4 -13 19 -13 13 0 24 6 24 12 0 9 7 10 25 3 15 -6
26 -6 30 0 9 15 25 12 25 -5 0 -8 -5 -15 -11 -15 -8 0 -8 -4 0 -13 8 -10 6
-19 -10 -35 -11 -12 -24 -22 -29 -22 -6 0 -10 -6 -10 -14 0 -7 -8 -16 -19 -19
-23 -6 -54 -64 -37 -70 6 -2 22 0 36 4 67 23 92 -20 40 -71 -17 -17 -28 -35
-25 -41 4 -6 0 -18 -9 -28 -14 -16 -14 -18 4 -34 11 -9 20 -25 20 -34 0 -15 2
-15 9 -4 5 8 7 20 4 28 -3 7 -1 13 5 13 13 0 23 -27 16 -45 -4 -8 -13 -15 -21
-15 -11 0 -13 -7 -9 -25 4 -14 2 -25 -4 -25 -5 0 -10 8 -11 18 0 11 -2 12 -6
4 -3 -7 3 -22 12 -32 16 -17 15 -19 -9 -35 -14 -10 -23 -22 -20 -27 3 -5 17 1
31 14 19 18 23 19 17 5 -5 -13 -1 -20 15 -24 11 -3 21 -9 21 -14 0 -12 -27
-11 -35 1 -11 17 -24 1 -18 -21 4 -16 8 -17 14 -7 7 10 9 9 9 -4 0 -10 9 -22
19 -28 42 -22 50 -38 45 -95 -3 -39 0 -55 9 -55 7 0 18 -10 26 -21 11 -19 11
-21 -3 -16 -10 4 -13 1 -9 -9 6 -16 19 -18 28 -4 11 18 26 10 20 -10 -7 -21 8
-41 38 -53 9 -3 17 -11 17 -17 0 -16 -30 -12 -36 5 -4 8 -12 15 -19 15 -8 0
-21 7 -29 16 -9 8 -16 11 -16 5 0 -5 5 -13 10 -16 6 -3 10 -17 10 -29 0 -19 4
-22 25 -18 15 2 25 0 25 -7 0 -6 -4 -11 -10 -11 -5 0 -10 -7 -10 -16 0 -10 -5
-14 -16 -10 -8 3 -12 2 -9 -4 3 -6 13 -10 20 -10 20 0 40 -39 26 -53 -14 -14
-1 -69 22 -88 24 -19 17 -52 -9 -42 -12 4 -15 3 -10 -5 4 -7 12 -12 18 -12 15
0 37 -31 38 -53 0 -9 6 -26 13 -37 10 -17 9 -22 -1 -29 -20 -12 -11 -56 11
-55 11 1 19 -7 23 -23 5 -20 11 -23 30 -19 21 6 22 4 14 -24 -8 -27 -6 -34 11
-32 4 1 4 -26 0 -47 -1 -2 -7 2 -14 8 -11 9 -14 4 -12 -23 1 -18 6 -39 10 -45
4 -7 4 -15 1 -18 -3 -3 -15 14 -26 38 -26 57 -21 23 18 -111 17 -58 42 -159
57 -225 14 -66 30 -136 35 -155 34 -132 69 -512 74 -788 3 -166 -15 -506 -34
-657 -35 -282 -163 -765 -260 -985 -18 -41 -47 -106 -64 -145 -119 -268 -359
-683 -378 -653 -11 17 -10 30 1 23 10 -6 51 41 51 59 0 6 -6 4 -13 -4 -7 -9
-19 -14 -28 -12 -11 2 -19 -6 -23 -23 -4 -14 -11 -23 -16 -20 -27 17 43 85 87
85 19 0 11 25 -8 26 -52 4 -52 3 -39 19 9 10 9 15 1 15 -6 0 -11 5 -11 12 0 6
-7 19 -16 29 -14 15 -12 23 27 85 23 38 55 94 72 124 17 30 50 91 74 135 24
44 56 105 70 135 37 80 150 361 172 428 46 142 61 195 86 305 25 103 31 118
47 114 11 -3 18 0 18 10 0 9 -6 13 -15 9 -19 -7 -19 4 0 141 58 426 68 898 25
1206 -6 39 -15 106 -21 147 -28 196 -121 545 -202 755 -8 22 -29 76 -46 120
-61 164 -228 487 -273 530 -13 12 39 -89 65 -128 11 -16 16 -31 13 -34 -3 -4
-6 -1 -6 5 0 6 -15 15 -32 20 -21 5 -34 15 -36 28 -3 18 -2 18 8 2 19 -30 29
-20 13 12 -8 17 -18 28 -22 25 -5 -2 -17 4 -28 14 -27 26 -63 44 -63 32 0 -5
5 -13 10 -16 12 -7 4 -25 -11 -25 -5 0 -9 6 -9 13 0 7 -14 21 -30 30 -27 17
-32 17 -46 3 -8 -9 -12 -20 -9 -26 3 -5 2 -10 -3 -10 -12 0 -22 24 -22 54 0
12 -5 27 -12 34 -8 8 -8 15 2 27 8 10 9 15 1 15 -6 0 -11 5 -11 12 0 6 -10 22
-22 35 -19 20 -20 25 -8 33 11 7 5 10 -22 10 -28 0 -45 8 -69 31 -35 34 -34
40 10 41 33 1 40 15 19 37 -10 10 -10 15 -1 18 13 5 6 33 -9 33 -14 0 -33 21
-52 58 -9 18 -21 32 -27 32 -6 0 -7 4 -4 10 3 5 -5 21 -19 34 -14 13 -26 27
-26 32 0 4 5 3 12 -4 7 -7 16 -12 21 -12 5 0 1 7 -8 16 -9 9 -13 24 -10 34 4
12 -1 22 -11 28 -12 7 -13 11 -4 17 7 4 26 -6 48 -26 94 -87 -141 182 -254
291 -82 78 -271 240 -334 284 -43 31 18 -27 73 -70 59 -45 113 -101 106 -109
-4 -3 -50 16 -79 34 -8 5 -28 15 -45 22 -51 23 -101 78 -57 62 16 -5 16 -5 -1
13 -14 15 -19 16 -26 5 -6 -9 -11 -10 -15 -2 -4 6 -1 11 6 11 7 0 2 9 -12 20
-15 12 -41 20 -66 20 -29 0 -44 5 -48 16 -5 13 -9 14 -22 3 -12 -10 -16 -9
-20 7 -3 11 -32 31 -69 49 -43 21 -61 34 -57 44 4 11 1 13 -12 8 -14 -5 -17
-3 -12 8 3 8 2 15 -2 15 -5 0 -17 8 -28 18 -28 25 -92 72 -98 72 -3 0 -6 -4
-6 -10 0 -5 7 -10 17 -10 9 0 13 -3 10 -7 -9 -8 -57 17 -57 29 0 5 5 6 10 3 6
-3 10 -2 10 3 0 16 -12 21 -29 13 -10 -5 -29 -3 -50 6 -42 18 -34 29 10 14 18
-6 34 -9 37 -7 5 6 -64 36 -95 42 -23 4 -32 -10 -13 -19 6 -3 5 -4 -2 -3 -7 1
-17 12 -22 23 -10 21 -64 53 -91 53 -10 0 -15 10 -15 31 0 20 -4 29 -12 26 -7
-2 -25 7 -40 21 -16 14 -28 21 -28 14 0 -6 7 -15 16 -20 9 -5 15 -15 13 -21
-3 -8 -12 -5 -26 9 -12 11 -26 20 -31 20 -5 0 -14 10 -19 23 -7 14 -26 28 -51
35 -22 7 -51 21 -64 31 l-23 19 40 -7 c22 -4 69 -22 104 -40 35 -17 69 -30 75
-28 11 4 -46 33 -163 82 -125 52 -448 153 -586 183 -335 72 -592 98 -970 96
-194 -1 -261 -5 -510 -34 -176 -21 -455 -81 -625 -135 -555 -176 -1003 -417
-1429 -770 -144 -118 -355 -320 -448 -428 -353 -409 -565 -767 -762 -1287 -44
-118 -111 -362 -141 -515 -71 -366 -84 -506 -84 -877 -1 -164 -4 -288 -8 -277
-4 11 -8 88 -9 172 0 95 -5 157 -12 165 -7 9 -7 16 0 20 6 4 13 73 17 162 8
160 8 169 27 310 7 60 7 86 0 88 -16 5 -13 22 4 22 8 0 15 7 15 15 0 8 -4 15
-10 15 -5 0 -10 -5 -10 -11 0 -5 -4 -8 -9 -5 -5 4 -12 0 -14 -6 -3 -8 -6 -8
-6 -2 -1 6 10 23 24 38 14 15 23 31 20 36 -3 5 0 12 6 15 5 4 8 14 5 22 -3 8
2 25 11 39 13 21 14 27 4 34 -10 6 -9 10 5 19 12 6 14 11 5 11 -11 0 -11 3 -1
15 7 8 18 44 25 80 10 54 10 65 -2 65 -8 0 -5 8 9 22 21 21 21 22 2 29 -18 7
-17 10 8 13 6 0 13 6 15 13 3 7 -4 9 -18 6 -12 -4 -20 -2 -17 3 3 5 8 18 13
29 l7 20 8 -20 c6 -16 9 -17 13 -5 3 8 8 24 13 35 4 11 6 28 5 38 -1 9 2 17 7
17 4 0 16 26 26 58 10 31 27 77 38 101 11 24 21 53 23 65 1 11 10 38 19 59 13
30 14 42 5 53 -9 11 -8 14 6 14 13 0 16 6 11 25 -5 20 -3 25 13 25 24 0 48 59
29 72 -13 7 -11 9 14 12 6 0 13 7 16 15 3 10 -2 11 -19 6 -21 -7 -22 -6 -10 8
7 9 16 16 19 15 24 -3 33 4 27 21 -4 14 0 23 16 31 15 9 18 15 10 23 -7 7 -7
14 0 23 8 10 7 18 -5 29 -20 20 -21 32 -1 15 11 -9 18 -9 32 2 19 13 31 64 13
53 -6 -3 -10 -2 -10 3 0 5 14 12 32 16 24 5 29 9 20 18 -18 18 -14 27 8 21 31
-8 24 10 -12 30 -23 13 -28 21 -19 26 7 5 21 6 31 4 12 -3 24 7 38 31 12 20
26 36 31 36 6 0 8 6 5 14 -3 9 7 24 25 37 24 18 29 28 25 48 -5 25 -5 25 10 7
12 -14 16 -16 16 -5 -1 8 -10 25 -20 38 -18 20 -22 22 -37 10 -15 -12 -16 -12
-11 9 7 25 -7 30 -16 6 -11 -28 -7 -46 9 -40 8 3 19 -3 25 -14 15 -28 13 -30
-27 -30 -28 0 -34 -3 -23 -10 8 -5 11 -10 5 -10 -5 0 -18 -14 -28 -32 -13 -23
-21 -28 -29 -20 -14 14 -38 -2 -38 -24 0 -8 -3 -14 -8 -14 -4 0 -13 -9 -20
-20 -10 -17 -9 -25 4 -45 15 -23 15 -25 0 -19 -19 7 -20 0 -6 -26 9 -16 8 -18
-6 -13 -11 4 -15 15 -12 34 7 47 -11 22 -61 -86 -42 -88 -71 -133 -71 -109 0
23 169 319 288 504 38 59 205 276 313 405 114 136 416 423 570 540 35 27 66
52 69 55 6 7 68 51 92 65 9 6 54 35 100 66 335 226 640 372 1118 532 217 73
362 107 585 136 288 39 381 45 695 45 399 0 584 -18 900 -91 192 -44 389 -103
540 -161 119 -45 159 -59 150 -50 -7 7 -190 84 -220 92 -130 37 -279 91 -268
98 9 6 5 7 -9 3 -23 -6 -130 11 -152 24 -6 4 -12 24 -13 44 -1 28 -6 37 -19
37 -20 0 -30 -20 -22 -49 6 -23 3 -24 -21 -15 -11 4 -14 13 -10 30 5 20 3 23
-10 18 -10 -4 -15 -13 -12 -20 4 -10 -3 -14 -25 -14 -24 0 -30 4 -25 15 3 8 1
15 -4 15 -6 0 -10 -4 -10 -9 0 -15 -51 -3 -66 16 -25 33 -12 43 28 22 11 -6
22 -8 25 -6 2 3 -8 11 -23 19 -22 10 -29 21 -31 47 -3 28 -1 32 12 21 9 -7 26
-9 46 -5z m-959 -4 c8 11 8 10 4 -5 -7 -19 -6 -19 12 -3 10 9 22 14 26 10 7
-8 11 -9 37 -12 25 -3 -6 -21 -37 -21 -19 0 -34 -5 -34 -11 0 -5 3 -8 8 -6 4
3 16 1 27 -4 14 -5 3 -8 -36 -8 -58 -1 -58 -1 -86 61 -2 3 13 1 33 -5 29 -9
37 -8 46 4z m1193 -11 c3 -5 -1 -10 -9 -10 -9 0 -16 5 -16 10 0 6 4 10 9 10 6
0 13 -4 16 -10z m-1707 -19 c3 -10 0 -10 -17 -2 -25 14 -27 20 -4 17 9 -2 19
-8 21 -15z m1386 -23 c14 -32 12 -58 -5 -58 -4 0 -6 7 -3 15 4 10 0 15 -15 15
-12 0 -21 5 -21 10 0 6 6 10 14 10 9 0 12 7 9 20 -8 32 7 23 21 -12z m576 22
c0 -5 -2 -10 -4 -10 -3 0 -8 5 -11 10 -3 6 -1 10 4 10 6 0 11 -4 11 -10z
m-1140 -10 c0 -6 -30 -9 -72 -8 l-73 1 60 7 c33 4 66 7 73 8 6 1 12 -2 12 -8z
m-845 -10 c3 -5 2 -10 -4 -10 -5 0 -13 5 -16 10 -3 6 -2 10 4 10 5 0 13 -4 16
-10z m85 0 c0 -5 -4 -10 -10 -10 -5 0 -10 5 -10 10 0 6 5 10 10 10 6 0 10 -4
10 -10z m166 -10 c14 0 22 -4 19 -10 -3 -5 -17 -10 -31 -10 -18 0 -24 5 -23
23 0 12 3 16 6 10 2 -7 16 -13 29 -13z m634 16 c0 -3 -4 -8 -10 -11 -5 -3 -10
-1 -10 4 0 6 5 11 10 11 6 0 10 -2 10 -4z m360 -16 c0 -16 -7 -20 -30 -20 -37
0 -39 13 -2 27 15 6 28 11 30 12 1 1 2 -8 2 -19z m38 4 c-2 -10 3 -19 10 -21
6 -3 12 2 12 11 0 8 4 17 9 20 18 11 39 -6 37 -30 -1 -22 -4 -23 -36 -18 -19
4 -38 9 -42 11 -12 6 -9 43 2 43 6 0 10 -7 8 -16z m746 -4 c14 -5 26 -14 26
-20 0 -14 -17 -12 -32 4 -9 10 -17 11 -30 3 -9 -6 -21 -8 -25 -4 -4 5 -1 12 7
17 19 12 23 12 54 0z m-1864 -9 c0 -6 -4 -13 -10 -16 -5 -3 -10 1 -10 9 0 9 5
16 10 16 6 0 10 -4 10 -9z m1007 3 c-3 -3 -12 -4 -19 -1 -8 3 -5 6 6 6 11 1
17 -2 13 -5z m768 -12 c-3 -3 -11 0 -18 7 -9 10 -8 11 6 5 10 -3 15 -9 12 -12z
m-2135 -2 c0 -5 -5 -10 -11 -10 -5 0 -7 5 -4 10 3 6 8 10 11 10 2 0 4 -4 4
-10z m2340 0 c0 -5 -7 -10 -15 -10 -8 0 -15 5 -15 10 0 6 7 10 15 10 8 0 15
-4 15 -10z m40 -26 c0 -14 -5 -24 -11 -22 -6 2 -10 7 -10 11 1 4 1 14 1 22 0
8 5 15 10 15 6 0 10 -12 10 -26z m-2210 2 c0 -2 -9 -6 -20 -9 -11 -3 -20 -1
-20 4 0 5 9 9 20 9 11 0 20 -2 20 -4z m2155 -6 c3 -5 1 -10 -4 -10 -6 0 -11 5
-11 10 0 6 2 10 4 10 3 0 8 -4 11 -10z m-2449 -25 c-3 -8 0 -15 7 -15 16 -1
-34 -29 -51 -30 -13 0 -42 23 -42 34 0 3 7 6 15 6 8 0 15 5 15 10 0 6 14 10
31 10 24 0 30 -4 25 -15z m3101 -27 c-3 -7 -5 -2 -5 12 0 14 2 19 5 13 2 -7 2
-19 0 -25z m-637 12 c0 -5 -4 -10 -9 -10 -6 0 -13 5 -16 10 -3 6 1 10 9 10 9
0 16 -4 16 -10z m55 0 c-3 -5 -10 -10 -16 -10 -5 0 -9 5 -9 10 0 6 7 10 16 10
8 0 12 -4 9 -10z m147 -32 c-15 -15 -26 -4 -18 18 5 13 9 15 18 6 9 -9 9 -15
0 -24z m-107 12 c-3 -5 -13 -10 -21 -10 -8 0 -12 5 -9 10 3 6 13 10 21 10 8 0
12 -4 9 -10z m605 0 c0 -5 -4 -10 -10 -10 -5 0 -10 5 -10 10 0 6 5 10 10 10 6
0 10 -4 10 -10z m-551 -21 c-10 -19 -9 -20 11 -14 23 7 54 -11 44 -27 -3 -5
-14 -6 -25 -3 -11 4 -19 2 -19 -4 0 -6 12 -11 27 -11 35 0 27 -6 -20 -13 -30
-5 -42 -2 -54 13 -9 10 -20 17 -25 14 -4 -3 -8 -1 -8 4 0 12 30 37 31 26 0 -5
4 1 9 14 5 12 16 22 25 22 13 0 14 -4 4 -21z m231 -13 c0 -11 -19 -15 -25 -6
-3 5 1 10 9 10 9 0 16 -2 16 -4z m-350 -22 c0 -8 -4 -12 -10 -9 -5 3 -10 10
-10 16 0 5 5 9 10 9 6 0 10 -7 10 -16z m310 2 c0 -8 -4 -18 -10 -21 -5 -3 -10
3 -10 14 0 12 5 21 10 21 6 0 10 -6 10 -14z m310 -26 c0 -5 -8 -10 -17 -10
-15 0 -16 2 -3 10 19 12 20 12 20 0z m-590 -4 c0 -2 -7 -7 -16 -10 -8 -3 -12
-2 -9 4 6 10 25 14 25 6z m640 -67 c0 -11 -4 -18 -10 -14 -5 3 -7 12 -3 20 7
21 13 19 13 -6z m-350 -4 c0 -2 -10 -10 -22 -16 -21 -11 -22 -11 -9 4 13 16
31 23 31 12z m-835 -25 c8 -13 -5 -13 -25 0 -13 8 -13 10 2 10 9 0 20 -4 23
-10z m-485 -64 c700 -105 1268 -386 1751 -866 330 -328 559 -689 693 -1091 24
-74 54 -156 65 -182 12 -27 21 -59 21 -72 0 -24 -1 -24 -127 -27 -71 -2 -133
1 -140 5 -6 5 -15 23 -18 40 -16 80 -100 298 -167 432 -206 411 -470 729 -832
1002 -415 313 -901 503 -1434 559 -159 17 -559 14 -657 -5 -27 -6 -99 -19
-160 -30 -337 -62 -535 -126 -826 -271 -261 -130 -479 -288 -694 -504 -152
-152 -285 -311 -377 -447 -116 -174 -293 -580 -323 -742 -9 -46 -17 -49 -160
-45 -109 3 -110 3 -113 28 -4 36 61 264 108 381 213 529 564 971 1036 1307
351 248 812 435 1272 513 240 40 344 48 632 44 235 -2 300 -6 450 -29z m650
24 c13 -8 13 -10 -2 -10 -9 0 -20 5 -23 10 -8 13 5 13 25 0z m1400 -26 c0 -2
-7 -4 -15 -4 -8 0 -15 4 -15 10 0 5 7 7 15 4 8 -4 15 -8 15 -10z m-1272 -22
c2 -6 -3 -12 -12 -12 -9 0 -16 5 -16 11 0 6 -6 9 -14 6 -8 -3 -17 0 -19 7 -4
10 3 12 26 7 17 -4 32 -12 35 -19z m142 -42 c0 -5 -5 -10 -11 -10 -5 0 -7 5
-4 10 3 6 8 10 11 10 2 0 4 -4 4 -10z m1065 -20 c-3 -5 -10 -10 -16 -10 -5 0
-9 5 -9 10 0 6 7 10 16 10 8 0 12 -4 9 -10z m255 -9 c0 -19 -18 -21 -46 -6
l-29 15 38 0 c20 0 37 -4 37 -9z m-230 -10 c0 -6 -4 -13 -10 -16 -5 -3 -10
-17 -10 -29 0 -21 -21 -35 -51 -36 -13 0 -17 40 -5 55 10 15 12 14 11 -7 0
-33 18 -38 19 -5 1 16 8 32 16 37 19 12 30 12 30 1z m-120 -51 c0 -5 -5 -10
-11 -10 -5 0 -7 5 -4 10 3 6 8 10 11 10 2 0 4 -4 4 -10z m30 -20 c0 -5 -4 -10
-10 -10 -5 0 -10 5 -10 10 0 6 5 10 10 10 6 0 10 -4 10 -10z m-785 -60 c3 -5
-1 -10 -9 -10 -9 0 -16 5 -16 10 0 6 4 10 9 10 6 0 13 -4 16 -10z m-2005 -25
c0 -14 -4 -25 -10 -25 -5 0 -10 -9 -10 -20 0 -11 -4 -20 -10 -20 -5 0 -10 4
-10 8 0 5 -16 14 -35 22 -45 18 -44 36 3 48 62 17 72 15 72 -13z m3080 -58 c0
-5 -4 -5 -10 -2 -5 3 -10 14 -10 23 0 15 2 15 10 2 5 -8 10 -19 10 -23z m217
-33 c-9 -9 -28 6 -21 18 4 6 10 6 17 -1 6 -6 8 -13 4 -17z m-1072 -24 c3 -6
-1 -7 -9 -4 -18 7 -21 14 -7 14 6 0 13 -4 16 -10z m-1185 -115 c0 -8 -7 -15
-15 -15 -16 0 -20 12 -8 23 11 12 23 8 23 -8z m2230 -115 c0 -5 -4 -10 -10
-10 -5 0 -10 5 -10 10 0 6 5 10 10 10 6 0 10 -4 10 -10z m867 -22 c-3 -8 -6
-5 -6 6 -1 11 2 17 5 13 3 -3 4 -12 1 -19z m-1397 -38 c0 -5 -5 -10 -11 -10
-5 0 -7 5 -4 10 3 6 8 10 11 10 2 0 4 -4 4 -10z m880 -99 c0 -29 -59 -40 -68
-12 -3 10 1 12 17 8 11 -3 24 -1 27 4 7 12 24 12 24 0z m-710 -22 c0 -14 -16
-11 -29 5 -10 12 -8 13 8 9 12 -3 21 -9 21 -14z m-55 -29 c3 -5 2 -10 -4 -10
-5 0 -13 5 -16 10 -3 6 -2 10 4 10 5 0 13 -4 16 -10z m-2053 -21 c34 -18 38
-76 38 -564 0 -462 -1 -481 -20 -513 -11 -18 -31 -37 -44 -43 -36 -17 -94 -2
-128 31 l-28 28 0 510 c0 496 1 510 20 535 11 14 30 28 43 30 28 5 97 -3 119
-14z m3269 -22 c-8 -8 -11 -5 -11 9 0 27 14 41 18 19 2 -9 -1 -22 -7 -28z
m-987 7 c5 -14 4 -15 -9 -4 -17 14 -19 20 -6 20 5 0 12 -7 15 -16z m766 -54
c13 -8 9 -15 -5 -7 -2 1 -11 -7 -19 -18 -16 -20 -21 -10 -10 19 7 18 13 19 34
6z m-682 -35 c-3 -3 -9 2 -12 12 -6 14 -5 15 5 6 7 -7 10 -15 7 -18z m68 -63
c-9 -8 -33 17 -39 41 -5 20 -3 19 19 -7 14 -15 23 -31 20 -34z m-3784 -12 c21
-6 42 -19 48 -30 6 -12 10 -182 10 -462 0 -500 3 -482 -73 -493 -51 -8 -110
13 -126 43 -7 13 -10 162 -8 451 2 418 3 431 23 458 12 15 34 31 50 34 16 4
31 7 34 8 3 0 22 -4 42 -9z m486 -216 c22 -25 22 -29 22 -293 0 -210 -3 -271
-14 -286 -10 -13 -30 -20 -74 -23 -55 -4 -63 -2 -86 21 l-26 26 0 265 c0 145
3 272 6 281 19 48 131 54 172 9z m4572 -4 c0 -5 -4 -10 -10 -10 -5 0 -10 5
-10 10 0 6 5 10 10 10 6 0 10 -4 10 -10z m-3246 -41 l26 -20 0 -254 c0 -249 0
-255 -22 -275 -33 -31 -121 -28 -153 5 l-25 24 0 241 0 242 29 29 c37 37 104
41 145 8z m-2215 -143 c22 -23 22 -28 23 -307 1 -156 -2 -295 -6 -307 -12 -37
-66 -55 -121 -41 -76 19 -75 16 -75 342 l0 288 25 24 c35 36 121 36 154 1z
m4389 -4 c6 -18 -15 -14 -22 4 -4 10 -1 14 6 12 6 -2 14 -10 16 -16z m812 -63
c0 -6 -4 -7 -10 -4 -5 3 -10 11 -10 16 0 6 5 7 10 4 6 -3 10 -11 10 -16z
m-2532 -25 c23 -26 23 -29 20 -245 -3 -207 -4 -220 -24 -239 -44 -45 -150 -35
-173 16 -15 34 -15 417 0 447 32 60 132 72 177 21z m1802 21 c7 -9 8 -15 2
-15 -5 0 -12 7 -16 15 -3 8 -4 15 -2 15 2 0 9 -7 16 -15z m-30 -20 c0 -12 -29
-3 -34 10 -4 13 -2 14 14 5 11 -6 20 -13 20 -15z m706 -1 c-3 -9 -6 -18 -6
-20 0 -2 -4 -4 -9 -4 -5 0 -7 9 -4 20 3 11 10 20 15 20 6 0 7 -7 4 -16z m84 2
c0 -3 -4 -8 -10 -11 -5 -3 -10 -1 -10 4 0 6 5 11 10 11 6 0 10 -2 10 -4z m-65
-66 c3 -5 -2 -10 -12 -10 -17 -1 -17 -2 1 -15 11 -8 17 -17 14 -20 -10 -10
-37 25 -32 40 7 17 20 19 29 5z m-3854 -19 l24 -19 0 -290 0 -290 -24 -26
c-20 -22 -33 -26 -78 -26 -44 0 -58 5 -78 25 l-25 24 0 276 c0 342 0 343 106
344 37 1 59 -5 75 -18z m3916 -51 c3 -24 3 -24 -11 -5 -18 24 -20 38 -4 33 6
-2 13 -15 15 -28z m-37 -9 c0 -11 -26 -22 -34 -14 -12 12 -5 23 14 23 11 0 20
-4 20 -9z m300 -21 c0 -5 -2 -10 -4 -10 -3 0 -8 5 -11 10 -3 6 -1 10 4 10 6 0
11 -4 11 -10z m-927 -51 c-4 -15 -9 -17 -17 -9 -8 8 -7 13 4 20 8 5 16 10 17
10 0 0 -1 -9 -4 -21z m650 -11 c4 -12 4 -24 1 -27 -6 -7 -24 20 -24 37 0 21
17 13 23 -10z m-518 -78 c3 -5 1 -10 -4 -10 -6 0 -11 5 -11 10 0 6 2 10 4 10
3 0 8 -4 11 -10z m-7020 -50 c3 -5 1 -10 -4 -10 -6 0 -11 5 -11 10 0 6 2 10 4
10 3 0 8 -4 11 -10z m7855 -20 c0 -5 -4 -10 -10 -10 -5 0 -10 5 -10 10 0 6 5
10 10 10 6 0 10 -4 10 -10z m60 -50 c0 -5 -5 -10 -11 -10 -5 0 -7 5 -4 10 3 6
8 10 11 10 2 0 4 -4 4 -10z m-690 -40 c0 -5 -2 -10 -4 -10 -3 0 -8 5 -11 10
-3 6 -1 10 4 10 6 0 11 -4 11 -10z m-7240 -34 c0 -3 -4 -8 -10 -11 -5 -3 -10
-1 -10 4 0 6 5 11 10 11 6 0 10 -2 10 -4z m7840 0 c0 -11 -19 -15 -25 -6 -3 5
1 10 9 10 9 0 16 -2 16 -4z m-77 -31 c1 -5 -6 -11 -15 -13 -11 -2 -18 3 -18
13 0 17 30 18 33 0z m-7892 -44 c-12 -22 -21 -50 -21 -62 0 -12 -7 -30 -15
-39 -8 -9 -26 -45 -40 -79 l-24 -62 22 7 c21 6 21 5 -3 -17 -13 -13 -28 -23
-33 -21 -5 1 -6 -2 -2 -7 3 -6 -3 -29 -14 -53 -32 -69 -63 -170 -58 -189 3
-10 -2 -20 -10 -23 -18 -7 -13 -48 6 -54 10 -3 12 0 8 11 -4 10 2 17 20 22 17
4 23 11 19 21 -5 12 -2 13 17 3 l22 -12 -22 -10 c-12 -5 -28 -23 -36 -39 -9
-18 -17 -26 -21 -19 -4 6 -12 11 -17 11 -6 0 -7 -5 -4 -11 4 -6 -3 -22 -16
-35 -20 -21 -21 -26 -9 -34 13 -8 12 -10 -2 -10 -22 0 -23 -8 -2 -31 15 -16
14 -17 -3 -13 -17 5 -22 -4 -37 -68 -9 -40 -19 -93 -22 -118 -6 -59 -29 -202
-43 -267 -5 -29 -15 -123 -21 -210 -5 -87 -12 -177 -14 -200 -3 -33 0 -43 11
-43 12 0 11 -3 -3 -17 -15 -16 -16 -33 -10 -168 4 -82 8 -157 8 -165 -1 -15
24 -267 34 -345 3 -30 2 -35 -5 -19 -5 11 -17 92 -27 180 -29 247 -22 817 12
988 2 11 16 95 30 186 37 238 131 587 207 775 32 76 104 242 118 267 21 38 20
9 0 -31z m7829 27 c0 -4 -9 -8 -20 -8 -11 0 -20 4 -20 9 0 6 9 9 20 8 11 -1
20 -5 20 -9z m-483 -20 c-3 -8 -6 -5 -6 6 -1 11 2 17 5 13 3 -3 4 -12 1 -19z
m73 6 c0 -9 -5 -14 -12 -12 -18 6 -21 28 -4 28 9 0 16 -7 16 -16z m-55 -34 c3
-5 1 -10 -4 -10 -6 0 -11 5 -11 10 0 6 2 10 4 10 3 0 8 -4 11 -10z m409 -6 c4
-10 1 -14 -6 -12 -15 5 -23 28 -10 28 5 0 13 -7 16 -16z m70 1 c-4 -8 -8 -15
-10 -15 -2 0 -4 7 -4 15 0 8 4 15 10 15 5 0 7 -7 4 -15z m-7801 -15 c-3 -11 0
-27 7 -35 11 -13 10 -14 -4 -9 -9 3 -16 14 -16 25 0 10 -8 23 -17 28 -16 9
-14 10 9 11 21 0 25 -4 21 -20z m7294 -32 c-3 -8 -6 -5 -6 6 -1 11 2 17 5 13
3 -3 4 -12 1 -19z m157 -24 c3 -8 2 -12 -4 -9 -6 3 -10 10 -10 16 0 14 7 11
14 -7z m481 6 c3 -5 1 -10 -4 -10 -6 0 -11 5 -11 10 0 6 2 10 4 10 3 0 8 -4
11 -10z m-7940 -10 c7 -12 -2 -12 -30 0 -19 8 -19 9 2 9 12 1 25 -3 28 -9z
m7299 -16 c3 -8 2 -12 -4 -9 -6 3 -10 10 -10 16 0 14 7 11 14 -7z m-7354 -16
c0 -19 -2 -20 -10 -8 -13 19 -13 30 0 30 6 0 10 -10 10 -22z m7860 13 c0 -6
-4 -13 -10 -16 -5 -3 -10 1 -10 9 0 9 5 16 10 16 6 0 10 -4 10 -9z m-490 -82
c0 -11 -4 -18 -10 -14 -5 3 -7 12 -3 20 7 21 13 19 13 -6z m641 -48 c-13 -23
-36 -28 -47 -10 -9 14 38 51 49 40 5 -5 4 -18 -2 -30z m-7991 19 c0 -5 -2 -10
-4 -10 -3 0 -8 5 -11 10 -3 6 -1 10 4 10 6 0 11 -4 11 -10z m-42 -24 c-7 -8
-15 -12 -17 -11 -5 6 10 25 20 25 5 0 4 -6 -3 -14z m7932 -40 c0 -3 -4 -8 -10
-11 -5 -3 -10 -1 -10 4 0 6 5 11 10 11 6 0 10 -2 10 -4z m132 -32 c-3 -17 -8
-22 -15 -15 -7 7 -6 15 3 26 17 20 18 19 12 -11z m-67 -4 c-3 -5 -11 -10 -16
-10 -6 0 -7 5 -4 10 3 6 11 10 16 10 6 0 7 -4 4 -10z m-6831 -26 c74 -17 207
-73 238 -101 10 -9 18 -23 18 -32 0 -16 -66 -119 -113 -176 l-25 -29 -50 27
c-92 50 -157 67 -258 67 -99 0 -136 -9 -171 -42 -25 -23 -30 -66 -12 -100 16
-30 61 -44 194 -63 320 -44 411 -86 475 -220 25 -53 30 -75 30 -138 0 -192
-91 -300 -310 -368 -103 -33 -315 -32 -434 0 -96 25 -211 81 -262 125 l-38 33
34 54 c41 64 103 148 111 149 3 0 31 -16 63 -35 86 -51 174 -76 297 -82 120
-6 168 4 199 44 41 52 15 117 -60 147 -22 9 -95 23 -162 31 -219 28 -329 75
-404 174 -71 92 -83 232 -29 345 52 109 184 185 370 210 55 8 226 -4 299 -20z
m1326 -8 c201 -57 360 -220 415 -426 19 -72 19 -230 0 -305 -50 -196 -190
-347 -392 -421 -74 -27 -87 -29 -238 -29 -180 0 -223 9 -360 75 -145 70 -241
179 -292 333 -24 73 -27 97 -27 217 0 119 3 143 25 200 77 203 236 327 476
370 72 13 328 4 393 -14z m880 -238 c1 -301 8 -481 21 -531 16 -60 72 -114
137 -133 113 -33 212 6 278 111 18 27 19 59 24 410 l5 380 155 0 155 0 3 -407
c2 -391 1 -409 -19 -462 -44 -119 -138 -220 -249 -268 -71 -31 -173 -48 -283
-48 -118 0 -183 15 -283 65 -108 53 -167 111 -217 214 l-42 86 -3 413 -4 412
161 0 161 0 0 -242z m1345 210 c42 -54 364 -489 407 -550 23 -32 45 -58 49
-58 5 0 10 143 11 318 l3 317 144 3 c97 2 148 -1 157 -9 12 -10 14 -108 14
-585 l0 -574 -148 0 -148 0 -26 28 c-30 32 -199 254 -351 460 -59 81 -112 149
-117 150 -6 2 -10 -117 -10 -317 l0 -321 -170 0 -170 0 0 578 c0 318 3 582 7
585 3 4 77 7 164 7 l158 0 26 -32z m1737 -1 c253 -81 408 -286 408 -543 0
-119 -13 -181 -58 -274 -73 -150 -210 -253 -397 -300 -73 -18 -108 -20 -385
-18 l-305 3 -3 570 c-1 314 0 576 3 583 4 11 65 13 328 10 319 -4 323 -4 409
-31z m-6515 17 c-3 -3 -12 -4 -19 -1 -8 3 -5 6 6 6 11 1 17 -2 13 -5z m6 -97
c12 -2 4 -4 -19 -4 -39 0 -40 1 -25 19 13 15 17 16 19 4 2 -8 13 -17 25 -19z
m8152 3 c3 -5 1 -10 -4 -10 -6 0 -11 5 -11 10 0 6 2 10 4 10 3 0 8 -4 11 -10z
m-8215 -214 c0 -3 -4 -8 -10 -11 -5 -3 -10 -1 -10 4 0 6 5 11 10 11 6 0 10 -2
10 -4z m8360 -16 c0 -5 -2 -10 -4 -10 -3 0 -8 5 -11 10 -3 6 -1 10 4 10 6 0
11 -4 11 -10z m-8371 -71 c-19 -12 -24 -2 -8 17 9 11 14 13 17 4 3 -7 -2 -16
-9 -21z m-92 -81 c-3 -8 -6 -5 -6 6 -1 11 2 17 5 13 3 -3 4 -12 1 -19z m51
-76 c6 -18 -15 -14 -22 4 -4 10 -1 14 6 12 6 -2 14 -10 16 -16z m-50 -17 c-3
-3 -9 2 -12 12 -6 14 -5 15 5 6 7 -7 10 -15 7 -18z m8352 -81 c0 -8 -4 -12
-10 -9 -5 3 -10 13 -10 21 0 8 5 12 10 9 6 -3 10 -13 10 -21z m-8335 -4 c3 -5
1 -10 -4 -10 -6 0 -11 5 -11 10 0 6 2 10 4 10 3 0 8 -4 11 -10z m8232 -62 c-3
-7 -5 -2 -5 12 0 14 2 19 5 13 2 -7 2 -19 0 -25z m-8281 -25 c-11 -11 -19 6
-11 24 8 17 8 17 12 0 3 -10 2 -21 -1 -24z m55 -36 c-10 -9 -11 -8 -5 6 3 10
9 15 12 12 3 -3 0 -11 -7 -18z m8319 -141 c0 -3 -4 -8 -10 -11 -5 -3 -10 -1
-10 4 0 6 5 11 10 11 6 0 10 -2 10 -4z m110 -36 c0 -5 -4 -10 -9 -10 -6 0 -13
5 -16 10 -3 6 1 10 9 10 9 0 16 -4 16 -10z m-84 -47 c-11 -11 -17 4 -9 23 7
18 8 18 11 1 2 -10 1 -21 -2 -24z m-8373 20 c-7 -2 -13 -12 -13 -20 0 -9 -3
-14 -6 -10 -10 10 4 37 18 36 10 0 10 -2 1 -6z m7387 -3 c0 -5 -2 -10 -4 -10
-3 0 -8 5 -11 10 -3 6 -1 10 4 10 6 0 11 -4 11 -10z m428 -128 c2 -7 -2 -10
-12 -6 -9 3 -16 11 -16 16 0 13 23 5 28 -10z m622 8 c0 -5 -5 -10 -11 -10 -5
0 -7 5 -4 10 3 6 8 10 11 10 2 0 4 -4 4 -10z m12 -152 c-7 -7 -12 -8 -12 -2 0
14 12 26 19 19 2 -3 -1 -11 -7 -17z m-1684 -193 c10 -74 -191 -515 -319 -697
-189 -270 -420 -519 -627 -676 -67 -51 -88 -62 -119 -62 -22 0 -44 5 -51 12
-7 7 -12 8 -12 2 0 -6 -23 -9 -57 -7 -44 2 -61 8 -72 23 -17 26 -35 26 -21 1
16 -30 13 -34 -25 -28 -20 3 -45 16 -56 29 l-20 23 11 -23 c15 -31 5 -40 -20
-17 -11 10 -20 13 -20 7 0 -8 -20 -12 -55 -12 -30 0 -55 5 -55 10 0 6 6 10 14
10 41 0 351 206 491 325 103 88 270 258 348 355 152 189 309 451 379 632 46
122 31 113 188 113 88 0 95 -2 98 -20z m-5422 -37 c69 -207 244 -516 407 -717
83 -103 293 -311 397 -395 47 -37 142 -106 212 -153 126 -84 172 -121 132
-106 -10 3 -29 13 -42 21 -16 11 -26 11 -35 3 -16 -12 -90 -8 -109 6 -7 5 -31
11 -52 12 -38 3 -39 2 -33 -28 6 -28 4 -31 -28 -40 -19 -5 -46 -6 -59 -3 -52
14 -197 134 -367 302 -243 241 -381 420 -508 660 -102 191 -210 458 -195 481
3 5 63 9 134 9 l128 0 18 -52z m806 -90 l3 -143 150 0 150 0 5 140 5 140 95 0
95 0 0 -375 0 -375 -95 0 -95 0 -5 140 -5 140 -143 3 -142 3 -10 -26 c-6 -15
-10 -80 -10 -146 l0 -120 -102 3 -103 3 -3 365 c-1 201 0 371 3 377 3 9 33 13
104 13 l100 0 3 -142z m1227 -170 c64 -163 126 -323 138 -355 12 -32 25 -66
29 -75 6 -16 -3 -18 -94 -18 l-101 0 -21 58 c-11 31 -23 63 -25 70 -3 9 -46
12 -168 12 l-163 0 -23 -70 -22 -70 -100 0 c-117 0 -112 -14 -49 135 21 50 49
120 63 156 14 36 48 122 77 190 60 144 86 207 100 244 l10 26 116 -3 116 -3
117 -297z m352 137 c32 -88 72 -204 90 -257 18 -54 36 -98 39 -98 4 0 34 78
67 173 34 94 75 210 92 257 l30 85 97 3 96 3 -7 -28 c-3 -15 -37 -102 -74
-193 -37 -91 -99 -244 -136 -340 -37 -96 -71 -179 -76 -184 -10 -12 -188 -11
-198 0 -4 5 -29 65 -56 134 -26 69 -90 232 -141 362 -52 131 -94 240 -94 243
0 3 48 4 107 3 l107 -3 57 -160z m1189 85 l0 -80 -194 0 -194 0 -4 -56 c-2
-35 1 -59 9 -66 8 -6 73 -9 169 -7 129 3 157 1 163 -11 4 -8 5 -44 2 -80 l-6
-65 -165 -1 -165 -2 -3 -66 -3 -66 196 0 195 0 0 -85 c0 -62 -3 -85 -12 -85
-7 0 -139 -1 -293 -2 l-280 -3 -3 378 -2 377 295 0 295 0 0 -80z m494 -143
l151 -217 3 220 2 220 95 0 95 0 0 -375 0 -375 -100 0 c-98 0 -100 0 -117 28
-9 15 -78 114 -152 219 l-136 193 -3 -217 c-1 -135 -6 -219 -13 -223 -10 -7
-153 -2 -176 5 -10 3 -13 87 -13 375 l0 371 106 -3 107 -3 151 -218z m-5347
-347 c-2 -32 -3 -30 -10 15 -4 28 -11 80 -17 118 -5 37 -10 93 -9 125 1 44 5
25 20 -83 10 -77 18 -156 16 -175z m-113 -91 c3 -19 9 -54 15 -79 5 -25 12
-56 14 -70 12 -68 69 -286 78 -296 5 -6 7 -13 4 -16 -3 -2 7 -37 21 -78 14
-40 24 -82 22 -94 -8 -53 -168 570 -168 653 0 34 9 22 14 -20z m201 -314 c15
-55 33 -125 41 -155 7 -30 24 -84 38 -120 25 -68 118 -302 131 -333 6 -13 4
-16 -9 -11 -9 3 -16 15 -16 25 0 10 -11 43 -25 73 -14 30 -25 59 -25 65 0 5
-11 36 -24 68 -13 32 -32 79 -43 105 -10 26 -20 41 -23 34 -4 -12 -7 -12 -18
0 -11 12 -10 14 3 14 20 0 19 26 -2 40 -11 7 -14 13 -7 16 8 3 8 16 0 44 -11
43 -22 51 -29 23 -4 -14 -5 -13 -6 4 0 12 5 23 11 25 10 4 10 11 -1 34 -7 16
-22 74 -33 129 -11 55 -24 118 -29 140 -5 22 -11 63 -14 90 -2 28 9 -8 24 -80
16 -71 41 -175 56 -230z m6752 43 c-3 -8 -6 -5 -6 6 -1 11 2 17 5 13 3 -3 4
-12 1 -19z m-6814 -188 c-3 -12 -8 -19 -11 -16 -5 6 5 36 12 36 2 0 2 -9 -1
-20z m56 -41 c-24 -15 -30 -10 -11 9 9 10 19 14 21 9 2 -5 -3 -13 -10 -18z
m6401 -18 c-1 -13 -3 -13 -15 3 -19 26 -19 42 0 26 8 -7 15 -20 15 -29z m370
8 c0 -11 -4 -18 -10 -14 -5 3 -7 12 -3 20 7 21 13 19 13 -6z m-6690 -143 c0
-3 -4 -8 -10 -11 -5 -3 -10 -1 -10 4 0 6 5 11 10 11 6 0 10 -2 10 -4z m-80
-76 c12 -30 24 -63 25 -73 7 -33 29 -87 36 -87 4 0 10 -15 13 -34 7 -38 40
-81 55 -72 5 3 11 1 13 -5 3 -8 9 -6 20 5 9 9 21 16 26 16 5 0 15 7 22 15 14
17 24 3 87 -125 38 -79 101 -186 164 -282 41 -63 42 -79 2 -136 -13 -19 -23
-41 -23 -48 0 -17 23 -31 28 -16 2 7 8 12 13 12 6 0 3 -10 -5 -22 -21 -29 -20
-42 0 -34 14 5 15 4 5 -8 -10 -11 -9 -16 3 -23 9 -5 12 -13 7 -21 -5 -8 -17 1
-38 31 -17 23 -50 67 -73 97 -23 30 -55 80 -71 110 -16 30 -48 87 -70 125 -50
87 -111 216 -105 222 2 2 13 -1 24 -8 13 -8 22 -28 26 -55 6 -44 71 -174 87
-174 12 0 12 47 -1 52 -6 2 -6 8 0 18 8 13 10 12 10 -2 0 -10 5 -18 10 -18 6
0 10 -7 10 -15 0 -8 5 -15 10 -15 6 0 10 9 10 20 0 11 6 20 13 20 6 0 13 11
13 25 1 16 -2 22 -10 18 -6 -4 -20 -9 -31 -10 -18 -3 -18 -2 3 17 12 11 22 24
22 28 0 7 -29 52 -39 62 -3 3 -6 12 -6 20 0 8 -8 16 -18 18 -16 3 -17 1 -8
-16 10 -18 6 -32 -9 -32 -4 0 -5 27 -4 60 2 33 -1 60 -5 60 -5 0 -11 6 -13 14
-2 10 -13 9 -50 -8 -51 -22 -61 -36 -28 -36 27 0 26 -17 -2 -26 -28 -8 -36 3
-81 118 -81 206 -97 250 -97 265 0 24 6 15 30 -47z m100 31 c0 -12 -39 -21
-45 -11 -3 5 1 11 7 13 21 9 38 8 38 -2z m4046 -36 c-3 -9 5 -20 22 -29 l27
-15 -24 -9 c-49 -18 249 -22 1528 -22 l1284 1 51 -25 c79 -39 160 -117 196
-188 29 -59 31 -68 29 -176 -1 -87 -4 -115 -15 -119 -17 -6 -19 -24 -1 -21 9
2 12 -44 14 -202 1 -201 -9 -340 -29 -370 -6 -10 -8 -4 -3 20 9 56 15 117 9
97 -3 -9 -10 -14 -16 -11 -7 4 -8 2 -4 -5 4 -6 0 -25 -8 -42 -9 -17 -13 -35
-10 -40 3 -5 0 -9 -6 -9 -8 0 -9 11 -4 33 4 17 6 201 5 407 l-2 374 -31 48
c-34 54 -91 104 -158 139 l-45 24 -1675 1 c-921 1 -2280 2 -3020 3 -935 2
-1354 -1 -1373 -8 -35 -14 -40 -14 -32 0 4 6 16 14 28 18 l21 8 -22 5 c-12 4
-20 1 -19 -4 1 -6 -4 -13 -10 -15 -7 -3 -13 0 -13 6 0 5 -18 0 -40 -11 -22
-12 -40 -26 -40 -30 0 -5 -9 -18 -20 -30 -11 -12 -20 -18 -20 -14 0 14 -36
-36 -64 -89 -19 -37 -27 -69 -29 -123 -3 -40 -8 -76 -12 -80 -4 -4 -5 27 -3
68 8 107 37 177 106 247 63 65 104 88 183 103 61 12 766 12 729 0 -14 -4 -18
-9 -10 -9 10 -1 11 -4 4 -9 -7 -4 20 -8 60 -9 l71 -2 -35 17 c-33 16 15 17
1065 22 605 3 1108 9 1118 14 9 4 17 12 17 16 0 9 26 15 100 26 25 3 50 9 55
14 10 8 39 17 64 19 8 1 11 -5 7 -14z m-3333 -169 c9 5 9 4 0 -6 -13 -15 -37
-4 -26 13 5 8 8 8 11 -1 2 -7 9 -9 15 -6z m-643 -36 c0 -5 -4 -10 -10 -10 -5
0 -10 5 -10 10 0 6 5 10 10 10 6 0 10 -4 10 -10z m572 -35 c-21 -24 -46 -66
-55 -92 -9 -26 -16 -41 -16 -32 -2 35 24 86 62 127 54 55 59 54 9 -3z m2878
26 c91 0 174 0 185 0 11 0 198 0 415 -1 217 0 919 1 1560 3 936 4 1171 2 1196
-8 44 -18 103 -80 127 -134 20 -44 21 -61 18 -355 -1 -170 -7 -318 -11 -330
-5 -12 -9 101 -9 275 -1 163 -4 311 -7 328 -8 38 -88 130 -112 129 -30 -3 -73
12 -67 22 7 12 34 11 -571 10 -256 0 -475 -4 -493 -10 -20 -6 -63 -6 -110 0
-42 5 -330 11 -641 14 -571 6 -720 12 -720 27 0 5 -9 9 -20 9 -11 0 -20 -7
-20 -15 0 -20 -17 -19 -29 3 -6 10 -11 12 -11 4 0 -9 -10 -11 -34 -6 -23 4
-46 1 -67 -10 -37 -18 -99 -21 -99 -5 0 7 -11 9 -30 6 -18 -4 -30 -2 -30 4 0
6 -4 7 -10 4 -5 -3 -20 0 -32 7 -14 7 -48 11 -88 8 -36 -2 -96 -3 -135 -2
-205 6 -315 4 -314 -4 2 -12 -62 -23 -146 -23 -61 0 -68 1 -52 13 12 9 14 16
7 21 -6 4 -18 1 -27 -7 -12 -9 -15 -9 -9 0 4 6 2 12 -3 12 -6 0 -11 -6 -11
-14 0 -9 -15 -17 -37 -20 -21 -4 -312 -4 -648 -1 -335 2 -830 5 -1099 5 -269
0 -486 3 -482 7 4 4 34 8 67 9 96 3 81 14 -22 16 l-94 2 80 5 c64 5 1849 6
2635 2z m-3480 -21 c0 -5 -7 -10 -15 -10 -8 0 -15 5 -15 10 0 6 7 10 15 10 8
0 15 -4 15 -10z m771 -23 c-24 -6 -37 -5 -45 4 -8 9 -8 10 1 5 6 -3 22 -2 35
3 12 5 27 6 33 3 5 -3 -6 -10 -24 -15z m-682 -121 c1 -6 -5 -1 -13 9 -8 11
-12 24 -8 29 5 9 20 -17 21 -38z m3757 -348 c-1 -341 -2 -363 -19 -360 -9 2
-20 -4 -24 -13 -4 -13 -7 -14 -14 -3 -10 15 -12 721 -3 731 4 4 19 7 34 7 l26
0 0 -362z m-3319 265 c-2 -16 -4 -5 -4 22 0 28 2 40 4 28 2 -13 2 -35 0 -50z
m-417 23 c0 -3 -4 -8 -10 -11 -5 -3 -10 -1 -10 4 0 6 5 11 10 11 6 0 10 -2 10
-4z m1260 -27 c55 -29 75 -64 77 -139 l1 -65 34 -3 c56 -6 58 -10 58 -175 0
-211 19 -197 -266 -197 -284 0 -264 -15 -264 191 0 81 3 154 6 163 4 10 18 16
38 16 18 0 35 2 38 5 3 3 2 25 -2 48 -25 134 144 228 280 156z m3196 -10 c45
-27 79 -96 70 -143 -16 -82 -79 -136 -161 -136 -70 0 -115 26 -143 83 -42 82
-8 167 83 209 49 23 100 19 151 -13z m-4039 -126 c-2 -21 -4 -4 -4 37 0 41 2
58 4 38 2 -21 2 -55 0 -75z m-37 72 c0 -8 -4 -15 -10 -15 -5 0 -10 7 -10 15 0
8 5 15 10 15 6 0 10 -7 10 -15z m1350 -170 l0 -145 71 0 70 0 -3 -32 -3 -33
-105 0 -105 0 -3 165 c-1 90 0 170 2 177 3 7 21 13 41 13 l35 0 0 -145z m410
130 c58 -30 100 -132 86 -209 -8 -43 -63 -108 -106 -126 -41 -17 -121 -8 -157
18 -67 47 -91 164 -51 242 40 79 151 115 228 75z m369 4 c33 -12 37 -24 20
-63 -11 -23 -13 -23 -45 -10 -39 16 -86 9 -109 -16 -19 -21 -30 -87 -21 -124
10 -39 45 -66 85 -66 47 0 64 12 59 41 -3 20 -9 24 -46 27 -42 3 -43 4 -40 35
l3 32 70 0 70 0 3 -88 3 -88 -35 -14 c-55 -23 -136 -19 -177 8 -44 29 -79 98
-79 157 0 128 117 211 239 169z m326 -31 c-1 -21 -2 -101 -3 -179 l-2 -140
-37 3 -38 3 -3 178 -2 178 42 -3 c43 -3 43 -3 43 -40z m161 10 c10 -18 42 -69
73 -113 l56 -80 3 113 3 112 34 0 c21 0 35 -5 36 -12 0 -12 0 -89 -1 -271 l0
-78 -37 3 c-34 3 -41 10 -104 103 -38 55 -72 101 -76 102 -4 2 -7 -45 -5 -103
l3 -105 -38 3 -38 3 -3 178 -2 177 40 0 c34 0 42 -4 56 -32z m1970 7 c29 -18
29 -26 6 -54 -16 -21 -18 -22 -56 -6 -43 18 -86 9 -86 -19 0 -19 18 -31 78
-51 79 -25 110 -85 80 -150 -7 -15 -24 -33 -39 -41 -41 -21 -127 -18 -166 6
-35 21 -40 36 -20 63 11 16 15 16 56 -5 33 -16 49 -19 70 -12 46 16 33 45 -34
77 -85 41 -95 52 -95 107 0 52 12 72 55 95 36 19 115 14 151 -10z m156 -130
c1 -85 2 -165 2 -177 1 -19 -5 -23 -36 -26 l-38 -3 0 180 0 181 35 0 35 0 2
-155z m304 134 c8 -7 14 -24 12 -38 -3 -28 -2 -27 -90 -14 -32 4 -42 1 -68
-25 -26 -27 -30 -37 -30 -87 0 -46 4 -60 25 -80 42 -43 115 -32 115 16 0 27
-3 29 -36 29 -34 0 -35 1 -32 33 3 31 4 32 58 35 68 4 80 -10 80 -89 0 -83
-26 -111 -108 -117 -111 -8 -182 58 -182 168 0 83 36 149 95 177 35 16 138 11
161 -8z m171 -1 c11 -13 44 -63 74 -112 l54 -90 3 112 3 112 33 0 c33 0 34 -1
38 -49 3 -27 3 -108 0 -180 l-5 -131 -33 0 c-31 0 -38 6 -80 71 -25 39 -55 91
-67 115 -11 24 -23 44 -27 44 -3 0 -3 -52 -1 -116 l3 -115 -38 3 -39 3 -3 178
-2 177 33 0 c22 0 40 -8 54 -22z m441 -108 c2 -98 6 -128 19 -142 26 -29 75
-22 104 15 1 1 5 58 8 127 l6 125 30 0 30 0 3 -122 c2 -90 -1 -131 -12 -157
-20 -49 -68 -76 -134 -76 -46 0 -57 4 -90 34 l-37 34 -4 131 c-1 72 0 138 3
147 4 10 16 14 38 12 l33 -3 3 -125z m421 124 c65 -13 113 -93 97 -158 -3 -14
-17 -38 -30 -53 -21 -24 -34 -29 -88 -33 l-63 -5 -1 -50 -1 -50 -36 -3 -37 -3
0 174 c0 95 3 177 7 180 8 9 110 9 152 1z m1161 -29 c0 -5 -5 -3 -10 5 -5 8
-10 20 -10 25 0 6 5 3 10 -5 5 -8 10 -19 10 -25z m-7240 -25 c0 -5 -4 -10 -10
-10 -5 0 -10 5 -10 10 0 6 5 10 10 10 6 0 10 -4 10 -10z m-1 -127 c-1 -60 2
-120 6 -136 4 -17 3 -33 -4 -41 -9 -11 -10 -29 -3 -67 6 -29 6 -62 2 -74 -4
-12 -5 -40 0 -64 6 -32 5 -40 -4 -31 -14 14 -19 520 -5 520 6 0 9 -43 8 -107z
m138 67 c-2 -48 -17 -54 -17 -7 0 29 6 47 16 47 2 0 2 -18 1 -40z m7173 -15
c0 -8 -4 -15 -10 -15 -5 0 -10 7 -10 15 0 8 5 15 10 15 6 0 10 -7 10 -15z
m-7270 -192 c0 -108 -3 -194 -6 -190 -4 3 -6 90 -6 192 1 209 0 195 7 195 3 0
5 -88 5 -197z m100 137 c0 -5 -5 -10 -11 -10 -5 0 -7 5 -4 10 3 6 8 10 11 10
2 0 4 -4 4 -10z m-275 -50 c-3 -5 -11 -10 -16 -10 -6 0 -7 5 -4 10 3 6 11 10
16 10 6 0 7 -4 4 -10z m6892 -22 c-3 -8 -6 -5 -6 6 -1 11 2 17 5 13 3 -3 4
-12 1 -19z m-6619 -19 c-3 -8 -7 -3 -11 10 -4 17 -3 21 5 13 5 -5 8 -16 6 -23z
m4038 5 c58 -27 79 -68 79 -149 l0 -70 -257 -3 -257 -2 -17 25 c-26 40 -15
127 21 165 41 42 69 48 243 49 123 1 161 -2 188 -15z m2534 1 c7 -9 8 -15 2
-15 -5 0 -12 7 -16 15 -3 8 -4 15 -2 15 2 0 9 -7 16 -15z m-6770 1 c0 -3 -4
-8 -10 -11 -5 -3 -10 -1 -10 4 0 6 5 11 10 11 6 0 10 -2 10 -4z m197 -88 c-2
-13 -4 -5 -4 17 -1 22 1 32 4 23 2 -10 2 -28 0 -40z m6915 37 c0 -14 -29 -31
-38 -22 -9 8 16 39 28 35 5 -2 10 -8 10 -13z m-322 -114 c-5 -11 -15 -23 -22
-27 -7 -5 -8 -2 -3 7 21 37 44 55 25 20z m340 -9 c0 -10 -6 -19 -14 -19 -11 0
-12 4 -3 19 7 10 13 18 14 18 2 0 3 -8 3 -18z m-499 -234 c-11 -18 -31 -44
-44 -58 -25 -27 -107 -84 -107 -74 0 9 41 44 51 44 4 0 11 9 14 21 4 12 13 18
20 15 8 -3 26 14 46 45 17 27 34 48 36 45 3 -3 -4 -20 -16 -38z m-56 5 c-9
-16 -29 -37 -43 -48 -26 -19 -27 -19 -12 0 26 34 63 75 67 75 2 0 -3 -12 -12
-27z m-6695 -39 c0 -8 -5 -12 -10 -9 -6 4 -8 11 -5 16 9 14 15 11 15 -7z
m6575 -64 c-3 -5 -12 -10 -18 -10 -7 0 -6 4 3 10 19 12 23 12 15 0z m-258 -26
c13 -4 21 -10 18 -14 -8 -13 22 -19 52 -10 l28 8 -33 1 c-18 1 -31 5 -28 9 7
12 96 14 96 2 0 -5 -5 -9 -11 -8 -6 2 -14 -3 -17 -11 -4 -12 7 -13 64 -8 57 5
65 4 49 -6 -15 -9 -300 -12 -1215 -14 -804 -1 -1187 1 -1170 8 13 6 42 7 63 3
28 -4 42 -2 48 7 7 11 12 12 29 2 23 -15 30 -16 30 -4 0 5 -12 12 -27 16 l-28
8 25 7 c29 9 1995 13 2027 4z m155 -16 c-7 -7 -12 -8 -12 -2 0 14 12 26 19 19
2 -3 -1 -11 -7 -17z m-5909 5 c-7 -2 -19 -2 -25 0 -7 3 -2 5 12 5 14 0 19 -2
13 -5z m987 0 c-93 -14 -89 -33 7 -33 37 0 64 -2 61 -5 -2 -3 -235 -7 -516
-10 -359 -4 -512 -3 -512 5 0 6 7 13 16 17 8 3 13 12 10 19 -5 12 72 14 477
13 265 -1 471 -3 457 -6z m75 -3 c-28 -12 -47 -12 -40 0 3 6 18 10 33 9 24 0
25 -1 7 -9z m62 4 c-3 -3 -12 -4 -19 -1 -8 3 -5 6 6 6 11 1 17 -2 13 -5z
m1236 -1 c-7 -2 -21 -2 -30 0 -10 3 -4 5 12 5 17 0 24 -2 18 -5z m60 0 c-7 -2
-19 -2 -25 0 -7 3 -2 5 12 5 14 0 19 -2 13 -5z m250 0 c-7 -2 -21 -2 -30 0
-10 3 -4 5 12 5 17 0 24 -2 18 -5z m700 0 c-7 -2 -19 -2 -25 0 -7 3 -2 5 12 5
14 0 19 -2 13 -5z m54 1 c-3 -3 -12 -4 -19 -1 -8 3 -5 6 6 6 11 1 17 -2 13 -5z
m-3492 -34 c7 -11 -9 -11 -45 0 -24 8 -24 8 7 9 17 1 35 -3 38 -9z m3510 0 c4
-6 -20 -10 -67 -9 -52 1 -66 3 -48 9 36 12 108 12 115 0z m-3432 -7 c-7 -2
-19 -2 -25 0 -7 3 -2 5 12 5 14 0 19 -2 13 -5z m1104 1 c-3 -3 -12 -4 -19 -1
-8 3 -5 6 6 6 11 1 17 -2 13 -5z m80 0 c-3 -3 -12 -4 -19 -1 -8 3 -5 6 6 6 11
1 17 -2 13 -5z m61 -1 c-10 -2 -26 -2 -35 0 -10 3 -2 5 17 5 19 0 27 -2 18 -5z
m239 1 c-3 -3 -12 -4 -19 -1 -8 3 -5 6 6 6 11 1 17 -2 13 -5z m60 0 c-3 -3
-12 -4 -19 -1 -8 3 -5 6 6 6 11 1 17 -2 13 -5z m46 -1 c-7 -2 -19 -2 -25 0 -7
3 -2 5 12 5 14 0 19 -2 13 -5z m834 1 c-3 -3 -12 -4 -19 -1 -8 3 -5 6 6 6 11
1 17 -2 13 -5z m206 -1 c-13 -2 -35 -2 -50 0 -16 2 -5 4 22 4 28 0 40 -2 28
-4z m120 0 c-7 -2 -21 -2 -30 0 -10 3 -4 5 12 5 17 0 24 -2 18 -5z m785 0
c-10 -2 -28 -2 -40 0 -13 2 -5 4 17 4 22 1 32 -1 23 -4z m1326 -108 c-4 -9 0
-15 7 -15 11 0 11 -3 -1 -10 -23 -15 -30 -12 -30 15 0 15 6 25 15 25 9 0 12
-6 9 -15z m-3994 -15 c0 -5 -4 -10 -10 -10 -5 0 -10 5 -10 10 0 6 5 10 10 10
6 0 10 -4 10 -10z m4915 -9 c3 -5 1 -12 -5 -16 -5 -3 -10 1 -10 9 0 18 6 21
15 7z m-5215 -79 c36 -25 83 -60 105 -77 78 -62 151 -110 275 -178 69 -38 145
-80 170 -94 89 -50 505 -224 629 -263 333 -107 612 -159 964 -181 516 -31
1013 53 1577 267 296 113 525 221 675 319 44 29 94 60 112 69 l32 16 -2 -40
c-3 -42 -1 -45 22 -31 10 6 19 3 30 -11 16 -20 17 -20 34 0 18 20 18 20 -2 27
-20 6 -20 6 0 26 21 21 44 16 35 -7 -5 -13 -2 -12 16 1 28 19 38 19 38 0 0 -8
5 -15 10 -15 14 0 12 28 -2 33 -10 3 -10 8 1 21 10 12 22 15 42 11 17 -4 32
-1 40 8 11 11 19 12 36 4 27 -12 32 -40 6 -30 -16 6 -16 5 -4 -10 11 -13 11
-17 1 -17 -8 0 -10 -3 -7 -6 10 -11 57 25 58 44 0 10 3 12 6 5 2 -7 13 -13 23
-13 21 0 44 25 36 39 -3 5 0 11 8 14 17 7 28 -27 13 -42 -22 -22 3 -22 32 0
17 12 33 20 36 18 7 -8 -268 -219 -392 -300 -225 -148 -299 -194 -400 -246
-57 -29 -107 -53 -113 -53 -5 0 -31 -13 -57 -28 -136 -79 -458 -196 -733 -266
-326 -82 -622 -124 -950 -133 -487 -13 -858 44 -1380 212 -239 77 -388 139
-651 270 -141 70 -170 88 -239 148 -24 21 -74 55 -110 74 -67 37 -164 105
-228 159 -20 17 -50 38 -67 47 -35 18 -84 67 -67 67 7 0 12 -4 12 -10 0 -5 6
-7 14 -4 12 5 12 10 -2 33 -14 26 -14 31 1 64 9 19 17 39 17 45 0 5 7 15 15
22 17 14 65 22 65 11 0 -4 10 -7 21 -8 28 -2 35 -11 21 -25 -19 -19 -14 -28
12 -28 27 0 42 15 26 25 -17 10 -11 28 6 21 24 -9 57 23 43 41 -21 24 21 4 91
-45z m-120 34 c0 -3 -4 -8 -10 -11 -5 -3 -10 -1 -10 4 0 6 5 11 10 11 6 0 10
-2 10 -4z m5254 -41 c-4 -8 -8 -15 -10 -15 -2 0 -4 7 -4 15 0 8 4 15 10 15 5
0 7 -7 4 -15z m-1429 -15 c3 -5 1 -10 -4 -10 -6 0 -11 5 -11 10 0 6 2 10 4 10
3 0 8 -4 11 -10z m505 -9 c0 -13 -26 -32 -33 -24 -14 13 -6 33 13 33 11 0 20
-4 20 -9z m-4586 -78 c9 -20 3 -16 -44 34 l-45 47 41 -34 c23 -19 45 -41 48
-47z m5029 50 c-13 -8 -23 -21 -23 -27 -1 -14 -69 -46 -75 -36 -5 9 93 79 110
79 6 0 0 -7 -12 -16z m208 2 c-18 -8 -36 -15 -40 -15 -13 1 45 29 59 29 8 0 0
-6 -19 -14z m-68 -25 c-3 -11 -7 -20 -9 -20 -2 0 -4 9 -4 20 0 11 4 20 9 20 5
0 7 -9 4 -20z m-53 0 c0 -5 -4 -10 -10 -10 -5 0 -10 5 -10 10 0 6 5 10 10 10
6 0 10 -4 10 -10z m-40 -28 c0 -4 -5 -13 -12 -20 -16 -16 -28 -15 -28 3 0 9 6
12 17 8 11 -4 14 -3 9 5 -4 7 -2 12 3 12 6 0 11 -4 11 -8z m-80 -22 c0 -5 -4
-10 -9 -10 -6 0 -13 5 -16 10 -3 6 1 10 9 10 9 0 16 -4 16 -10z m-3712 -29
c10 -6 10 -10 -3 -21 -18 -15 -42 0 -31 19 8 13 16 14 34 2z m4402 -32 c0 -5
-4 -9 -10 -9 -5 0 -10 7 -10 16 0 8 5 12 10 9 6 -3 10 -10 10 -16z m-5777 -79
c3 -11 1 -20 -4 -20 -5 0 -9 2 -9 4 0 2 -3 11 -6 20 -3 9 -2 16 4 16 5 0 12
-9 15 -20z m5396 -144 c9 -11 8 -18 -4 -30 -20 -19 -32 -20 -38 -3 -5 14 10
47 22 47 5 0 14 -6 20 -14z m-5149 -15 c0 -6 -4 -13 -10 -16 -5 -3 -10 1 -10
9 0 9 5 16 10 16 6 0 10 -4 10 -9z m118 -75 c5 -43 -11 -51 -44 -22 -29 24
-29 25 -9 40 29 22 49 15 53 -18z m-128 10 c0 -3 -4 -8 -10 -11 -5 -3 -10 -1
-10 4 0 6 5 11 10 11 6 0 10 -2 10 -4z m3750 -16 c0 -5 -7 -10 -15 -10 -8 0
-15 5 -15 10 0 6 7 10 15 10 8 0 15 -4 15 -10z m-3620 -120 c0 -5 -4 -10 -10
-10 -5 0 -10 5 -10 10 0 6 5 10 10 10 6 0 10 -4 10 -10z m107 -96 c32 -29 29
-34 -17 -34 -38 0 -40 2 -40 30 0 36 20 37 57 4z m329 1 c4 -8 1 -22 -6 -30
-11 -14 -15 -14 -31 1 -14 13 -16 20 -8 31 15 17 38 17 45 -2z m4392 -100 c-3
-3 -9 2 -12 12 -6 14 -5 15 5 6 7 -7 10 -15 7 -18z m-4424 9 c26 -10 18 -24
-14 -24 -22 0 -28 4 -24 15 7 16 14 18 38 9z m436 -320 c0 -8 -4 -12 -10 -9
-5 3 -10 10 -10 16 0 5 5 9 10 9 6 0 10 -7 10 -16z m2887 -16 c-3 -8 -6 -5 -6
6 -1 11 2 17 5 13 3 -3 4 -12 1 -19z m-742 -277 c10 -17 -12 -21 -25 -6 -10
12 -10 15 3 15 9 0 18 -4 22 -9z m-615 -121 c0 -6 -28 -9 -67 -8 l-68 1 50 7
c78 11 85 11 85 0z"/>
<path d="M6280 12660 c19 -13 30 -13 30 0 0 6 -10 10 -22 10 -19 0 -20 -2 -8
-10z"/>
<path d="M6696 12491 c-3 -5 1 -11 9 -15 8 -3 15 -1 15 4 0 13 -18 22 -24 11z"/>
<path d="M6780 12495 c0 -5 61 -65 66 -65 9 0 2 10 -25 39 -27 29 -41 38 -41
26z"/>
<path d="M7021 12493 c-1 -18 10 -43 19 -43 5 0 8 9 7 19 0 11 -4 18 -8 15 -4
-2 -10 2 -12 8 -4 9 -6 9 -6 1z"/>
<path d="M6754 12431 c3 -5 16 -11 28 -14 22 -6 22 -5 4 8 -22 17 -40 20 -32
6z"/>
<path d="M7245 12383 c3 -26 16 -53 25 -53 4 0 10 9 13 20 3 12 1 17 -5 14 -5
-3 -12 3 -15 15 -6 25 -20 28 -18 4z"/>
<path d="M6790 12236 c0 -2 7 -7 16 -10 8 -3 12 -2 9 4 -6 10 -25 14 -25 6z"/>
<path d="M6899 12181 c13 -12 28 -21 34 -21 12 0 11 0 -28 24 l-30 17 24 -20z"/>
<path d="M7200 11950 c0 -5 5 -10 11 -10 5 0 7 5 4 10 -3 6 -8 10 -11 10 -2 0
-4 -4 -4 -10z"/>
<path d="M7305 11944 c36 -28 61 -36 30 -10 -16 14 -34 26 -40 26 -5 -1 -1 -8
10 -16z"/>
<path d="M2660 11910 c0 -5 5 -10 10 -10 6 0 10 5 10 10 0 6 -4 10 -10 10 -5
0 -10 -4 -10 -10z"/>
<path d="M7810 11906 c0 -8 5 -18 12 -22 8 -5 6 -10 -8 -15 -17 -7 -17 -8 -1
-8 9 -1 17 -6 17 -13 0 -8 5 -7 16 3 12 13 13 20 3 42 -13 29 -39 37 -39 13z"/>
<path d="M7290 11892 c0 -5 12 -19 27 -33 l26 -24 -23 33 c-25 33 -30 38 -30
24z"/>
<path d="M2586 11848 c5 -7 9 -16 9 -20 0 -14 13 -18 18 -5 3 7 -4 19 -15 26
-16 10 -19 10 -12 -1z"/>
<path d="M7440 11850 c0 -5 5 -10 11 -10 5 0 7 5 4 10 -3 6 -8 10 -11 10 -2 0
-4 -4 -4 -10z"/>
<path d="M2656 11835 c4 -8 8 -15 10 -15 2 0 4 7 4 15 0 8 -4 15 -10 15 -5 0
-7 -7 -4 -15z"/>
<path d="M7410 11822 c0 -5 7 -13 16 -16 10 -4 14 -1 12 6 -5 15 -28 23 -28
10z"/>
<path d="M2500 11800 c0 -5 5 -10 10 -10 6 0 10 5 10 10 0 6 -4 10 -10 10 -5
0 -10 -4 -10 -10z"/>
<path d="M2540 11790 c0 -5 5 -10 11 -10 5 0 7 5 4 10 -3 6 -8 10 -11 10 -2 0
-4 -4 -4 -10z"/>
<path d="M7535 11780 c10 -11 23 -20 28 -20 6 0 2 9 -8 20 -10 11 -23 20 -28
20 -6 0 -2 -9 8 -20z"/>
<path d="M2497 11773 c-10 -10 -8 -65 2 -59 12 8 20 42 12 55 -4 6 -10 8 -14
4z"/>
<path d="M8055 11740 c-3 -5 -1 -10 4 -10 6 0 11 5 11 10 0 6 -2 10 -4 10 -3
0 -8 -4 -11 -10z"/>
<path d="M7915 11700 c10 -11 20 -20 23 -20 3 0 -3 9 -13 20 -10 11 -20 20
-23 20 -3 0 3 -9 13 -20z"/>
<path d="M2372 11698 c2 -6 10 -14 16 -16 7 -2 10 2 6 12 -7 18 -28 22 -22 4z"/>
<path d="M8035 11690 c-3 -5 1 -10 9 -10 9 0 16 5 16 10 0 6 -4 10 -9 10 -6 0
-13 -4 -16 -10z"/>
<path d="M2426 11655 c4 -8 8 -15 10 -15 2 0 4 7 4 15 0 8 -4 15 -10 15 -5 0
-7 -7 -4 -15z"/>
<path d="M8110 11659 c0 -8 9 -20 20 -27 11 -7 20 -8 20 -4 0 5 -9 17 -20 27
-15 14 -20 15 -20 4z"/>
<path d="M8015 11610 c10 -11 20 -20 23 -20 3 0 -3 9 -13 20 -10 11 -20 20
-23 20 -3 0 3 -9 13 -20z"/>
<path d="M2250 11580 c-20 -12 -10 -19 14 -10 11 3 15 9 10 13 -6 3 -16 2 -24
-3z"/>
<path d="M8055 11570 c3 -5 11 -10 16 -10 6 0 7 5 4 10 -3 6 -11 10 -16 10 -6
0 -7 -4 -4 -10z"/>
<path d="M8120 11569 c0 -5 5 -7 10 -4 6 3 10 8 10 11 0 2 -4 4 -10 4 -5 0
-10 -5 -10 -11z"/>
<path d="M8180 11453 c0 -5 12 -20 28 -34 l27 -24 -25 30 c-14 17 -26 32 -27
34 -2 2 -3 0 -3 -6z"/>
<path d="M8760 11375 c-14 -25 -7 -47 9 -29 14 14 23 54 13 54 -5 0 -15 -11
-22 -25z"/>
<path d="M8248 11375 c16 -29 70 -90 76 -84 3 2 -16 27 -41 54 -25 28 -40 41
-35 30z"/>
<path d="M2020 11352 c0 -5 7 -15 15 -22 8 -7 15 -8 15 -2 0 5 -7 15 -15 22
-8 7 -15 8 -15 2z"/>
<path d="M8370 11326 c0 -9 5 -16 10 -16 6 0 10 4 10 9 0 6 -4 13 -10 16 -5 3
-10 -1 -10 -9z"/>
<path d="M1977 11310 c-3 -11 -1 -23 4 -26 5 -3 9 6 9 20 0 31 -6 34 -13 6z"/>
<path d="M1945 11260 c3 -5 11 -10 16 -10 6 0 7 5 4 10 -3 6 -11 10 -16 10 -6
0 -7 -4 -4 -10z"/>
<path d="M1908 11183 c7 -3 16 -2 19 1 4 3 -2 6 -13 5 -11 0 -14 -3 -6 -6z"/>
<path d="M8220 11130 c0 -5 5 -10 11 -10 5 0 7 5 4 10 -3 6 -8 10 -11 10 -2 0
-4 -4 -4 -10z"/>
<path d="M1857 11101 c3 -12 10 -21 15 -21 13 0 6 32 -9 37 -7 3 -9 -3 -6 -16z"/>
<path d="M1693 10893 c-14 -5 -18 -33 -5 -33 4 0 13 9 20 20 12 20 8 23 -15
13z"/>
<path d="M8277 10839 c7 -27 23 -34 23 -11 0 11 -6 22 -14 25 -10 4 -12 0 -9
-14z"/>
<path d="M8380 10670 c0 -5 6 -10 14 -10 8 0 16 -6 19 -12 2 -7 8 -10 12 -5 5
4 0 14 -11 22 -23 17 -34 19 -34 5z"/>
<path d="M1585 10660 c-3 -5 -1 -10 4 -10 6 0 11 5 11 10 0 6 -2 10 -4 10 -3
0 -8 -4 -11 -10z"/>
<path d="M8880 10626 c0 -2 7 -9 15 -16 9 -7 15 -8 15 -2 0 5 -7 12 -15 16 -8
3 -15 4 -15 2z"/>
<path d="M8856 10517 c3 -10 9 -15 12 -12 3 3 0 11 -7 18 -10 9 -11 8 -5 -6z"/>
<path d="M8900 10423 c0 -4 5 -15 10 -23 8 -13 10 -13 10 2 0 9 -4 20 -10 23
-5 3 -10 3 -10 -2z"/>
<path d="M8920 10371 c0 -5 5 -13 10 -16 6 -3 10 -2 10 4 0 5 -4 13 -10 16 -5
3 -10 2 -10 -4z"/>
<path d="M8955 10303 c16 -38 25 -52 25 -39 0 12 -29 76 -35 76 -3 0 2 -17 10
-37z"/>
<path d="M8985 10233 c13 -32 66 -167 77 -198 14 -39 33 -60 23 -25 -4 14 -16
45 -26 69 -10 24 -19 50 -19 57 0 16 -49 114 -57 114 -3 0 -2 -8 2 -17z"/>
<path d="M9091 9964 c0 -11 3 -14 6 -6 3 7 2 16 -1 19 -3 4 -6 -2 -5 -13z"/>
<path d="M9240 8570 c0 -5 5 -10 11 -10 5 0 7 5 4 10 -3 6 -8 10 -11 10 -2 0
-4 -4 -4 -10z"/>
<path d="M9180 8496 c0 -9 5 -16 10 -16 6 0 10 4 10 9 0 6 -4 13 -10 16 -5 3
-10 -1 -10 -9z"/>
<path d="M9230 8490 c0 -5 5 -10 11 -10 5 0 7 5 4 10 -3 6 -8 10 -11 10 -2 0
-4 -4 -4 -10z"/>
<path d="M9180 8460 c0 -5 5 -10 10 -10 6 0 10 5 10 10 0 6 -4 10 -10 10 -5 0
-10 -4 -10 -10z"/>
<path d="M9220 8453 c0 -10 4 -25 10 -33 8 -13 9 -13 14 0 8 26 3 50 -11 50
-7 0 -13 -8 -13 -17z"/>
<path d="M9256 8414 c-9 -22 3 -32 14 -14 12 19 12 30 1 30 -5 0 -12 -7 -15
-16z"/>
<path d="M9200 8394 c0 -8 5 -12 10 -9 6 3 10 10 10 16 0 5 -4 9 -10 9 -5 0
-10 -7 -10 -16z"/>
<path d="M9210 8360 c0 -5 5 -10 10 -10 6 0 10 5 10 10 0 6 -4 10 -10 10 -5 0
-10 -4 -10 -10z"/>
<path d="M9268 8330 c-7 -24 -3 -38 8 -28 3 4 4 17 2 30 l-3 23 -7 -25z"/>
<path d="M9180 8219 c0 -5 5 -7 10 -4 6 3 10 8 10 11 0 2 -4 4 -10 4 -5 0 -10
-5 -10 -11z"/>
<path d="M9211 8166 c-7 -8 -21 -12 -31 -9 -12 3 -20 0 -20 -7 0 -9 11 -11 36
-7 30 5 37 3 41 -14 4 -15 8 -17 19 -8 20 16 17 40 -3 37 -10 -2 -17 3 -15 10
3 16 -13 15 -27 -2z"/>
<path d="M9165 8111 c-3 -5 4 -13 16 -16 21 -7 22 -25 4 -67 -4 -11 -3 -18 4
-18 6 0 14 15 19 33 6 22 15 33 30 35 25 4 30 22 7 22 -8 0 -15 5 -15 11 0 8
-4 8 -14 0 -10 -8 -16 -9 -21 -1 -8 12 -22 13 -30 1z"/>
<path d="M9150 8071 c0 -5 -3 -17 -6 -26 -6 -15 -4 -15 15 -4 25 16 27 25 6
33 -8 3 -15 1 -15 -3z"/>
<path d="M9251 8034 c0 -11 3 -14 6 -6 3 7 2 16 -1 19 -3 4 -6 -2 -5 -13z"/>
<path d="M9220 8010 c0 -5 5 -10 10 -10 6 0 10 5 10 10 0 6 -4 10 -10 10 -5 0
-10 -4 -10 -10z"/>
<path d="M9178 7978 c-8 -7 -18 -21 -21 -30 -5 -14 -1 -17 16 -16 17 2 22 8
22 30 0 15 0 28 -1 28 0 0 -7 -6 -16 -12z"/>
<path d="M9160 7905 c-8 -9 -8 -15 -2 -15 12 0 26 19 19 26 -2 2 -10 -2 -17
-11z"/>
<path d="M9180 7890 c-9 -17 -8 -19 7 -13 16 6 16 5 4 -10 -8 -10 -10 -21 -6
-25 4 -4 10 -1 12 6 5 13 24 17 22 5 -3 -19 2 -36 8 -30 13 14 12 57 -3 57 -8
0 -14 7 -14 15 0 21 -17 19 -30 -5z"/>
<path d="M9111 7823 c0 -25 1 -26 9 -8 12 27 12 35 0 35 -5 0 -10 -12 -9 -27z"/>
<path d="M9145 7820 c-3 -5 -1 -10 4 -10 6 0 11 5 11 10 0 6 -2 10 -4 10 -3 0
-8 -4 -11 -10z"/>
<path d="M9170 7805 c0 -8 -9 -15 -20 -15 -15 0 -20 -7 -20 -25 0 -31 15 -33
25 -2 6 20 8 20 12 3 3 -10 0 -23 -6 -29 -18 -18 -12 -28 9 -15 11 7 19 17 19
23 -3 24 2 36 11 30 14 -9 12 7 -4 28 -16 21 -26 22 -26 2z"/>
<path d="M9106 7781 c-4 -7 -5 -15 -2 -18 9 -9 19 4 14 18 -4 11 -6 11 -12 0z"/>
<path d="M9200 7739 c0 -11 5 -17 10 -14 6 3 10 13 10 21 0 8 -4 14 -10 14 -5
0 -10 -9 -10 -21z"/>
<path d="M9131 7674 c0 -11 3 -14 6 -6 3 7 2 16 -1 19 -3 4 -6 -2 -5 -13z"/>
<path d="M9090 7661 c0 -12 26 -32 33 -25 9 10 -4 34 -19 34 -8 0 -14 -4 -14
-9z"/>
<path d="M9146 7654 c-3 -9 -4 -20 0 -25 3 -5 -2 -9 -10 -9 -9 0 -16 -4 -16
-10 0 -5 -8 -7 -17 -4 -15 5 -16 4 -3 -5 12 -8 12 -14 4 -28 -7 -12 -8 -27 -3
-42 12 -32 0 -49 -18 -25 -12 16 -15 17 -23 4 -13 -21 -12 -50 1 -50 6 0 9 -7
5 -15 -3 -9 0 -15 10 -15 12 0 12 -2 2 -14 -9 -10 -17 -11 -25 -4 -10 8 -13 6
-13 -7 0 -11 -5 -15 -14 -12 -20 8 -25 -35 -6 -50 13 -11 13 -12 -3 -13 -22 0
-43 -48 -27 -64 15 -15 12 -26 -4 -20 -8 3 -17 1 -21 -5 -3 -6 1 -11 10 -11
11 0 14 -6 9 -24 -4 -18 0 -28 15 -38 12 -7 21 -21 21 -30 0 -24 -27 -12 -36
15 -11 34 -44 51 -44 22 0 -8 7 -15 15 -15 14 0 19 -14 18 -47 0 -8 9 -10 28
-6 18 3 29 1 29 -6 0 -6 -6 -11 -14 -11 -9 0 -12 -8 -8 -27 5 -25 7 -23 29 27
20 46 21 55 9 62 -26 15 -46 39 -41 49 7 11 26 12 23 2 -3 -9 5 -13 30 -13 13
0 11 5 -11 24 -24 20 -26 27 -17 50 5 14 17 26 26 26 13 0 14 3 5 13 -13 16 4
37 30 37 20 0 29 11 45 58 11 30 2 48 -9 20 -3 -8 -6 -6 -6 5 -1 9 4 17 11 17
7 0 5 5 -4 13 -11 8 -13 18 -8 32 7 17 9 17 9 3 1 -10 7 -18 15 -18 18 0 9 39
-11 47 -21 8 -13 83 9 83 14 0 15 -5 7 -32 -11 -40 -11 -48 -1 -48 6 0 42 121
42 143 0 14 -38 7 -44 -9z m-30 -290 c-3 -8 -10 -12 -16 -9 -7 4 -6 14 2 28
12 24 24 8 14 -19z m-66 -10 c0 -8 -5 -12 -10 -9 -6 4 -8 11 -5 16 9 14 15 11
15 -7z"/>
<path d="M8962 6960 c-12 -12 -22 -26 -22 -32 0 -6 12 1 27 16 31 31 27 45 -5
16z"/>
<path d="M8931 6893 c3 -20 -2 -27 -11 -13 -13 21 -22 7 -12 -20 9 -23 9 -23
31 9 18 25 19 31 7 31 -9 0 -15 -3 -15 -7z"/>
<path d="M8855 6790 c3 -5 11 -10 16 -10 6 0 7 5 4 10 -3 6 -11 10 -16 10 -6
0 -7 -4 -4 -10z"/>
<path d="M8827 6763 c-4 -3 -7 -11 -7 -17 0 -6 5 -5 12 2 6 6 9 14 7 17 -3 3
-9 2 -12 -2z"/>
<path d="M8820 6710 c0 -6 7 -10 15 -10 8 0 15 2 15 4 0 2 -7 6 -15 10 -8 3
-15 1 -15 -4z"/>
<path d="M8807 6643 c-4 -3 -7 -18 -6 -32 0 -16 3 -20 6 -11 3 8 11 18 17 22
8 5 8 10 0 18 -6 6 -13 7 -17 3z"/>
<path d="M8740 6610 c0 -12 28 -25 36 -17 3 3 -4 10 -15 17 -15 7 -21 7 -21 0z"/>
<path d="M8710 6590 c0 -5 5 -10 11 -10 5 0 7 5 4 10 -3 6 -8 10 -11 10 -2 0
-4 -4 -4 -10z"/>
<path d="M8666 6555 c4 -10 13 -13 25 -10 24 8 24 -7 1 -28 -24 -22 -32 -21
-32 1 0 36 -13 31 -46 -15 -32 -45 -36 -67 -11 -57 8 3 12 -5 11 -23 0 -16 -2
-30 -4 -33 -5 -10 -6 -60 0 -60 8 0 45 63 42 73 -1 4 3 7 8 7 6 0 10 9 10 20
0 10 9 24 20 30 11 6 20 21 20 34 0 13 7 26 15 30 22 8 18 24 -7 31 -58 17
-58 17 -52 0z m-26 -72 c0 -19 -3 -24 -10 -17 -6 6 -8 18 -4 27 9 24 14 21 14
-10z"/>
<path d="M8707 6443 c-4 -3 -7 -13 -7 -22 1 -13 3 -13 11 2 11 19 8 33 -4 20z"/>
<path d="M8560 6415 c-10 -12 -10 -15 3 -15 19 0 31 16 18 24 -5 3 -14 -1 -21
-9z"/>
<path d="M8676 6385 c4 -8 10 -12 15 -9 14 8 10 24 -6 24 -9 0 -12 -6 -9 -15z"/>
<path d="M4925 12790 c3 -5 11 -10 16 -10 6 0 7 5 4 10 -3 6 -11 10 -16 10 -6
0 -7 -4 -4 -10z"/>
<path d="M4490 12261 c0 -5 5 -13 10 -16 6 -3 10 -2 10 4 0 5 -4 13 -10 16 -5
3 -10 2 -10 -4z"/>
<path d="M2775 11330 c-3 -5 -1 -10 4 -10 6 0 11 5 11 10 0 6 -2 10 -4 10 -3
0 -8 -4 -11 -10z"/>
<path d="M2385 8920 c3 -5 8 -10 11 -10 2 0 4 5 4 10 0 6 -5 10 -11 10 -5 0
-7 -4 -4 -10z"/>
<path d="M3435 9711 c-86 -21 -167 -88 -212 -174 -25 -46 -28 -63 -28 -152 0
-87 3 -107 26 -155 36 -77 80 -124 147 -157 50 -24 69 -28 147 -28 111 0 174
25 238 94 63 67 82 124 82 246 0 87 -3 107 -27 157 -53 114 -157 179 -281 177
-34 -1 -75 -4 -92 -8z"/>
<path d="M3631 8844 c0 -11 3 -14 6 -6 3 7 2 16 -1 19 -3 4 -6 -2 -5 -13z"/>
<path d="M7300 9365 l0 -328 123 6 c152 8 216 26 272 78 67 62 90 124 90 244
0 89 -3 106 -28 157 -56 114 -144 158 -334 166 l-123 5 0 -328z"/>
<path d="M7420 7949 c0 -5 5 -7 10 -4 6 3 10 8 10 11 0 2 -4 4 -10 4 -5 0 -10
-5 -10 -11z"/>
<path d="M4112 8198 c-28 -73 -54 -141 -58 -150 -6 -17 3 -18 104 -18 61 0
113 4 116 8 2 4 -8 37 -23 72 -15 36 -38 97 -51 135 -13 39 -27 74 -30 78 -4
4 -30 -52 -58 -125z"/>
<path d="M1524 6548 c-4 -7 -3 -8 4 -4 7 4 12 1 12 -8 0 -8 5 -18 10 -21 6 -4
10 5 10 19 0 27 -23 36 -36 14z"/>
<path d="M1470 6518 c0 -4 9 -8 20 -8 11 0 20 4 20 9 0 6 -9 9 -20 8 -11 -1
-20 -5 -20 -9z"/>
<path d="M1585 6501 c-3 -6 -2 -11 3 -11 5 0 13 -10 17 -22 4 -14 8 -18 11
-11 7 17 -22 58 -31 44z"/>
<path d="M1566 6438 c-19 -26 -20 -38 -5 -38 5 0 7 4 4 10 -3 5 3 15 15 22 21
13 27 28 11 28 -6 0 -17 -10 -25 -22z"/>
<path d="M1630 6428 c0 -19 26 -42 34 -30 3 5 -3 17 -14 27 -17 15 -20 16 -20
3z"/>
<path d="M2625 7011 c-3 -6 -5 -11 -3 -12 36 -8 49 -7 46 3 -6 17 -34 22 -43
9z"/>
<path d="M7555 7010 c-3 -5 -1 -10 4 -10 6 0 11 5 11 10 0 6 -2 10 -4 10 -3 0
-8 -4 -11 -10z"/>
<path d="M2090 7001 c0 -10 36 -21 44 -14 3 3 3 10 0 14 -7 12 -44 12 -44 0z"/>
<path d="M2680 7000 c0 -5 5 -10 10 -10 6 0 10 5 10 10 0 6 -4 10 -10 10 -5 0
-10 -4 -10 -10z"/>
<path d="M2710 7000 c0 -5 4 -10 9 -10 6 0 13 5 16 10 3 6 -1 10 -9 10 -9 0
-16 -4 -16 -10z"/>
<path d="M8408 6460 c-7 -24 -3 -38 8 -28 3 4 4 17 2 30 l-3 23 -7 -25z"/>
<path d="M8390 6288 c0 -15 5 -30 10 -33 6 -4 8 -11 5 -16 -4 -5 -1 -9 4 -9
15 0 14 23 -4 56 l-15 29 0 -27z"/>
<path d="M8409 6193 c-1 -10 -1 -24 0 -30 1 -7 -3 -13 -9 -13 -5 0 -10 -16
-10 -35 0 -24 5 -35 15 -35 12 0 15 14 15 65 0 36 -2 65 -5 65 -3 0 -6 -8 -6
-17z"/>
<path d="M2448 6873 c6 -2 18 -2 25 0 6 3 1 5 -13 5 -14 0 -19 -2 -12 -5z"/>
<path d="M2528 6871 c19 -12 120 -13 126 -2 4 5 -26 9 -66 10 -44 0 -68 -3
-60 -8z"/>
<path d="M2960 6870 c0 -5 5 -10 10 -10 6 0 10 5 10 10 0 6 -4 10 -10 10 -5 0
-10 -4 -10 -10z"/>
<path d="M2998 6873 c7 -3 16 -2 19 1 4 3 -2 6 -13 5 -11 0 -14 -3 -6 -6z"/>
<path d="M5130 6075 c1 -26 2 -28 11 -12 8 14 8 22 0 30 -8 8 -11 3 -11 -18z"/>
<path d="M2541 6572 c-47 -23 -61 -49 -49 -89 26 -96 198 -85 198 12 0 42 -24
72 -68 85 -47 13 -41 13 -81 -8z"/>
<path d="M2572 6307 c-27 -28 -27 -50 -2 -102 11 -22 19 -46 20 -53 0 -25 21
0 46 55 30 69 30 77 -2 102 -33 26 -36 26 -62 -2z"/>
<path d="M2480 6140 c0 -5 5 -10 11 -10 5 0 7 5 4 10 -3 6 -8 10 -11 10 -2 0
-4 -4 -4 -10z"/>
<path d="M3439 6457 c-42 -32 -51 -102 -19 -154 25 -41 63 -52 105 -29 89 48
63 197 -33 196 -21 0 -44 -6 -53 -13z"/>
<path d="M7815 6471 c-3 -2 -5 -28 -5 -58 0 -51 1 -53 28 -53 56 0 93 50 66
88 -12 18 -78 35 -89 23z"/>
<path d="M5972 5718 c5 -15 65 -21 73 -8 3 5 20 4 38 -1 17 -5 40 -9 51 -9 15
0 16 3 6 15 -16 20 -174 22 -168 3z"/>
<path d="M2320 5715 c0 -8 7 -15 15 -15 8 0 15 4 15 9 0 5 -7 11 -15 15 -9 3
-15 0 -15 -9z"/>
<path d="M2880 5720 c0 -12 2 -12 103 -15 76 -2 111 9 65 20 -30 8 -91 2 -99
-9 -4 -4 -16 -3 -27 3 -26 14 -42 14 -42 1z"/>
<path d="M2467 5400 c-3 -11 -2 -22 3 -25 4 -3 10 4 13 15 3 11 2 22 -3 25 -4
3 -10 -4 -13 -15z"/>
<path d="M2523 5366 c2 -39 8 -44 26 -23 8 11 6 19 -8 36 l-20 23 2 -36z"/>
<path d="M2486 5343 c-3 -10 -9 -25 -12 -33 -4 -8 -3 -12 1 -8 5 5 15 -1 22
-12 8 -11 18 -18 22 -15 11 6 1 55 -10 55 -5 0 -6 7 -3 15 4 8 2 15 -4 15 -5
0 -12 -8 -16 -17z"/>
<path d="M7570 5345 c0 -8 2 -15 4 -15 2 0 6 7 10 15 3 8 1 15 -4 15 -6 0 -10
-7 -10 -15z"/>
<path d="M7686 5326 c3 -9 11 -16 16 -16 13 0 5 23 -10 28 -7 2 -10 -2 -6 -12z"/>
<path d="M7535 5310 c3 -5 8 -10 11 -10 2 0 4 5 4 10 0 6 -5 10 -11 10 -5 0
-7 -4 -4 -10z"/>
<path d="M2550 5300 c0 -5 5 -10 11 -10 5 0 7 5 4 10 -3 6 -8 10 -11 10 -2 0
-4 -4 -4 -10z"/>
<path d="M7240 5300 c0 -5 7 -10 15 -10 8 0 15 5 15 10 0 6 -7 10 -15 10 -8 0
-15 -4 -15 -10z"/>
<path d="M7650 5300 c0 -5 5 -10 10 -10 6 0 10 5 10 10 0 6 -4 10 -10 10 -5 0
-10 -4 -10 -10z"/>
<path d="M7600 5279 c0 -5 5 -7 10 -4 6 3 10 8 10 11 0 2 -4 4 -10 4 -5 0 -10
-5 -10 -11z"/>
<path d="M7577 5261 c3 -12 9 -21 14 -21 14 0 11 16 -5 29 -12 10 -13 8 -9 -8z"/>
<path d="M7225 5250 c-3 -5 -1 -10 4 -10 6 0 11 5 11 10 0 6 -2 10 -4 10 -3 0
-8 -4 -11 -10z"/>
<path d="M7385 5240 c3 -5 10 -10 16 -10 5 0 9 5 9 10 0 6 -7 10 -16 10 -8 0
-12 -4 -9 -10z"/>
<path d="M7530 5241 c0 -5 -9 -11 -20 -14 -30 -8 -24 -29 7 -25 19 2 27 9 28
26 1 12 -2 22 -7 22 -4 0 -8 -4 -8 -9z"/>
<path d="M7440 5218 c0 -7 4 -19 9 -27 11 -17 23 1 15 23 -7 19 -24 21 -24 4z"/>
<path d="M7390 5170 c0 -5 5 -10 10 -10 6 0 10 5 10 10 0 6 -4 10 -10 10 -5 0
-10 -4 -10 -10z"/>
<path d="M7145 5150 c-10 -11 -13 -20 -8 -20 13 0 38 29 31 35 -3 3 -13 -4
-23 -15z"/>
<path d="M7285 5120 c-3 -5 -2 -10 4 -10 5 0 13 5 16 10 3 6 2 10 -4 10 -5 0
-13 -4 -16 -10z"/>
<path d="M3080 5109 c0 -5 5 -7 10 -4 6 3 10 8 10 11 0 2 -4 4 -10 4 -5 0 -10
-5 -10 -11z"/>
<path d="M6895 5100 c-3 -5 -1 -10 4 -10 6 0 11 5 11 10 0 6 -2 10 -4 10 -3 0
-8 -4 -11 -10z"/>
<path d="M6850 5070 c-12 -8 -11 -10 8 -10 12 0 22 5 22 10 0 13 -11 13 -30 0z"/>
<path d="M3008 5064 c-5 -4 -8 -16 -8 -28 0 -14 3 -17 11 -9 6 6 9 19 7 28 -1
9 -6 13 -10 9z"/>
<path d="M3045 5059 c-10 -15 3 -25 16 -12 7 7 7 13 1 17 -6 3 -14 1 -17 -5z"/>
<path d="M3220 5059 c0 -5 5 -7 10 -4 6 3 10 8 10 11 0 2 -4 4 -10 4 -5 0 -10
-5 -10 -11z"/>
<path d="M3266 5063 c-11 -11 -6 -23 9 -23 8 0 15 4 15 9 0 13 -16 22 -24 14z"/>
<path d="M6930 5045 c-18 -21 -3 -32 16 -13 10 9 12 18 6 22 -5 3 -15 -1 -22
-9z"/>
<path d="M6735 5030 c-3 -5 -1 -10 4 -10 6 0 11 5 11 10 0 6 -2 10 -4 10 -3 0
-8 -4 -11 -10z"/>
<path d="M3050 4980 c0 -5 7 -10 16 -10 8 0 12 5 9 10 -3 6 -10 10 -16 10 -5
0 -9 -4 -9 -10z"/>
<path d="M3468 4953 c7 -3 16 -2 19 1 4 3 -2 6 -13 5 -11 0 -14 -3 -6 -6z"/>
<path d="M6840 4949 c0 -5 5 -7 10 -4 6 3 10 8 10 11 0 2 -4 4 -10 4 -5 0 -10
-5 -10 -11z"/>
<path d="M3107 4943 c-4 -3 -7 -11 -7 -17 0 -6 5 -5 12 2 6 6 9 14 7 17 -3 3
-9 2 -12 -2z"/>
<path d="M6930 4932 c0 -5 7 -13 16 -16 10 -4 14 -1 12 6 -5 15 -28 23 -28 10z"/>
<path d="M3760 4890 c-12 -23 -7 -25 21 -9 11 5 17 14 14 20 -10 15 -23 11
-35 -11z"/>
<path d="M3376 4883 c-3 -3 -6 -19 -6 -35 0 -24 4 -29 22 -26 29 4 36 28 8 28
-18 0 -20 3 -11 14 12 14 0 32 -13 19z"/>
<path d="M3630 4844 c0 -8 5 -12 10 -9 6 3 10 10 10 16 0 5 -4 9 -10 9 -5 0
-10 -7 -10 -16z"/>
<path d="M3905 4850 c-3 -5 -1 -10 4 -10 6 0 11 5 11 10 0 6 -2 10 -4 10 -3 0
-8 -4 -11 -10z"/>
<path d="M3487 4825 c-20 -7 -37 -9 -37 -4 0 5 -4 9 -8 9 -5 0 -9 -15 -9 -32
0 -18 2 -25 4 -15 5 20 4 20 39 6 31 -11 74 4 74 27 0 19 -23 23 -63 9z"/>
<path d="M3587 4823 c-12 -11 -8 -23 8 -23 8 0 15 7 15 15 0 16 -12 20 -23 8z"/>
<path d="M6856 4815 c-3 -9 0 -15 9 -15 16 0 20 16 6 24 -5 3 -11 -1 -15 -9z"/>
<path d="M3350 4796 c0 -9 5 -16 10 -16 6 0 10 4 10 9 0 6 -4 13 -10 16 -5 3
-10 -1 -10 -9z"/>
<path d="M3583 4740 c-31 -13 -29 -20 7 -20 20 0 30 5 30 15 0 17 -5 18 -37 5z"/>
<path d="M4010 4729 c0 -5 5 -7 10 -4 6 3 10 8 10 11 0 2 -4 4 -10 4 -5 0 -10
-5 -10 -11z"/>
<path d="M3710 4711 c0 -6 5 -13 10 -16 6 -3 10 1 10 9 0 9 -4 16 -10 16 -5 0
-10 -4 -10 -9z"/>
<path d="M6116 4671 c-4 -7 -5 -15 -2 -18 9 -9 19 4 14 18 -4 11 -6 11 -12 0z"/>
<path d="M3760 4638 c0 -19 2 -20 10 -8 13 19 13 30 0 30 -5 0 -10 -10 -10
-22z"/>
<path d="M3795 4640 c3 -5 10 -10 16 -10 5 0 9 5 9 10 0 6 -7 10 -16 10 -8 0
-12 -4 -9 -10z"/>
<path d="M5868 4643 c7 -3 16 -2 19 1 4 3 -2 6 -13 5 -11 0 -14 -3 -6 -6z"/>
<path d="M3905 4610 c-3 -5 -1 -10 4 -10 6 0 11 5 11 10 0 6 -2 10 -4 10 -3 0
-8 -4 -11 -10z"/>
<path d="M3953 4584 c-3 -8 -1 -20 6 -27 8 -8 11 -7 11 5 0 9 5 18 12 20 7 3
5 7 -5 11 -11 4 -20 1 -24 -9z"/>
<path d="M4100 4550 c0 -5 5 -10 10 -10 6 0 10 5 10 10 0 6 -4 10 -10 10 -5 0
-10 -4 -10 -10z"/>
<path d="M5673 4523 c-22 -4 -22 -6 -7 -29 21 -31 29 -30 48 6 16 33 14 34
-41 23z"/>
<path d="M5640 4479 c0 -5 5 -7 10 -4 6 3 10 8 10 11 0 2 -4 4 -10 4 -5 0 -10
-5 -10 -11z"/>
<path d="M5585 4460 c-3 -5 -2 -10 4 -10 5 0 13 5 16 10 3 6 2 10 -4 10 -5 0
-13 -4 -16 -10z"/>
<path d="M4960 4446 c0 -9 30 -14 35 -6 4 6 -3 10 -14 10 -12 0 -21 -2 -21 -4z"/>
<path d="M5387 12982 c-15 -2 -25 -8 -22 -13 8 -12 52 -12 60 0 7 13 -5 17
-38 13z"/>
<path d="M6295 12880 c3 -5 8 -10 11 -10 2 0 4 5 4 10 0 6 -5 10 -11 10 -5 0
-7 -4 -4 -10z"/>
<path d="M8524 12095 c-10 -8 -14 -14 -9 -15 15 0 40 18 34 24 -3 3 -14 -1
-25 -9z"/>
<path d="M9160 11606 c0 -2 7 -7 16 -10 8 -3 12 -2 9 4 -6 10 -25 14 -25 6z"/>
<path d="M9340 7110 c0 -5 5 -10 11 -10 5 0 7 5 4 10 -3 6 -8 10 -11 10 -2 0
-4 -4 -4 -10z"/>
<path d="M9310 7095 c0 -8 2 -15 4 -15 2 0 6 7 10 15 3 8 1 15 -4 15 -6 0 -10
-7 -10 -15z"/>
<path d="M1432 5820 c0 -14 2 -19 5 -12 2 6 2 18 0 25 -3 6 -5 1 -5 -13z"/>
<path d="M8347 5473 c-10 -10 -8 -43 2 -43 9 0 21 24 21 41 0 11 -14 12 -23 2z"/>
<path d="M7840 4945 c0 -8 5 -15 10 -15 6 0 10 7 10 15 0 8 -4 15 -10 15 -5 0
-10 -7 -10 -15z"/>
<path d="M2945 4630 c3 -5 8 -10 11 -10 2 0 4 5 4 10 0 6 -5 10 -11 10 -5 0
-7 -4 -4 -10z"/>
<path d="M5208 3913 c6 -2 18 -2 25 0 6 3 1 5 -13 5 -14 0 -19 -2 -12 -5z"/>
</g>
</svg>
