 
<svg version="1.0" xmlns="http://www.w3.org/2000/svg"
 width="1024.000000pt" height="1536.000000pt" viewBox="0 0 1024.000000 1536.000000"
 preserveAspectRatio="xMidYMid meet">

<g transform="translate(0.000000,1536.000000) scale(0.100000,-0.100000)"
fill="#000000" stroke="none">
<path d="M2928 11713 c7 -3 16 -2 19 1 4 3 -2 6 -13 5 -11 0 -14 -3 -6 -6z"/>
<path d="M3115 11600 c-164 -9 -257 -27 -416 -80 -232 -77 -403 -183 -585
-365 -219 -217 -353 -464 -426 -783 l-22 -97 -4 -2265 c-3 -2522 -7 -2382 64
-2597 109 -329 295 -568 604 -778 101 -69 112 -78 45 -41 -146 82 -351 270
-468 429 -75 102 -148 246 -192 382 -75 230 -69 18 -72 2510 -3 1560 -1 2269
7 2334 30 262 134 527 296 752 74 102 266 288 368 357 75 50 95 73 28 32 -45
-27 -53 -25 -17 6 29 24 29 25 11 39 -18 13 -15 20 7 16 4 0 7 3 7 8 0 4 29
23 65 41 74 38 81 52 9 21 -193 -86 -485 -342 -615 -541 -154 -234 -222 -410
-281 -727 l-22 -118 -4 -2130 c-2 -1495 0 -2164 8 -2245 31 -326 130 -599 301
-830 140 -190 361 -385 553 -492 28 -15 46 -28 40 -28 -18 0 -222 126 -300
185 -163 126 -353 356 -449 546 -48 94 -105 251 -125 342 -7 31 -15 55 -18 52
-15 -15 69 -266 129 -388 163 -328 465 -623 785 -768 262 -118 450 -156 834
-169 290 -9 3483 -9 3780 1 319 10 535 64 806 200 224 113 471 324 613 524 59
85 170 290 185 345 4 14 -18 -27 -49 -90 -88 -180 -172 -299 -309 -436 -161
-161 -283 -249 -474 -344 -112 -55 -117 -50 -7 8 203 106 363 229 513 395 145
160 236 316 300 512 22 66 42 134 46 150 l5 30 -14 -30 -14 -30 -1 30 c0 23
-3 27 -10 15 -6 -9 -10 -11 -10 -3 0 7 -7 10 -17 6 -12 -5 -15 -2 -10 10 4 10
2 14 -7 11 -10 -4 -10 12 0 78 7 46 13 97 12 113 -1 26 -1 27 -5 5 -45 -276
-111 -458 -236 -646 -170 -257 -438 -471 -719 -575 -45 -16 -83 -28 -85 -26
-2 2 34 19 79 37 116 45 180 79 284 149 340 227 560 555 637 951 21 103 21
132 22 1855 1 963 -1 1986 -5 2275 -7 509 -8 528 -32 640 -77 353 -277 681
-543 891 -101 79 -239 164 -332 203 -219 93 -372 123 -668 131 -318 8 -3730
13 -3880 5z m4005 -35 c0 -9 -9 -15 -22 -15 -17 0 -20 3 -9 9 11 7 10 10 -5
14 -13 3 -11 5 9 6 18 1 27 -4 27 -14z m37 -1 c-3 -3 -12 -4 -19 -1 -8 3 -5 6
6 6 11 1 17 -2 13 -5z m168 -14 c15 -6 40 -10 56 -10 36 0 150 -37 235 -76 32
-15 64 -28 71 -30 23 -4 165 -89 196 -117 32 -27 32 -27 -23 4 -30 17 -56 35
-58 40 -2 5 -12 9 -22 9 -10 0 -21 4 -24 8 -21 34 -282 128 -403 146 -40 5
-73 13 -73 17 0 3 -11 4 -24 2 -13 -3 -37 2 -52 11 -28 15 -28 15 33 10 34 -2
74 -9 88 -14z m-377 3 c-10 -2 -26 -2 -35 0 -10 3 -2 5 17 5 19 0 27 -2 18 -5z
m115 0 c-7 -2 -19 -2 -25 0 -7 3 -2 5 12 5 14 0 19 -2 13 -5z m-468 -23 l700
-7 107 -26 c528 -127 930 -541 1058 -1091 37 -158 40 -251 38 -1153 -2 -701
-4 -791 -8 -448 -3 237 -6 422 -8 413 -1 -10 -6 -18 -12 -18 -7 0 -11 -194
-12 -557 -2 -364 -4 -483 -8 -343 -3 118 -6 604 -8 1080 -3 954 -2 937 -68
1140 -39 123 -122 291 -191 387 -65 93 -202 233 -294 302 -175 132 -385 222
-599 257 -123 20 -454 24 -2612 27 -927 1 -1685 4 -1683 6 2 2 68 7 147 11
l143 9 -165 -3 c-177 -3 -187 -1 -45 13 113 10 2581 12 3520 1z m-3648 -26
c-3 -3 -12 -4 -19 -1 -8 3 -5 6 6 6 11 1 17 -2 13 -5z m26 -21 c-7 -2 -21 -2
-30 0 -10 3 -4 5 12 5 17 0 24 -2 18 -5z m-56 -9 c-3 -3 -12 -4 -19 -1 -8 3
-5 6 6 6 11 1 17 -2 13 -5z m3613 -4 c0 -5 -7 -10 -15 -10 -8 0 -15 -5 -15
-11 0 -8 -4 -9 -13 0 -8 6 -17 8 -20 4 -4 -3 -7 -1 -7 5 0 6 15 13 33 15 17 2
33 5 35 5 1 1 2 -2 2 -8z m278 0 c26 0 41 -4 37 -10 -3 -5 -1 -10 4 -10 6 0
11 4 11 9 0 5 14 11 30 13 17 3 30 1 30 -4 0 -4 -7 -8 -15 -8 -8 0 -15 -4 -15
-10 0 -5 -7 -7 -16 -3 -14 5 -15 3 -4 -18 l13 -23 8 22 c5 12 15 22 23 22 8 0
16 5 18 11 4 13 231 13 308 -1 30 -5 73 -12 95 -14 21 -2 41 -8 43 -14 1 -5
11 -8 20 -6 9 2 37 -2 62 -10 41 -12 45 -16 42 -42 -2 -16 -8 -30 -13 -32 -12
-5 -12 -22 0 -22 5 0 15 16 22 35 7 19 19 35 27 35 23 0 73 -30 66 -41 -4 -6
-11 -5 -22 3 -12 10 -16 10 -19 1 -3 -7 -9 -13 -15 -13 -6 0 -5 6 2 15 18 22
3 32 -17 12 -15 -15 -15 -18 -1 -34 12 -13 14 -23 7 -36 -11 -20 6 -51 22 -41
11 6 11 1 3 -20 -3 -9 -10 -16 -15 -16 -4 0 -6 7 -3 15 4 8 1 15 -4 15 -6 0
-17 7 -26 15 -9 9 -17 11 -21 5 -3 -5 -1 -10 6 -10 6 0 9 -8 6 -20 -3 -11 -1
-22 3 -25 5 -3 11 3 13 12 4 14 5 13 6 -4 0 -12 7 -23 14 -26 6 -2 9 -8 5 -12
-4 -4 -15 -2 -24 5 -12 11 -17 11 -23 2 -4 -7 -16 -10 -27 -7 -18 6 -18 6 1
-9 16 -14 18 -20 7 -36 -17 -28 -15 -31 16 -24 21 4 24 3 12 -5 -20 -14 -53
-14 -68 1 -16 16 -15 41 1 35 8 -3 20 -1 28 4 11 7 9 9 -8 9 -12 0 -28 6 -36
14 -16 16 -37 4 -37 -22 0 -7 -4 -10 -10 -7 -9 6 -14 -8 -11 -27 1 -10 -3 -10
-23 -2 -9 3 -13 10 -10 15 9 15 -8 10 -29 -8 -20 -17 -20 -17 -14 0 4 10 7 23
7 29 0 6 9 8 20 5 11 -3 25 2 32 10 11 14 10 15 -7 10 -31 -10 -47 6 -39 37 7
30 24 45 24 21 0 -9 5 -13 10 -10 6 3 10 15 10 26 0 11 -4 17 -10 14 -5 -3
-10 1 -10 9 0 9 -4 16 -10 16 -5 0 -10 5 -10 11 0 8 4 8 14 0 7 -6 24 -10 37
-9 28 4 39 -30 16 -47 -11 -8 -13 -16 -6 -26 7 -11 9 -11 9 -1 0 7 6 20 14 28
24 24 -6 77 -34 59 -10 -6 -22 24 -14 36 3 5 19 0 35 -11 16 -12 30 -18 30
-13 1 4 3 18 4 30 1 12 5 28 8 37 4 11 1 13 -10 9 -10 -4 -14 -2 -10 4 4 6 -4
8 -21 5 -17 -4 -21 -7 -11 -10 9 -1 19 -13 21 -26 4 -22 3 -22 -20 -10 -14 7
-30 10 -35 7 -6 -4 -8 1 -4 11 6 14 3 17 -9 12 -8 -3 -25 -1 -37 5 -16 9 -22
9 -25 0 -3 -9 -7 -9 -18 0 -11 9 -14 8 -14 -4 0 -8 11 -22 24 -31 24 -15 24
-17 10 -46 -9 -16 -19 -30 -24 -30 -19 0 -39 13 -34 22 3 5 11 5 19 -2 9 -8
14 -6 19 5 4 11 1 15 -11 13 -9 -2 -18 3 -20 10 -3 6 2 12 11 12 9 0 16 5 16
10 0 15 -22 12 -63 -10 -44 -24 -77 -19 -77 11 0 11 4 18 9 15 12 -8 41 3 41
15 0 4 -7 6 -15 3 -17 -7 -18 -3 -9 20 3 9 10 13 15 10 5 -3 21 4 35 15 19 15
22 21 11 21 -9 0 -19 -4 -22 -10 -3 -5 -11 -10 -16 -10 -6 0 -7 4 -4 10 3 6
-1 7 -9 4 -9 -3 -16 -15 -16 -26 0 -13 -5 -18 -14 -15 -10 4 -13 1 -9 -9 4
-11 0 -15 -13 -12 -12 2 -18 -2 -16 -10 1 -8 -2 -11 -8 -7 -14 9 -13 -8 2 -23
9 -9 7 -13 -6 -18 -10 -4 -22 -2 -29 5 -8 8 -8 11 1 11 7 0 12 9 12 19 0 11 4
23 10 26 6 4 4 15 -6 30 -9 13 -13 29 -9 35 3 5 -2 10 -14 10 -11 0 -23 -5
-27 -12 -5 -7 -3 -8 5 -3 10 6 11 3 2 -13 -14 -26 -14 -32 -1 -32 6 0 10 7 10
16 0 8 5 12 10 9 8 -5 8 -11 1 -19 -6 -7 -9 -15 -6 -18 3 -2 -2 -5 -10 -5 -14
0 -28 25 -24 43 4 23 -3 34 -21 34 -12 0 -17 -5 -14 -13 3 -8 -3 -20 -12 -28
-16 -12 -17 -12 -11 4 3 9 2 17 -2 17 -12 0 -23 -29 -15 -41 3 -5 -5 -5 -19 0
-13 5 -36 8 -51 7 -22 -3 -24 -1 -14 11 8 10 13 11 18 3 5 -8 9 -7 13 3 7 19
-21 31 -37 18 -14 -12 -56 -3 -56 11 0 5 -5 6 -10 3 -15 -10 -2 -25 22 -25 17
0 18 -3 8 -15 -7 -8 -16 -12 -21 -9 -5 3 -19 -5 -30 -18 l-20 -23 11 24 c10
19 10 22 -2 15 -7 -5 -24 -9 -37 -9 -13 0 -26 -5 -28 -11 -2 -7 5 -10 21 -7
22 5 24 2 18 -18 -5 -19 -7 -21 -10 -6 -2 10 -11 16 -20 15 -25 -4 -28 38 -4
53 25 15 18 39 -10 34 -15 -3 -17 -1 -10 8 6 7 33 11 69 10 32 -1 77 -2 101
-3z m-628 -4 c0 -2 -11 -6 -25 -8 -14 -3 -25 -1 -25 3 0 5 11 9 25 9 14 0 25
-2 25 -4z m266 -11 c-3 -8 -1 -15 5 -15 6 0 -3 -13 -19 -30 -17 -16 -34 -30
-39 -30 -4 0 -1 4 7 10 8 5 11 12 7 16 -3 4 -12 2 -19 -4 -14 -11 -54 9 -41
21 3 4 12 -1 19 -11 11 -16 13 -16 19 -1 4 11 13 15 28 11 20 -5 21 -4 8 12
-8 9 -20 15 -27 12 -7 -3 -16 -1 -19 4 -10 17 -45 12 -39 -5 5 -11 -1 -15 -19
-15 -14 0 -28 -6 -30 -12 -3 -8 -6 -6 -6 5 -1 15 10 21 31 18 4 0 5 6 2 13 -5
12 8 15 66 15 59 0 71 -3 66 -14z m171 -5 c-1 -11 -8 -20 -15 -20 -11 0 -12 3
-3 14 10 12 6 15 -26 19 l-38 4 42 1 c36 2 42 -1 40 -18z m-43 -12 c-3 -4 0
-8 6 -8 7 0 10 -7 6 -15 -3 -8 -1 -15 4 -15 6 0 10 5 10 12 0 6 2 9 5 6 14
-13 -9 -37 -33 -34 -21 1 -26 7 -24 21 2 11 4 25 4 31 1 6 7 11 14 11 7 0 11
-4 8 -9z m-34 -7 c0 -13 -22 -29 -53 -36 -17 -5 -27 -3 -27 4 0 6 9 11 20 11
10 0 25 7 32 15 15 16 28 19 28 6z m406 -46 c14 -13 13 -15 -5 -15 -12 0 -21
6 -21 15 0 8 3 15 6 15 3 0 12 -7 20 -15z m-436 -9 c0 -2 -7 -7 -16 -10 -8 -3
-12 -2 -9 4 6 10 25 14 25 6z m-75 -16 c-3 -5 -14 -10 -23 -10 -15 0 -15 2 -2
10 20 13 33 13 25 0z m110 0 c-3 -5 -14 -10 -23 -10 -15 0 -15 2 -2 10 20 13
33 13 25 0z m435 0 c0 -5 -5 -10 -11 -10 -5 0 -7 5 -4 10 3 6 8 10 11 10 2 0
4 -4 4 -10z m-4690 -4 c0 -2 -7 -6 -15 -10 -8 -3 -15 -1 -15 4 0 6 7 10 15 10
8 0 15 -2 15 -4z m4631 -15 c-7 -5 -11 -14 -7 -20 5 -7 1 -9 -9 -5 -14 6 -14
8 1 25 10 11 20 17 23 14 3 -4 -1 -10 -8 -14z m851 -63 c13 -7 43 -29 68 -48
25 -19 62 -48 83 -64 33 -24 36 -30 25 -44 -12 -15 -11 -16 5 -3 16 12 23 8
68 -40 54 -58 103 -121 79 -103 -12 9 -18 9 -27 -1 -7 -8 -9 -16 -4 -20 5 -3
12 1 15 7 3 7 4 0 0 -17 -4 -23 -3 -27 7 -18 17 17 40 -6 28 -29 -7 -12 -4
-18 11 -23 22 -7 24 -13 11 -34 -5 -7 -14 -10 -20 -7 -6 4 -8 12 -5 18 5 7 1
9 -9 5 -10 -3 -17 -3 -17 1 0 11 -70 7 -78 -4 -4 -5 -16 -16 -27 -24 -19 -14
-19 -14 -6 3 11 13 11 20 1 32 -6 8 -10 20 -7 27 3 8 6 6 6 -6 1 -15 6 -17 29
-11 15 3 32 11 37 17 7 7 3 8 -12 3 -14 -4 -23 -2 -23 4 0 6 5 11 10 11 6 0
10 5 10 12 0 6 -7 5 -18 -5 -14 -12 -21 -14 -29 -6 -9 9 -16 7 -28 -5 -19 -18
-18 -18 -39 -10 -9 3 -13 10 -10 15 3 5 10 7 15 3 6 -3 19 3 30 15 25 27 16
26 -44 -3 -26 -13 -42 -17 -36 -10 6 7 18 16 27 19 10 2 23 14 30 25 12 20 11
20 -7 11 -11 -6 -23 -16 -26 -21 -8 -13 -25 -13 -25 1 0 5 5 7 10 4 12 -7 12
1 4 44 -5 24 -10 29 -19 21 -11 -9 -12 -7 -8 9 3 12 10 21 15 21 5 0 6 5 3 10
-3 6 -11 10 -16 10 -6 0 -7 -4 -4 -10 9 -14 -2 -12 -29 5 -33 22 -24 55 15 55
15 0 30 4 33 8 3 5 -8 6 -25 4 -30 -4 -37 6 -17 26 7 7 8 12 4 12 -4 0 -17
-10 -28 -22 -11 -13 -18 -17 -15 -8 5 19 -19 43 -35 35 -7 -4 1 5 17 20 l30
26 -30 -6 c-16 -4 -36 -9 -44 -11 -10 -3 -12 2 -7 21 7 27 -2 32 -23 13 -11
-10 -13 -10 -7 0 4 6 3 12 -1 12 -5 0 -18 7 -29 15 -16 12 -17 14 -2 15 9 0
23 -7 31 -15 13 -13 17 -12 29 2 11 15 11 16 -5 10 -13 -5 -21 0 -29 18 -11
25 -28 34 -28 15 0 -5 -5 -10 -11 -10 -6 0 -9 7 -5 15 3 8 1 15 -3 15 -5 0
-11 -5 -13 -10 -2 -6 -14 -12 -28 -15 l-25 -4 23 16 c12 8 22 22 22 29 0 13
31 -1 152 -68z m-2312 47 c199 -38 340 -79 450 -128 284 -127 454 -239 635
-421 109 -109 225 -263 299 -394 82 -145 164 -348 148 -364 -5 -5 -42 -8 -82
-6 l-74 3 -50 111 c-109 239 -217 394 -383 554 -220 212 -492 371 -778 453
-184 53 -253 62 -500 62 -212 -1 -240 -3 -358 -28 -405 -87 -716 -247 -973
-502 -172 -171 -284 -330 -378 -538 -23 -51 -45 -98 -49 -104 -12 -20 -147
-18 -147 2 0 49 129 318 215 448 294 447 808 769 1355 851 58 9 119 18 135 20
73 11 453 -3 535 -19z m1540 15 c0 -5 -5 -10 -11 -10 -5 0 -7 5 -4 10 3 6 8
10 11 10 2 0 4 -4 4 -10z m320 -11 c0 -6 -4 -7 -10 -4 -5 3 -10 11 -10 16 0 6
5 7 10 4 6 -3 10 -11 10 -16z m-552 -4 c3 -3 -9 -5 -26 -5 -18 0 -35 -7 -40
-16 -5 -9 -14 -14 -21 -10 -16 11 -13 29 4 22 9 -3 15 0 15 8 0 9 10 12 32 10
17 -2 34 -6 36 -9z m23 -8 c-10 -9 -11 -8 -5 6 3 10 9 15 12 12 3 -3 0 -11 -7
-18z m-451 9 c0 -2 -9 -6 -20 -9 -11 -3 -18 -1 -14 4 5 9 34 13 34 5z m848
-25 c-10 -16 -15 -18 -27 -8 -11 10 -13 8 -7 -10 4 -12 2 -24 -3 -27 -6 -4 -8
-13 -5 -20 8 -21 -23 -27 -38 -8 -12 15 -11 16 5 3 15 -12 17 -11 17 7 0 11 6
22 13 25 10 4 10 7 0 18 -19 19 -16 28 7 24 11 -2 22 0 25 6 4 5 10 9 16 9 5
0 4 -9 -3 -19z m-446 -13 c-7 -7 -12 -8 -12 -2 0 14 12 26 19 19 2 -3 -1 -11
-7 -17z m225 -13 c-17 -19 -34 -35 -39 -35 -4 0 0 9 10 19 9 11 23 27 30 35 7
9 17 16 22 16 4 0 -6 -16 -23 -35z m78 25 c3 -5 1 -10 -4 -10 -6 0 -11 5 -11
10 0 6 2 10 4 10 3 0 8 -4 11 -10z m55 0 c0 -5 -7 -10 -15 -10 -8 0 -15 -4
-15 -10 0 -5 -8 -10 -17 -10 -13 0 -9 6 12 20 35 23 35 23 35 10z m-169 -23
c-10 -9 -11 -8 -5 6 3 10 9 15 12 12 3 -3 0 -11 -7 -18z m1015 -4 c-7 -7 -26
7 -26 19 0 6 6 6 15 -2 9 -7 13 -15 11 -17z m-1229 -5 c-3 -8 -6 -5 -6 6 -1
11 2 17 5 13 3 -3 4 -12 1 -19z m408 4 c-8 -8 -79 -32 -83 -27 -2 2 6 6 17 10
12 3 21 9 21 13 0 4 12 8 26 8 14 1 23 -1 19 -4z m515 4 c0 -3 -4 -8 -10 -11
-5 -3 -10 -1 -10 4 0 6 5 11 10 11 6 0 10 -2 10 -4z m-640 -37 c0 -4 -7 -10
-16 -13 -14 -5 -15 -4 -4 9 9 11 9 15 1 15 -7 0 -9 5 -5 11 6 11 23 -5 24 -22z
m298 6 c-3 -3 -9 2 -12 12 -6 14 -5 15 5 6 7 -7 10 -15 7 -18z m683 -2 c13
-16 12 -17 -3 -4 -10 7 -18 15 -18 17 0 8 8 3 21 -13z m-721 -3 c0 -5 -10 -10
-22 -9 -22 0 -22 1 -3 9 11 5 21 9 23 9 1 1 2 -3 2 -9z m-177 -35 c-3 -9 -8
-14 -10 -11 -3 3 -2 9 2 15 9 16 15 13 8 -4z m120 1 c4 -10 1 -13 -8 -9 -8 3
-12 9 -9 14 7 12 11 11 17 -5z m70 -3 c-4 -11 -3 -14 5 -9 16 9 15 -7 0 -22
-18 -18 -26 -15 -23 11 4 35 4 37 15 37 5 0 6 -7 3 -17z m407 -3 c0 -5 -5 -10
-11 -10 -5 0 -7 5 -4 10 3 6 8 10 11 10 2 0 4 -4 4 -10z m-474 -32 c4 -7 3 -8
-4 -4 -7 4 -12 2 -12 -5 0 -7 -3 -10 -6 -6 -6 5 3 27 11 27 2 0 7 -5 11 -12z
m320 -18 c0 -11 -4 -20 -8 -20 -4 0 -8 4 -8 9 0 5 -3 17 -6 25 -4 11 -2 15 8
11 7 -3 14 -14 14 -25z m-427 7 c-2 -1 -13 -9 -24 -17 -19 -14 -19 -14 -6 3 7
9 18 17 24 17 6 0 8 -1 6 -3z m184 -12 c-3 -9 -8 -14 -10 -11 -3 3 -2 9 2 15
9 16 15 13 8 -4z m-35 -24 c-7 -9 -13 -17 -14 -19 -1 -2 -1 8 0 21 0 15 6 23
14 20 10 -4 10 -9 0 -22z m179 -7 c2 -5 -8 -10 -22 -10 -21 -2 -24 1 -14 12
13 15 31 14 36 -2z m-410 -10 c-3 -3 -12 -4 -19 -1 -8 3 -5 6 6 6 11 1 17 -2
13 -5z m273 -13 c0 -5 -6 -14 -14 -20 -10 -9 -15 -8 -19 3 -3 8 -3 17 0 20 9
9 33 7 33 -3z m34 -6 c-4 -9 -16 -21 -28 -27 -19 -10 -19 -9 3 16 28 30 33 32
25 11z m214 3 c-5 -15 -45 -19 -73 -7 -14 6 -9 7 18 4 20 -2 37 1 37 6 0 5 5
9 11 9 6 0 9 -6 7 -12z m-163 -40 c1 -15 -1 -25 -4 -23 -2 3 -11 -1 -20 -8
-13 -10 -13 -7 2 15 20 31 21 38 7 38 -6 0 -18 -16 -27 -35 -16 -33 -33 -46
-33 -25 0 6 5 10 10 10 6 0 10 8 10 18 0 23 20 43 40 40 9 -2 15 -14 15 -30z
m-368 16 c-3 -3 -12 -4 -19 -1 -8 3 -5 6 6 6 11 1 17 -2 13 -5z m196 -24 c-3
-11 -9 -17 -15 -14 -5 3 -4 12 3 20 16 19 18 18 12 -6z m298 -3 c-10 -9 -11
-8 -5 6 3 10 9 15 12 12 3 -3 0 -11 -7 -18z m-219 -39 c-19 -19 -14 -30 8 -18
11 6 20 8 20 6 0 -3 -9 -10 -21 -16 -15 -9 -24 -8 -35 1 -18 15 -18 30 0 23 7
-3 16 3 20 12 4 9 9 14 13 10 4 -3 1 -12 -5 -18z m-68 -3 c-4 -8 -8 -15 -10
-15 -2 0 -4 7 -4 15 0 8 4 15 10 15 5 0 7 -7 4 -15z m216 5 c0 -5 -4 -10 -10
-10 -5 0 -10 5 -10 10 0 6 5 10 10 10 6 0 10 -4 10 -10z m-30 -15 c0 -10 -40
-10 -43 0 -4 8 3 10 19 7 13 -2 24 -6 24 -7z m-175 -25 c-3 -5 -11 -10 -16
-10 -6 0 -7 5 -4 10 3 6 11 10 16 10 6 0 7 -4 4 -10z m102 -12 c2 -18 0 -20
-7 -8 -9 13 -11 13 -20 0 -5 -8 -10 -11 -10 -7 0 4 -9 3 -20 -3 -11 -6 -20 -7
-20 -3 0 7 52 37 70 42 3 0 7 -9 7 -21z m83 12 c0 -5 -2 -10 -4 -10 -3 0 -8 5
-11 10 -3 6 -1 10 4 10 6 0 11 -4 11 -10z m40 0 c0 -5 -5 -10 -11 -10 -5 0 -7
5 -4 10 3 6 8 10 11 10 2 0 4 -4 4 -10z m-223 -27 c-4 -3 -2 -12 4 -20 9 -9 8
-13 0 -13 -6 0 -11 2 -11 4 0 2 -3 11 -6 20 -4 10 -1 16 7 16 7 0 9 -3 6 -7z
m138 -13 c3 -6 -1 -7 -9 -4 -18 7 -21 14 -7 14 6 0 13 -4 16 -10z m95 -5 c7
-9 8 -15 2 -15 -5 0 -12 7 -16 15 -3 8 -4 15 -2 15 2 0 9 -7 16 -15z m-2014
-16 c12 -9 14 -68 14 -333 0 -315 0 -323 -21 -345 -18 -19 -29 -22 -57 -17
-57 9 -64 22 -64 127 0 571 0 569 25 579 26 12 83 6 103 -11z m1686 -1 c-7 -7
-12 -8 -12 -2 0 14 12 26 19 19 2 -3 -1 -11 -7 -17z m138 8 c0 -3 -4 -8 -10
-11 -5 -3 -10 -1 -10 4 0 6 5 11 10 11 6 0 10 -2 10 -4z m37 -9 c0 -7 -9 -14
-20 -14 -19 -2 -19 -2 -1 12 11 8 19 15 20 15 0 0 1 -6 1 -13z m90 -19 c-3 -7
-5 -2 -5 12 0 14 2 19 5 13 2 -7 2 -19 0 -25z m-181 -14 c-11 -7 -22 -12 -25
-9 -2 3 4 12 15 19 10 8 21 12 24 9 3 -2 -4 -11 -14 -19z m134 6 c0 -5 -2 -10
-4 -10 -3 0 -8 5 -11 10 -3 6 -1 10 4 10 6 0 11 -4 11 -10z m595 0 c-3 -5 -20
-19 -38 -30 l-32 -22 33 31 c32 30 49 40 37 21z m-685 -10 c0 -5 -4 -10 -10
-10 -5 0 -10 5 -10 10 0 6 5 10 10 10 6 0 10 -4 10 -10z m187 4 c-3 -3 -12 -4
-19 -1 -8 3 -5 6 6 6 11 1 17 -2 13 -5z m-157 -24 c0 -5 -2 -10 -4 -10 -3 0
-8 5 -11 10 -3 6 -1 10 4 10 6 0 11 -4 11 -10z m790 -6 c0 -8 -5 -12 -10 -9
-6 4 -8 11 -5 16 9 14 15 11 15 -7z m81 -17 c-13 -13 -26 -3 -16 12 3 6 11 8
17 5 6 -4 6 -10 -1 -17z m-891 9 c0 -3 -4 -8 -10 -11 -5 -3 -10 -1 -10 4 0 6
5 11 10 11 6 0 10 -2 10 -4z m180 -2 c0 -8 -19 -13 -24 -6 -3 5 1 9 9 9 8 0
15 -2 15 -3z m-109 -26 c-4 -12 -13 -23 -20 -24 -6 -1 -7 0 -1 3 5 2 10 13 10
24 0 10 4 19 10 19 5 0 6 -9 1 -22z m-111 2 c0 -5 -8 -10 -17 -10 -15 0 -16 2
-3 10 19 12 20 12 20 0z m191 -3 c-6 -40 -15 -66 -22 -61 -5 3 -4 14 2 25 6
11 8 27 5 36 -3 8 -1 13 5 11 6 -2 10 -7 10 -11z m604 3 c-3 -5 -12 -10 -18
-10 -7 0 -6 4 3 10 19 12 23 12 15 0z m-905 -4 c0 -3 -4 -8 -10 -11 -5 -3 -10
-1 -10 4 0 6 5 11 10 11 6 0 10 -2 10 -4z m184 -10 c-3 -9 -12 -12 -22 -9 -15
6 -9 11 25 22 1 1 0 -5 -3 -13z m496 9 c0 -2 -10 -10 -22 -16 -21 -11 -22 -11
-9 4 13 16 31 23 31 12z m-3215 -25 c13 -10 15 -58 15 -286 0 -306 0 -304 -70
-304 -71 0 -70 -2 -70 310 0 255 2 280 18 290 21 13 87 7 107 -10z m2659 2 c2
-4 -7 -9 -22 -10 -21 -1 -24 0 -12 8 18 12 27 12 34 2z m-134 -12 c0 -5 -4
-10 -10 -10 -5 0 -10 5 -10 10 0 6 5 10 10 10 6 0 10 -4 10 -10z m65 -20 c3
-6 -1 -7 -9 -4 -18 7 -21 14 -7 14 6 0 13 -4 16 -10z m55 -6 c0 -13 -25 -54
-33 -54 -5 0 -2 11 7 25 9 14 12 25 6 25 -5 0 -10 4 -10 10 0 5 7 7 15 4 8 -4
15 -8 15 -10z m-93 -21 c1 -26 1 -26 -10 -7 -7 12 -19 19 -27 17 -13 -4 -13
-3 0 6 24 17 35 13 37 -16z m53 -3 c0 -5 -5 -10 -11 -10 -5 0 -7 5 -4 10 3 6
8 10 11 10 2 0 4 -4 4 -10z m84 -30 c3 -14 3 -19 0 -12 -9 18 -44 15 -44 -5 0
-9 -3 -14 -6 -10 -3 3 -3 15 1 26 4 13 11 18 22 14 13 -5 15 -2 9 13 -5 12 -4
15 2 9 5 -5 12 -21 16 -35z m116 30 c0 -5 -5 -10 -11 -10 -5 0 -7 5 -4 10 3 6
8 10 11 10 2 0 4 -4 4 -10z m-230 -40 c0 -5 -5 -10 -11 -10 -5 0 -7 5 -4 10 3
6 8 10 11 10 2 0 4 -4 4 -10z m-73 -17 c3 4 14 -3 24 -15 25 -28 24 -36 -1
-13 -10 9 -28 15 -38 13 -12 -4 -18 1 -18 13 0 14 3 15 13 7 8 -6 16 -8 20 -5z
m293 2 c0 -8 -4 -15 -10 -15 -5 0 -7 7 -4 15 4 8 8 15 10 15 2 0 4 -7 4 -15z
m-2522 -7 c8 -8 12 -61 12 -173 0 -112 -4 -165 -12 -173 -14 -14 -87 -16 -108
-2 -12 7 -16 40 -18 164 -3 145 -2 156 17 175 24 24 89 29 109 9z m2351 -2
c10 -12 8 -13 -8 -9 -12 3 -18 9 -15 14 7 12 10 11 23 -5z m-29 -26 c0 -5 -2
-10 -4 -10 -3 0 -8 5 -11 10 -3 6 -1 10 4 10 6 0 11 -4 11 -10z m40 -5 c8 0
16 -8 18 -17 2 -10 -1 -18 -7 -18 -6 0 -8 7 -5 15 4 8 1 15 -5 15 -6 0 -14
-12 -17 -26 -5 -20 -9 -23 -16 -12 -7 10 -11 10 -15 1 -8 -21 -22 -15 -16 7 4
15 11 19 25 14 17 -5 19 -3 13 18 -3 12 -3 19 2 13 4 -5 15 -10 23 -10z m-167
-15 c3 -11 3 -20 1 -20 -2 0 -8 9 -14 20 -6 11 -7 20 -2 20 6 0 12 -9 15 -20z
m-5410 -18 c-3 -12 -10 -22 -15 -22 -5 0 -7 3 -5 8 2 4 7 16 11 26 9 25 17 16
9 -12z m4085 16 c8 -8 12 -54 12 -143 0 -89 -4 -135 -12 -143 -18 -18 -93 -15
-109 4 -9 11 -14 54 -16 131 -4 142 5 163 70 163 24 0 48 -5 55 -12z m1542
-18 c0 -5 -5 -10 -11 -10 -5 0 -7 5 -4 10 3 6 8 10 11 10 2 0 4 -4 4 -10z
m-253 -22 c-3 -8 -6 -5 -6 6 -1 11 2 17 5 13 3 -3 4 -12 1 -19z m-2706 -28
c11 -41 10 -306 -2 -337 -5 -15 -16 -31 -22 -35 -20 -13 -72 -9 -93 6 -17 13
-19 30 -22 186 -4 205 -1 213 82 208 44 -3 51 -6 57 -28z m2689 -33 c-7 -33
-5 -39 16 -56 13 -10 21 -21 17 -25 -3 -3 -16 5 -29 19 l-23 24 -6 -29 c-4
-17 -11 -30 -16 -30 -11 0 -12 17 0 24 4 3 16 31 26 61 19 63 28 69 15 12z
m165 13 c-3 -5 -12 -10 -18 -10 -7 0 -6 4 3 10 19 12 23 12 15 0z m-1151 -16
c13 -13 16 -44 16 -184 0 -157 -1 -170 -19 -180 -28 -14 -74 -12 -97 4 -17 13
-19 30 -22 171 -4 185 3 205 68 205 22 0 45 -7 54 -16z m1297 -21 c-12 -20
-14 -14 -5 12 4 9 9 14 11 11 3 -2 0 -13 -6 -23z m-201 -3 c0 -4 -6 -10 -14
-13 -10 -4 -12 0 -9 14 5 18 23 18 23 -1z m62 2 c8 -6 18 -9 22 -5 4 4 4 -1 0
-11 -7 -18 -8 -18 -26 3 l-18 23 -10 -23 c-10 -23 -10 -23 -6 -2 2 12 -1 24
-8 27 -6 3 -1 4 11 2 11 -1 28 -7 35 -14z m-5575 -24 c-3 -8 -6 -5 -6 6 -1 11
2 17 5 13 3 -3 4 -12 1 -19z m6401 -4 c-7 -15 -14 -21 -16 -15 -2 7 2 18 8 26
18 22 21 18 8 -11z m-2838 -4 c20 -12 28 -333 9 -356 -13 -16 -91 -19 -120 -4
-18 10 -19 23 -19 178 0 117 4 172 12 180 14 14 97 16 118 2z m2000 -15 c-7
-9 -15 -13 -17 -11 -7 7 7 26 19 26 6 0 6 -6 -2 -15z m-5567 -10 c4 -8 3 -16
-1 -19 -4 -3 -9 4 -9 15 -2 23 3 25 10 4z m5477 5 c0 -5 -2 -10 -4 -10 -3 0
-8 5 -11 10 -3 6 -1 10 4 10 6 0 11 -4 11 -10z m230 -1 c0 -3 -9 -9 -19 -12
-13 -3 -18 0 -15 7 5 13 34 18 34 5z m-203 -34 c-15 -14 -33 -25 -40 -25 -7 1
-1 7 13 15 14 8 21 15 15 15 -5 1 -1 5 10 10 32 14 32 11 2 -15z m883 22 c0
-8 -38 -47 -45 -47 -5 0 2 11 15 25 22 24 30 29 30 22z m-942 -37 c-7 -10 -14
-18 -15 -16 -6 6 9 36 18 36 5 0 4 -9 -3 -20z m251 16 c-2 -2 -17 -6 -34 -10
-22 -5 -26 -4 -15 4 14 9 59 15 49 6z m-339 -16 c0 -5 -5 -10 -11 -10 -5 0 -7
5 -4 10 3 6 8 10 11 10 2 0 4 -4 4 -10z m260 0 c0 -5 -5 -10 -11 -10 -5 0 -7
5 -4 10 3 6 8 10 11 10 2 0 4 -4 4 -10z m645 -90 c-10 -11 -22 -20 -28 -20 -5
0 1 9 14 20 31 25 37 25 14 0z m-175 0 c0 -5 -2 -10 -4 -10 -3 0 -8 5 -11 10
-3 6 -1 10 4 10 6 0 11 -4 11 -10z m-50 -24 c0 -2 -7 -6 -15 -10 -8 -3 -15 -1
-15 4 0 6 7 10 15 10 8 0 15 -2 15 -4z m145 -41 c-21 -19 -45 -35 -54 -35 -10
0 -4 7 14 19 17 10 39 28 49 40 11 11 21 19 24 17 2 -3 -13 -21 -33 -41z m-99
28 c-3 -4 -17 -8 -29 -10 -17 -2 -19 -1 -7 7 17 11 47 14 36 3z m-114 -28 c-2
-14 -8 -25 -12 -25 -4 0 -5 11 -2 25 2 14 8 25 12 25 4 0 5 -11 2 -25z m-32
-73 c0 -5 -7 -9 -15 -9 -8 0 -12 4 -9 9 3 4 9 8 15 8 5 0 9 -4 9 -8z m-34 -40
c0 -10 -6 -19 -13 -19 -8 0 -9 6 -2 19 5 10 11 18 12 18 2 0 3 -8 3 -18z m-98
-127 c-6 -14 -13 -23 -15 -21 -5 5 15 46 22 46 3 0 -1 -11 -7 -25z m142 5 c0
-13 -6 -20 -17 -19 -11 0 -13 3 -5 6 6 2 12 11 12 19 0 8 2 14 5 14 3 0 5 -9
5 -20z m-4180 -66 c76 -14 190 -59 190 -75 0 -20 -68 -124 -83 -127 -10 -2
-48 8 -85 22 -120 46 -242 31 -242 -29 0 -34 32 -52 115 -65 240 -40 310 -87
322 -218 13 -144 -79 -239 -255 -263 -98 -14 -224 6 -308 48 -79 40 -85 52
-54 108 41 77 48 79 113 50 110 -51 237 -56 292 -13 59 46 10 92 -120 113
-136 22 -193 43 -241 89 -34 33 -44 52 -53 98 -16 74 -2 126 46 179 44 49 81
69 153 85 75 17 114 17 210 -2z m887 -21 c146 -58 228 -186 228 -358 0 -82 -3
-97 -33 -157 -56 -114 -151 -188 -274 -214 -120 -26 -257 -3 -343 57 -124 85
-186 211 -171 351 16 156 107 273 256 328 75 28 258 24 337 -7z m-2630 -35
c-2 -13 -4 -5 -4 17 -1 22 1 32 4 23 2 -10 2 -28 0 -40z m3168 -195 c0 -228 1
-243 21 -270 46 -63 151 -81 212 -36 57 42 62 66 62 321 l0 233 96 -3 96 -3
-1 -264 c-2 -244 -4 -268 -23 -313 -53 -124 -218 -195 -392 -168 -127 20 -199
68 -247 166 -23 47 -24 58 -27 317 l-3 268 103 -3 103 -3 0 -242z m927 134
c48 -62 121 -155 163 -206 l75 -93 0 206 0 206 94 0 c71 0 95 -3 99 -14 9 -23
8 -714 -1 -720 -5 -3 -42 -7 -83 -10 l-74 -5 -90 116 c-164 213 -230 299 -247
324 -17 23 -18 18 -17 -146 1 -93 1 -196 0 -227 l-1 -58 -100 0 -100 0 0 370
0 370 98 0 97 0 87 -113z m1019 103 c80 -15 172 -64 218 -116 59 -68 84 -152
79 -268 -3 -82 -7 -98 -39 -156 -43 -78 -113 -139 -195 -170 -60 -22 -97 -24
-391 -21 l-103 1 0 363 c0 200 3 367 7 370 10 11 365 8 424 -3z m-5114 -462
c-3 -8 -6 -5 -6 6 -1 11 2 17 5 13 3 -3 4 -12 1 -19z m1813 -498 c143 -285
310 -471 587 -653 312 -205 684 -317 1058 -317 425 0 827 142 1197 422 201
152 357 338 483 576 l39 72 88 0 c48 0 88 -2 88 -4 0 -14 -60 -134 -105 -211
-163 -276 -392 -511 -660 -675 -90 -55 -308 -160 -405 -195 -111 -39 -321 -92
-440 -111 -159 -25 -430 -23 -594 5 -239 40 -409 92 -604 186 -301 145 -553
353 -734 606 -63 87 -208 358 -208 387 0 8 23 12 80 12 l80 0 50 -100z m480 5
l0 -95 100 0 c75 0 100 3 99 13 -1 6 -1 49 0 95 l1 82 65 0 65 0 0 -250 0
-251 -66 3 -67 3 2 98 2 97 -100 0 -100 0 -3 -97 -3 -98 -60 0 -60 0 -3 248
-2 247 65 0 65 0 0 -95z m751 45 c10 -25 53 -132 95 -238 49 -125 73 -197 67
-203 -6 -6 -36 -9 -69 -7 l-58 3 -15 48 -15 47 -101 0 -102 0 -21 -50 -21 -50
-59 0 c-32 0 -61 3 -65 6 -3 4 1 23 9 43 20 47 164 399 175 429 8 21 13 23 86
20 l77 -3 17 -45z m273 -22 c13 -40 41 -118 60 -173 20 -55 36 -102 36 -105 1
-3 16 36 34 85 18 50 49 128 68 175 l34 85 62 3 c34 2 62 0 62 -5 0 -12 -183
-467 -193 -480 -6 -8 -33 -13 -67 -13 -34 0 -62 5 -67 13 -12 14 -168 418
-178 460 l-7 27 65 0 65 0 26 -72z m791 17 l0 -50 -120 -3 -120 -3 0 -39 0
-40 108 0 108 0 -3 -52 -3 -53 -106 -3 -105 -3 2 -42 2 -42 68 -1 c38 -1 95
-2 127 -3 l58 -1 -3 -52 -3 -53 -184 -3 c-135 -2 -187 1 -192 10 -9 13 -12
466 -3 479 3 5 86 8 187 7 l182 -3 0 -50z m308 -80 c54 -74 103 -137 108 -140
5 -4 9 50 9 134 l0 141 60 0 60 0 -2 -247 -3 -248 -60 0 -59 0 -58 75 c-32 41
-80 108 -108 149 l-49 73 -3 -148 -3 -149 -59 0 -59 0 -1 243 c-1 134 1 246 3
248 2 2 32 4 65 4 l61 0 98 -135z m-2971 -1406 c103 -52 149 -209 94 -324 -81
-172 -278 -180 -361 -15 -58 117 -30 249 70 325 62 48 122 52 197 14z m3386
-4 c-3 -3 -231 -6 -506 -6 -303 0 -502 -4 -502 -10 0 -5 81 -9 198 -8 473 3
816 -2 802 -11 -18 -11 -1720 -11 -1720 0 0 8 163 12 488 12 78 1 142 4 142 8
0 4 -176 8 -392 9 -216 1 -394 4 -397 7 -2 2 422 4 944 4 522 0 946 -2 943 -5z
m85 -2 c-13 -2 -33 -2 -45 0 -13 2 -3 4 22 4 25 0 35 -2 23 -4z m104 1 c-3 -3
-12 -4 -19 -1 -8 3 -5 6 6 6 11 1 17 -2 13 -5z m-69 -29 c-8 -8 -77 -9 -85 -2
-3 4 15 7 42 7 27 0 46 -2 43 -5z m-2449 -238 c53 -35 82 -97 82 -171 0 -49 2
-53 30 -63 l29 -11 0 -154 c0 -106 -4 -158 -12 -166 -9 -9 -79 -12 -255 -12
-229 0 -243 1 -253 19 -5 11 -10 83 -10 163 0 149 5 168 42 168 15 0 18 8 18
43 0 72 19 119 65 164 50 47 65 52 156 49 54 -1 74 -7 108 -29z m1118 -21
c126 -59 153 -249 49 -352 -78 -79 -208 -82 -294 -8 -54 46 -86 128 -77 196 7
51 51 127 89 151 63 42 159 47 233 13z m455 14 c20 -6 46 -19 58 -28 l22 -18
-30 -34 -31 -33 -34 17 c-71 33 -142 13 -172 -50 -42 -88 22 -184 124 -184 49
0 61 9 61 45 0 38 -11 45 -57 37 -33 -5 -33 -4 -33 37 l0 41 74 0 c41 0 81 3
90 6 14 5 16 -8 16 -105 l0 -112 -42 -19 c-52 -23 -172 -27 -221 -7 -44 19
-103 87 -116 134 -42 151 55 281 209 283 25 0 62 -5 82 -10z m-972 -160 l0
-160 78 0 c43 0 81 -2 83 -4 2 -3 3 -25 1 -50 l-4 -46 -134 0 -134 0 0 210 0
210 55 0 55 0 0 -160z m1232 -7 c2 -93 2 -187 0 -210 l-3 -43 -50 0 -49 0 0
210 0 210 50 0 49 0 3 -167z m274 41 l89 -125 3 125 3 126 44 0 45 0 0 -210 0
-210 -44 0 -45 0 -87 123 c-48 67 -90 125 -93 129 -3 4 -4 -51 -2 -122 l3
-130 -51 0 -51 0 0 210 0 210 48 0 49 0 89 -126z m-3314 -133 c33 -7 73 -6
139 4 88 13 95 12 148 -7 150 -56 237 -168 229 -295 l-3 -48 -444 -3 c-349 -2
-446 0 -453 10 -13 21 -9 62 12 130 28 93 110 168 229 214 36 13 54 13 143 -5z
m1942 -791 c49 -11 85 -37 111 -81 21 -35 21 -47 13 -519 l-2 -155 -6 160 -6
160 -3 -135 c-7 -264 -19 -190 -20 120 -1 291 -3 317 -20 346 -11 17 -33 36
-50 42 -40 14 -40 7 0 -13 17 -9 36 -31 43 -48 14 -33 10 -103 -5 -113 -5 -3
-9 -24 -9 -47 0 -32 -3 -39 -11 -27 -7 11 -12 12 -15 3 -3 -7 -13 -9 -22 -6
-15 6 -16 5 -2 -12 13 -16 13 -18 0 -12 -8 4 -23 10 -33 13 -10 4 -16 13 -13
21 3 8 2 12 -3 9 -5 -3 -11 -14 -14 -25 -3 -15 0 -18 17 -14 16 4 18 2 7 -5
-7 -5 -10 -15 -6 -21 4 -7 1 -18 -5 -26 -6 -8 -9 -19 -5 -25 3 -5 2 -10 -3
-10 -15 0 -22 28 -9 34 7 2 3 5 -9 5 -11 1 -25 6 -32 13 -8 8 -12 8 -12 1 0
-6 7 -13 15 -17 8 -3 15 -13 14 -23 0 -16 -1 -16 -8 2 -8 19 -8 19 -19 0 -11
-19 -11 -19 -12 5 0 33 -12 49 -32 46 -27 -3 -34 -16 -10 -16 11 0 23 -4 26
-9 3 -5 -5 -8 -18 -8 -16 0 -28 8 -35 25 -13 28 -11 32 17 35 11 0 19 4 16 8
-2 4 -17 4 -32 0 -35 -10 -52 -4 -45 16 5 13 2 15 -15 11 -17 -5 -21 -1 -24
21 -3 25 -6 26 -72 29 -38 2 -76 0 -85 -4 -9 -4 -20 -6 -24 -5 -4 1 -3 -9 4
-21 8 -18 4 -15 -20 9 -28 29 -35 31 -75 27 -28 -4 -46 -2 -51 6 -5 9 -1 10
13 6 11 -4 23 -3 26 2 3 6 -5 12 -19 14 -14 3 -25 1 -25 -5 0 -5 -11 -7 -25
-5 -13 3 -26 0 -28 -5 -2 -6 -20 -10 -40 -9 -20 1 -39 -3 -42 -8 -3 -6 -14
-10 -23 -10 -30 1 30 29 62 30 16 0 26 3 23 6 -9 9 -112 8 -126 -1 -15 -9 -14
8 2 24 10 10 8 11 -8 5 -11 -4 -23 -12 -26 -17 -4 -5 -20 -2 -38 7 -17 9 -31
12 -31 6 0 -5 -7 -10 -16 -10 -11 0 -14 6 -9 20 4 11 2 20 -4 20 -6 0 -10 -3
-10 -7 4 -24 -4 -32 -30 -30 -16 1 -27 5 -25 9 3 4 -2 5 -10 2 -9 -3 -16 -9
-16 -13 0 -4 -7 -8 -15 -8 -12 0 -12 3 -2 16 6 8 -3 4 -20 -9 -18 -13 -36 -20
-40 -16 -4 4 -1 11 7 16 13 8 12 10 -2 10 -10 0 -18 -4 -18 -8 0 -4 -9 -8 -20
-9 -11 -1 -18 2 -15 8 4 5 -4 9 -17 8 -13 0 -17 -3 -10 -6 6 -2 12 -8 12 -13
0 -10 -40 -1 -58 13 -7 5 -16 6 -20 2 -4 -4 -1 -10 6 -12 6 -3 12 -9 12 -15 0
-7 -4 -7 -12 -1 -21 16 -109 16 -122 0 -6 -8 -22 -18 -36 -21 -23 -5 -23 -4 3
6 32 14 33 19 8 35 -14 9 -24 8 -46 -3 -32 -17 -38 -17 -30 -4 3 6 -1 10 -11
10 -11 0 -15 -6 -11 -20 7 -29 -6 -25 -31 10 -13 17 -28 30 -35 30 -8 0 -8 -3
2 -9 8 -5 9 -11 3 -15 -6 -4 -15 1 -20 10 -7 13 -13 14 -29 5 -12 -6 -23 -16
-26 -24 -3 -9 -27 -13 -73 -14 -38 -1 -61 1 -51 4 9 2 17 11 17 20 0 13 -3 13
-15 3 -10 -9 -15 -9 -15 -1 0 6 -5 11 -11 11 -5 0 -7 -4 -4 -10 3 -5 1 -10 -4
-10 -6 0 -11 5 -11 10 0 6 -14 10 -31 10 -17 0 -28 4 -24 10 3 6 1 10 -4 10
-6 0 -11 -4 -11 -10 0 -6 -16 -8 -36 -5 -29 3 -35 1 -30 -11 4 -11 2 -12 -14
-4 -10 5 -30 10 -44 10 -14 0 -26 4 -26 10 0 5 7 7 15 4 8 -4 15 -1 15 6 0 9
-12 11 -41 6 -26 -4 -38 -3 -34 4 3 5 16 11 28 11 16 1 17 3 5 6 -9 2 -26 -1
-37 -7 -12 -6 -21 -7 -21 -3 0 4 -11 8 -24 8 -13 0 -22 -3 -20 -6 4 -7 -68
-12 -134 -10 -32 1 -42 -2 -37 -11 4 -7 0 -5 -8 5 -8 10 -23 17 -34 15 -14 -2
-18 3 -18 25 1 18 -4 27 -15 27 -12 0 -12 2 -1 9 21 14 1 19 -78 20 -41 0 -76
3 -79 6 -3 3 129 5 293 5 164 0 296 2 294 4 -2 2 -147 7 -321 11 -362 7 -384
4 -423 -53 l-25 -37 0 -264 c0 -145 -2 -262 -4 -260 -4 4 -11 165 -18 389 -1
47 -5 -21 -8 -150 l-6 -235 -2 255 c-1 145 2 270 8 291 12 44 55 86 106 104
32 12 258 14 1319 14 734 0 1297 -3 1319 -9z m3183 -22 c24 -16 49 -44 62 -70
20 -42 21 -59 21 -336 0 -188 -4 -292 -10 -292 -6 0 -11 61 -12 158 l-2 157
-6 -150 c-5 -146 -5 -148 -12 -71 -5 43 -8 174 -8 290 0 236 -2 241 -72 271
-48 19 -49 13 -2 -14 19 -12 32 -26 29 -31 -4 -6 -1 -9 7 -8 7 2 14 -8 15 -22
1 -14 0 -19 -3 -12 -10 22 -20 13 -18 -18 1 -16 -2 -27 -7 -24 -5 3 -7 10 -4
15 4 5 -1 9 -10 9 -13 0 -16 -6 -11 -26 7 -25 6 -25 -16 -10 -31 22 -38 20
-38 -9 0 -14 -5 -25 -11 -25 -6 0 -8 10 -5 23 3 12 3 16 0 9 -5 -10 -9 -10
-20 -1 -9 7 -14 8 -14 1 0 -6 6 -12 13 -15 6 -2 9 -8 5 -12 -4 -4 -14 -2 -22
4 -11 9 -16 9 -21 1 -4 -7 -18 -10 -31 -7 -16 3 -24 0 -24 -9 0 -10 11 -12 41
-9 23 3 38 2 35 -4 -9 -13 -108 -4 -117 11 -7 11 -9 10 -9 -1 0 -8 -6 -11 -16
-7 -10 4 -13 2 -8 -6 5 -8 2 -9 -12 -3 -36 15 -208 23 -220 9 -6 -8 -15 -9
-24 -4 -12 7 -12 10 3 16 17 6 14 24 -4 24 -6 0 -7 -4 -4 -10 3 -5 -2 -10 -12
-11 -10 -1 -35 -2 -55 -3 -33 -2 -38 0 -38 18 -1 21 -1 21 -16 1 -9 -12 -24
-19 -37 -17 -22 4 -22 3 -2 -12 19 -14 18 -15 -15 -6 -19 6 -50 10 -67 10 -37
0 -40 6 -16 32 22 24 12 23 -17 -2 -13 -12 -30 -18 -37 -15 -9 3 -13 -1 -11
-12 2 -10 -5 -17 -17 -18 -11 -1 -29 -6 -40 -10 -13 -4 -16 -4 -7 2 18 13 4
46 -17 38 -32 -13 -112 -22 -117 -13 -3 4 -10 6 -15 2 -5 -3 -17 0 -25 7 -12
10 -15 10 -12 -2 2 -11 -9 -13 -55 -11 -33 2 -64 -2 -72 -8 -10 -8 -15 -8 -20
0 -5 8 -12 5 -22 -7 -8 -10 -12 -13 -9 -7 6 13 -45 24 -113 24 -27 0 -52 6
-62 16 -10 9 -24 14 -31 11 -8 -3 -4 -9 12 -16 24 -11 24 -11 -7 -8 -21 2 -34
-1 -38 -11 -4 -11 -9 -12 -19 -3 -7 6 -21 9 -30 5 -9 -3 -16 -2 -16 3 0 4 -25
8 -55 8 -50 0 -57 -3 -62 -23 -4 -18 -8 -20 -20 -11 -11 10 -11 14 -1 21 8 5
1 6 -17 2 -17 -3 -25 -2 -18 3 6 5 -25 8 -74 7 -56 0 -87 -5 -92 -13 -5 -7
-17 -12 -27 -11 -11 1 -23 1 -29 0 -5 -1 -32 -2 -60 -1 l-50 0 39 -10 c53 -13
58 -19 10 -15 -31 2 -41 -1 -51 -18 -10 -17 -12 -18 -13 -4 0 24 -16 31 -41
17 -17 -9 -20 -8 -14 2 6 9 3 11 -9 6 -11 -4 -15 -3 -10 4 4 6 0 15 -7 20 -21
13 -27 11 -32 -13 -3 -14 -5 -8 -6 15 -2 53 -16 64 -83 63 -44 -1 -61 -5 -73
-21 -9 -11 -14 -15 -11 -8 4 6 2 14 -4 18 -5 3 -10 -1 -10 -10 0 -9 9 -19 19
-22 14 -3 19 -13 19 -34 -1 -28 -18 -32 -18 -4 0 8 -6 12 -14 9 -9 -3 -13 1
-13 12 2 14 -7 19 -32 21 -26 2 -32 0 -27 -13 4 -9 2 -12 -5 -8 -6 3 -9 17 -6
30 3 20 2 22 -10 12 -11 -9 -17 -9 -24 3 -7 11 -10 10 -15 -8 -4 -13 -10 -20
-15 -18 -4 3 -6 12 -3 20 5 11 0 12 -24 6 -16 -5 -35 -5 -43 0 -12 7 -11 9 1
10 8 1 22 0 30 -1 10 -1 8 5 -7 19 -26 25 -35 27 -27 6 4 -8 2 -15 -4 -15 -5
0 -12 9 -15 19 -6 24 -43 18 -51 -8 -2 -9 -4 -5 -3 9 1 18 7 24 20 22 10 -2
17 3 17 12 0 8 3 22 7 32 4 12 3 15 -5 10 -7 -4 -12 -2 -12 5 0 7 -12 -1 -26
-17 l-26 -29 16 32 c16 33 49 48 121 56 22 3 18 4 -13 6 -23 0 -58 -5 -77 -13
-62 -26 -64 -37 -65 -287 -1 -124 -5 -232 -11 -239 -6 -10 -9 20 -11 85 -2 98
-2 97 -8 -40 -5 -114 -6 -88 -8 143 -2 300 1 326 46 365 53 48 14 46 1408 44
l1310 -2 41 -27z m-5640 -90 c-3 -8 -6 -5 -6 6 -1 11 2 17 5 13 3 -3 4 -12 1
-19z m28 2 c3 -5 1 -10 -4 -10 -6 0 -11 5 -11 10 0 6 2 10 4 10 3 0 8 -4 11
-10z m-82 -7 c-7 -2 -19 -2 -25 0 -7 3 -2 5 12 5 14 0 19 -2 13 -5z m120 -12
c-3 -11 -11 -17 -19 -14 -10 4 -11 8 -1 19 17 19 26 17 20 -5z m-143 -21 c0
-5 -2 -10 -4 -10 -3 0 -8 5 -11 10 -3 6 -1 10 4 10 6 0 11 -4 11 -10z m75 -29
c-6 -5 -25 10 -25 20 0 5 6 4 14 -3 8 -7 12 -15 11 -17z m378 5 c4 -10 1 -13
-9 -9 -7 3 -14 9 -14 14 0 14 17 10 23 -5z m-18 -22 c48 -23 88 -85 89 -139 1
-35 5 -45 18 -45 28 0 34 -29 28 -160 l-5 -125 -100 -5 c-55 -3 -149 -3 -210
0 l-110 5 0 140 c0 135 1 140 21 143 18 3 22 12 26 53 12 117 135 185 243 133z
m501 -22 c-17 -16 -18 -16 -5 5 7 12 15 20 18 17 3 -2 -3 -12 -13 -22z m-356
-3 c0 -6 -4 -7 -10 -4 -5 3 -10 11 -10 16 0 6 5 7 10 4 6 -3 10 -11 10 -16z
m134 12 c3 -5 -1 -11 -9 -15 -9 -3 -15 0 -15 9 0 16 16 20 24 6z m925 -12
c-22 -13 -31 -11 -17 5 7 8 17 12 22 9 4 -3 2 -9 -5 -14z m1401 11 c0 -5 -5
-10 -11 -10 -5 0 -7 5 -4 10 3 6 8 10 11 10 2 0 4 -4 4 -10z m-2040 -14 c-6
-9 -19 -12 -28 -8 -17 6 -14 7 37 21 2 1 -2 -5 -9 -13z m2440 -80 l0 -81 72 0
73 0 3 -57 3 -58 -76 0 -75 0 0 -74 0 -74 -46 -4 c-27 -2 -49 1 -55 9 -6 6 -9
40 -8 75 l3 63 -82 3 -82 3 0 59 0 60 83 0 82 0 -3 76 c-2 45 1 79 6 83 6 3
31 5 56 3 l46 -4 0 -82z m2215 83 c11 -17 -1 -21 -15 -4 -8 9 -8 15 -2 15 6 0
14 -5 17 -11z m-5035 -3 c0 -3 -4 -8 -10 -11 -5 -3 -10 -1 -10 4 0 6 5 11 10
11 6 0 10 -2 10 -4z m618 -3 c-10 -2 -26 -2 -35 0 -10 3 -2 5 17 5 19 0 27 -2
18 -5z m-380 -158 l-3 -135 73 0 72 0 0 -41 c0 -33 -3 -40 -16 -35 -9 3 -60 6
-115 6 l-99 0 0 170 0 170 46 0 46 0 -4 -135z m92 126 c0 -5 -9 -7 -20 -4 -11
3 -20 7 -20 9 0 2 9 4 20 4 11 0 20 -4 20 -9z m338 -5 c122 -64 120 -256 -4
-316 -54 -26 -111 -25 -164 3 -117 61 -120 239 -6 308 38 23 134 26 174 5z
m42 4 c0 -5 -7 -7 -15 -4 -8 4 -15 8 -15 10 0 2 7 4 15 4 8 0 15 -4 15 -10z
m343 -5 c49 -20 54 -33 25 -61 -23 -24 -26 -24 -54 -9 -35 18 -67 19 -97 3
-35 -18 -46 -40 -47 -91 0 -68 32 -99 98 -95 43 3 47 5 50 31 3 26 1 27 -37
27 -39 0 -41 2 -41 30 l0 30 80 0 80 0 0 -89 c0 -102 7 -96 -116 -107 -60 -5
-75 -2 -114 18 -67 34 -93 85 -86 167 6 73 37 124 90 147 41 18 125 18 169 -1z
m203 -1 c-3 -9 -6 -85 -6 -170 l0 -154 -42 0 -43 0 1 163 c1 89 2 165 3 170 0
4 22 7 47 7 38 0 45 -3 40 -16z m214 -84 c35 -55 66 -100 69 -100 2 0 1 45 -2
100 l-4 100 43 0 44 0 0 -170 0 -170 -39 0 c-42 0 -46 4 -145 149 l-36 53 0
-101 0 -101 -40 0 -40 0 0 170 0 170 43 0 42 -1 65 -99z m2663 93 c-10 -3 -13
-48 -13 -174 l0 -169 -33 0 c-30 0 -37 7 -100 102 l-67 102 0 -102 0 -102 -35
0 -35 0 -2 150 c-1 83 -2 158 -2 168 -1 24 50 29 74 7 10 -9 42 -52 71 -96 29
-43 53 -79 53 -79 1 0 -1 42 -2 94 l-4 95 44 4 c23 2 48 4 53 4 6 1 4 -1 -2
-4z m891 -2 c4 -5 -3 -7 -14 -4 -23 6 -26 13 -6 13 8 0 17 -4 20 -9z m-1700
-25 c23 -15 25 -19 15 -39 -18 -33 -30 -37 -60 -21 -37 18 -63 18 -80 -2 -11
-14 -11 -18 4 -29 10 -7 35 -15 56 -19 21 -3 50 -15 64 -26 52 -41 44 -136
-14 -165 -37 -20 -122 -19 -160 1 -26 13 -30 19 -24 42 4 15 8 28 9 29 1 2 28
-3 59 -9 51 -11 59 -10 74 5 15 15 15 19 3 31 -8 7 -39 21 -67 31 -61 19 -83
45 -83 95 0 36 21 69 55 89 27 16 117 8 149 -13z m149 12 c-2 -5 -3 -80 -3
-169 l0 -160 -37 3 -38 3 -3 155 c-1 85 0 160 3 168 5 14 82 14 78 0z m117 8
c0 -2 -7 -7 -16 -10 -8 -3 -12 -2 -9 4 6 10 25 14 25 6z m160 -14 c39 -19 46
-38 25 -66 -14 -18 -16 -18 -50 -2 -64 31 -120 2 -131 -66 -12 -70 43 -127
108 -113 21 5 28 12 28 31 0 21 -5 24 -35 24 -32 0 -35 2 -35 30 l0 30 70 0
70 0 0 -75 c0 -70 -2 -76 -26 -92 -16 -10 -53 -19 -88 -21 -51 -3 -66 0 -95
20 -19 13 -44 38 -54 56 -26 44 -26 127 -1 178 36 73 137 105 214 66z m578 8
c9 0 12 -29 12 -113 0 -126 9 -149 54 -149 52 0 61 21 61 147 0 63 2 115 5
116 3 1 21 2 40 2 l35 2 0 -120 c-1 -172 -30 -215 -145 -215 -43 0 -55 5 -88
34 l-37 34 -3 122 c-4 140 -1 155 31 146 12 -3 28 -6 35 -6z m451 -9 c28 -16
51 -62 51 -107 0 -28 -8 -44 -34 -70 -30 -30 -40 -34 -85 -34 l-51 0 0 -55 0
-55 -40 0 -40 0 0 163 c0 90 3 167 7 170 10 11 168 1 192 -12z m188 -3 c-3 -8
-6 -5 -6 6 -1 11 2 17 5 13 3 -3 4 -12 1 -19z m-1470 -10 c-3 -8 -6 -5 -6 6
-1 11 2 17 5 13 3 -3 4 -12 1 -19z m1670 -470 c-3 -7 -5 -2 -5 12 0 14 2 19 5
13 2 -7 2 -19 0 -25z m526 6 c-4 -12 -8 -13 -14 -3 -9 15 -2 32 11 24 5 -3 6
-13 3 -21z m-4705 -81 c-15 -2 -42 -2 -60 0 -18 2 -6 4 27 4 33 0 48 -2 33 -4z
m605 0 c-106 -2 -280 -2 -385 0 -106 1 -20 2 192 2 212 0 298 -1 193 -2z
m2154 1 c-7 -7 -859 -6 -866 1 -2 3 193 5 434 5 241 0 436 -3 432 -6z m112 2
c-9 -8 -99 -13 -99 -5 0 5 23 9 52 9 28 0 49 -2 47 -4z m960 -12 c9 -9 -891
-2 -914 7 -11 4 189 6 444 3 256 -2 467 -7 470 -10z m-2894 -4 c-3 -5 -21 -9
-38 -9 l-32 2 35 7 c19 4 36 8 38 9 2 0 0 -3 -3 -9z m-822 -17 c-34 -2 -93 -2
-130 0 -37 2 -9 3 62 3 72 0 102 -1 68 -3z m430 0 c-62 -2 -164 -2 -225 0 -62
1 -12 3 112 3 124 0 174 -2 113 -3z m2849 0 c-298 -2 -786 -2 -1085 0 -298 1
-54 2 543 2 597 0 841 -1 542 -2z m-4807 -774 c44 -22 69 -37 55 -33 -46 12
-160 74 -137 74 1 0 38 -18 82 -41z m165 -66 c30 -11 31 -12 6 -8 -16 4 -43
13 -60 20 -23 11 -25 13 -6 8 14 -3 41 -12 60 -20z m120 -35 c18 -5 13 -6 -15
-2 -22 3 -47 10 -55 15 -16 10 24 3 70 -13z m4671 6 c-25 -8 -61 -16 -80 -19
-20 -2 -7 4 29 14 75 22 117 26 51 5z m-4581 -24 c20 -6 21 -8 5 -8 -11 0 -31
4 -45 8 -20 6 -21 8 -5 8 11 0 31 -4 45 -8z m4457 -6 c-3 -3 -12 -4 -19 -1 -8
3 -5 6 6 6 11 1 17 -2 13 -5z m-4359 -11 c-10 -2 -26 -2 -35 0 -10 3 -2 5 17
5 19 0 27 -2 18 -5z m55 -10 c-7 -2 -19 -2 -25 0 -7 3 -2 5 12 5 14 0 19 -2
13 -5z m4150 0 c-7 -2 -19 -2 -25 0 -7 3 -2 5 12 5 14 0 19 -2 13 -5z m-340
-10 c-7 -2 -19 -2 -25 0 -7 3 -2 5 12 5 14 0 19 -2 13 -5z m767 -43 c-8 -5
-19 -10 -25 -10 -5 0 -3 5 5 10 8 5 20 10 25 10 6 0 3 -5 -5 -10z"/>
<path d="M3403 11523 c9 -2 23 -2 30 0 6 3 -1 5 -18 5 -16 0 -22 -2 -12 -5z"/>
<path d="M8463 9945 c0 -33 2 -45 4 -27 2 18 2 45 0 60 -2 15 -4 0 -4 -33z"/>
<path d="M8462 9640 c0 -14 2 -19 5 -12 2 6 2 18 0 25 -3 6 -5 1 -5 -13z"/>
<path d="M8461 9584 c0 -11 3 -14 6 -6 3 7 2 16 -1 19 -3 4 -6 -2 -5 -13z"/>
<path d="M8462 9480 c0 -14 2 -19 5 -12 2 6 2 18 0 25 -3 6 -5 1 -5 -13z"/>
<path d="M8462 9315 c0 -16 2 -22 5 -12 2 9 2 23 0 30 -3 6 -5 -1 -5 -18z"/>
<path d="M6690 11445 c0 -8 4 -15 8 -15 5 0 9 7 9 15 0 8 -4 15 -9 15 -4 0 -8
-7 -8 -15z"/>
<path d="M7053 11425 c0 -11 4 -12 14 -4 7 6 13 13 13 15 0 2 -6 4 -13 4 -8 0
-14 -7 -14 -15z"/>
<path d="M7171 11406 c-9 -11 -9 -15 1 -19 10 -4 8 -10 -7 -23 l-20 -17 20 8
c11 4 27 9 36 12 23 7 22 53 -1 53 -10 0 -23 -6 -29 -14z m29 -17 c0 -6 -4 -7
-10 -4 -5 3 -10 11 -10 16 0 6 5 7 10 4 6 -3 10 -11 10 -16z"/>
<path d="M7435 11381 c-10 -21 -11 -31 -3 -33 11 -4 58 36 58 49 0 4 -5 2 -12
-5 -17 -17 -31 -15 -24 3 10 26 -3 16 -19 -14z"/>
<path d="M7126 11351 c-4 -7 -5 -15 -2 -18 9 -9 19 4 14 18 -4 11 -6 11 -12 0z"/>
<path d="M7427 11317 c-3 -7 5 -13 19 -13 29 -2 30 2 5 15 -14 8 -20 7 -24 -2z"/>
<path d="M7452 11278 c-7 -7 -12 -8 -12 -3 0 5 -7 -1 -16 -13 -9 -13 -13 -26
-9 -30 4 -4 10 -1 12 6 7 18 23 15 44 -10 l19 -21 0 21 c0 13 -6 22 -15 22
-18 0 -20 17 -3 22 8 3 8 7 2 11 -6 3 -16 1 -22 -5z"/>
<path d="M7380 11185 c-11 -13 -10 -14 4 -9 9 3 16 10 16 15 0 13 -6 11 -20
-6z"/>
<path d="M6555 11400 c-3 -5 -1 -10 4 -10 6 0 11 5 11 10 0 6 -2 10 -4 10 -3
0 -8 -4 -11 -10z"/>
<path d="M7740 11250 c0 -5 5 -10 10 -10 6 0 10 5 10 10 0 6 -4 10 -10 10 -5
0 -10 -4 -10 -10z"/>
<path d="M7820 11189 c0 -5 5 -7 10 -4 6 3 10 8 10 11 0 2 -4 4 -10 4 -5 0
-10 -5 -10 -11z"/>
<path d="M7880 11105 c-7 -9 -10 -18 -7 -21 3 -3 10 4 17 15 13 25 8 27 -10 6z"/>
<path d="M7961 11087 c-9 -15 -10 -18 -1 -10 7 6 20 9 29 6 9 -3 12 -1 6 4 -5
4 -12 11 -15 15 -3 4 -12 -3 -19 -15z"/>
<path d="M7970 11060 c0 -5 7 -10 16 -10 8 0 12 5 9 10 -3 6 -10 10 -16 10 -5
0 -9 -4 -9 -10z"/>
<path d="M3990 9749 c-104 -42 -157 -154 -125 -264 31 -107 113 -163 221 -152
216 22 267 317 71 410 -38 19 -127 22 -167 6z"/>
<path d="M6520 9755 c0 -3 0 -101 -1 -217 l0 -213 73 4 c85 4 121 16 171 61
27 23 42 48 53 88 40 136 -33 249 -174 273 -62 10 -122 12 -122 4z"/>
<path d="M4531 8830 c-17 -46 -30 -86 -29 -89 2 -3 31 -4 65 -1 l61 5 -32 84
-33 85 -32 -84z"/>
<path d="M5360 7480 c0 -5 5 -10 10 -10 6 0 10 5 10 10 0 6 -4 10 -10 10 -5 0
-10 -4 -10 -10z"/>
<path d="M5390 7482 c0 -4 9 -8 20 -8 11 0 20 4 20 8 0 4 -9 8 -20 8 -11 0
-20 -4 -20 -8z"/>
<path d="M3938 7174 c-38 -20 -58 -63 -58 -124 l0 -50 120 0 120 0 0 38 c-1
112 -96 183 -182 136z"/>
<path d="M3946 6888 c-9 -12 -16 -33 -16 -46 0 -30 51 -123 65 -119 6 2 22 21
37 43 48 69 29 144 -37 144 -24 0 -39 -7 -49 -22z"/>
<path d="M5083 7125 c-79 -34 -86 -169 -11 -215 81 -49 178 7 178 105 0 95
-80 148 -167 110z"/>
<path d="M2890 6760 c-13 -8 -12 -10 3 -10 9 0 17 5 17 10 0 12 -1 12 -20 0z"/>
<path d="M3316 6725 c4 -8 8 -15 10 -15 2 0 4 7 4 15 0 8 -4 15 -10 15 -5 0
-7 -7 -4 -15z"/>
<path d="M3090 6660 c0 -5 5 -10 11 -10 5 0 7 5 4 10 -3 6 -8 10 -11 10 -2 0
-4 -4 -4 -10z"/>
<path d="M2963 6113 c20 -2 54 -2 75 0 20 2 3 4 -38 4 -41 0 -58 -2 -37 -4z"/>
<path d="M3133 6113 c31 -2 83 -2 115 0 31 2 5 3 -58 3 -63 0 -89 -1 -57 -3z"/>
<path d="M3368 6113 c7 -3 16 -2 19 1 4 3 -2 6 -13 5 -11 0 -14 -3 -6 -6z"/>
<path d="M3428 6113 c17 -2 47 -2 65 0 17 2 3 4 -33 4 -36 0 -50 -2 -32 -4z"/>
<path d="M2521 6073 c0 -13 -5 -23 -9 -23 -5 0 -9 -7 -9 -15 0 -11 3 -12 14
-3 11 9 16 9 23 -2 5 -8 13 -11 17 -6 4 4 1 13 -8 20 -9 6 -19 20 -22 31 -4
18 -5 18 -6 -2z"/>
<path d="M2550 6080 c8 -5 20 -10 25 -10 6 0 3 5 -5 10 -8 5 -19 10 -25 10 -5
0 -3 -5 5 -10z"/>
<path d="M2570 6036 c0 -2 9 -6 20 -9 11 -3 18 -1 14 4 -5 9 -34 13 -34 5z"/>
<path d="M2881 6019 c-1 -19 25 -33 34 -19 3 5 13 6 22 3 11 -5 14 -3 9 6 -5
7 -18 10 -31 7 -14 -4 -25 -1 -28 7 -4 7 -6 6 -6 -4z"/>
<path d="M3130 6010 c-13 -8 -12 -10 3 -10 9 0 17 5 17 10 0 12 -1 12 -20 0z"/>
<path d="M3171 6011 c-9 -6 -10 -11 -2 -15 13 -8 31 1 31 15 0 11 -11 11 -29
0z"/>
<path d="M3420 6002 c0 -7 -7 -12 -16 -12 -8 0 -12 -5 -8 -11 4 -7 11 -6 22 5
9 8 13 19 9 22 -4 4 -7 2 -7 -4z"/>
<path d="M3730 5999 c0 -5 5 -7 10 -4 6 3 10 8 10 11 0 2 -4 4 -10 4 -5 0 -10
-5 -10 -11z"/>
<path d="M3860 5995 c7 -9 15 -13 17 -11 7 7 -7 26 -19 26 -6 0 -6 -6 2 -15z"/>
<path d="M3217 5986 c-17 -13 -23 -36 -9 -36 8 0 35 40 30 45 -2 2 -11 -2 -21
-9z"/>
<path d="M3511 5989 c-13 -5 -21 -12 -18 -15 3 -4 14 -3 24 1 10 5 21 7 26 7
4 -1 7 3 7 8 0 12 -7 12 -39 -1z"/>
<path d="M4390 5950 c0 -5 5 -10 11 -10 5 0 7 5 4 10 -3 6 -8 10 -11 10 -2 0
-4 -4 -4 -10z"/>
<path d="M4879 5928 c-6 -21 -5 -38 2 -38 5 0 9 9 9 20 0 16 -7 28 -11 18z"/>
<path d="M5503 5999 c15 -9 16 -13 5 -27 -12 -15 -11 -16 5 -3 13 10 15 17 6
27 -6 8 -17 14 -23 14 -6 0 -3 -5 7 -11z"/>
<path d="M5565 5960 c-3 -5 -1 -10 4 -10 6 0 11 5 11 10 0 6 -2 10 -4 10 -3 0
-8 -4 -11 -10z"/>
<path d="M7830 5960 c0 -5 5 -10 11 -10 5 0 7 5 4 10 -3 6 -8 10 -11 10 -2 0
-4 -4 -4 -10z"/>
<path d="M6260 5949 c0 -5 5 -7 10 -4 6 3 10 8 10 11 0 2 -4 4 -10 4 -5 0 -10
-5 -10 -11z"/>
<path d="M7435 5950 c-3 -6 1 -7 9 -4 18 7 21 14 7 14 -6 0 -13 -4 -16 -10z"/>
<path d="M6608 5933 c7 -3 16 -2 19 1 4 3 -2 6 -13 5 -11 0 -14 -3 -6 -6z"/>
<path d="M7780 5930 c0 -5 5 -10 10 -10 6 0 10 5 10 10 0 6 -4 10 -10 10 -5 0
-10 -4 -10 -10z"/>
<path d="M5998 5913 c7 -3 16 -2 19 1 4 3 -2 6 -13 5 -11 0 -14 -3 -6 -6z"/>
<path d="M5845 5900 c3 -5 11 -10 16 -10 6 0 7 5 4 10 -3 6 -11 10 -16 10 -6
0 -7 -4 -4 -10z"/>
<path d="M2654 5922 c-33 -5 -62 -43 -70 -90 l-7 -43 94 3 94 3 -3 40 c-6 62
-48 96 -108 87z"/>
<path d="M2642 5698 c-29 -37 -15 -120 23 -135 40 -15 86 95 55 132 -15 18
-64 20 -78 3z"/>
<path d="M3479 5835 c-27 -15 -49 -60 -49 -100 0 -13 13 -37 29 -54 61 -65
151 -27 151 63 0 78 -69 126 -131 91z"/>
<path d="M7600 5795 l0 -45 39 0 c31 0 41 4 46 20 14 43 -12 69 -67 70 -15 0
-18 -9 -18 -45z"/>
<path d="M2494 11474 c-18 -14 -18 -14 6 -3 31 14 36 19 24 19 -6 0 -19 -7
-30 -16z"/>
<path d="M2450 11450 c-9 -6 -10 -10 -3 -10 6 0 15 5 18 10 8 12 4 12 -15 0z"/>
<path d="M2119 11353 c-13 -16 -12 -17 4 -4 16 13 21 21 13 21 -2 0 -10 -8
-17 -17z"/>
<path d="M2054 11298 l-19 -23 23 19 c12 11 22 21 22 23 0 8 -8 2 -26 -19z"/>
<path d="M1909 11153 c-13 -16 -12 -17 4 -4 16 13 21 21 13 21 -2 0 -10 -8
-17 -17z"/>
<path d="M1511 10344 c0 -11 3 -14 6 -6 3 7 2 16 -1 19 -3 4 -6 -2 -5 -13z"/>
<path d="M1501 10284 c0 -11 3 -14 6 -6 3 7 2 16 -1 19 -3 4 -6 -2 -5 -13z"/>
<path d="M1492 10220 c0 -14 2 -19 5 -12 2 6 2 18 0 25 -3 6 -5 1 -5 -13z"/>
<path d="M1482 10130 c0 -14 2 -19 5 -12 2 6 2 18 0 25 -3 6 -5 1 -5 -13z"/>
<path d="M1474 9925 c0 -49 1 -71 3 -48 2 23 2 64 0 90 -2 26 -3 8 -3 -42z"/>
<path d="M1472 7880 c0 -14 2 -19 5 -12 2 6 2 18 0 25 -3 6 -5 1 -5 -13z"/>
<path d="M1472 7710 c0 -14 2 -19 5 -12 2 6 2 18 0 25 -3 6 -5 1 -5 -13z"/>
<path d="M1473 7520 c0 -47 2 -66 4 -42 2 23 2 61 0 85 -2 23 -4 4 -4 -43z"/>
<path d="M1475 6590 c0 -432 1 -608 2 -393 2 216 2 570 0 785 -1 216 -2 40 -2
-392z"/>
<path d="M8752 5805 c0 -16 2 -22 5 -12 2 9 2 23 0 30 -3 6 -5 -1 -5 -18z"/>
<path d="M1483 5715 c0 -27 2 -38 4 -22 2 15 2 37 0 50 -2 12 -4 0 -4 -28z"/>
<path d="M1492 5635 c0 -16 2 -22 5 -12 2 9 2 23 0 30 -3 6 -5 -1 -5 -18z"/>
<path d="M1502 5575 c0 -16 2 -22 5 -12 2 9 2 23 0 30 -3 6 -5 -1 -5 -18z"/>
<path d="M8676 5574 c-4 -14 -5 -28 -3 -31 3 -2 8 8 11 23 4 14 5 28 3 31 -3
2 -8 -8 -11 -23z"/>
<path d="M8712 5520 c0 -14 2 -19 5 -12 2 6 2 18 0 25 -3 6 -5 1 -5 -13z"/>
<path d="M8691 5444 c0 -11 3 -14 6 -6 3 7 2 16 -1 19 -3 4 -6 -2 -5 -13z"/>
</g>
</svg>
